<svg id="id-svg" viewBox="0 0 1024 1024" xmlns="http://www.w3.org/2000/svg">
    <path
        d="M930.36339 92.946902c-18.975167-18.975167-44.166919-29.426193-70.939679-29.426193l-736.175689 0.468674-0.12689 148.804071H64.021106v51.27685h59.057047l-0.106424 125.070531H64.021106v51.27685h58.908668l-0.107448 124.746142H64.021106v51.27685h58.757218l-0.106424 125.07053H64.019059v51.276851h58.607816l-0.141216 165.513637 736.941122-0.687661c55.338353 0 100.359732-45.02138 100.359732-100.359732V163.881464c0-26.767644-10.44898-51.959396-29.423123-70.934562z m-20.675902 70.936609v693.371814c0 27.713178-22.545482 50.258661-50.260707 50.258661l-73.241095 0.019442V113.658619L859.427804 113.62178c27.713178 0 50.259684 22.547529 50.259684 50.261731zM170.417321 741.511207l0.23536-125.07053h66.537416v-51.27685h-66.440201l0.236383-124.746142h66.204841v-51.27685h-66.10865l0.236384-125.070531h65.87022v-51.27685h-65.775053l0.186242-98.825796 564.484352-0.283456v793.863553l-565.982472 0.150426 0.218987-114.910123h66.86999V741.511207h-66.773799z"
        fill="currentColor" stroke-width="28"/>
</svg>