<svg id="id-svg" viewBox="0 0 1024 1024" xmlns="http://www.w3.org/2000/svg">
    <path
        d="M523.6736 71.850667a23.1424 23.1424 0 0 0-24.746667 0c-110.592 70.724267-183.876267 196.4032-183.876266 339.7632 0 20.0704 1.399467 40.1408 4.676266 60.2112a24.507733 24.507733 0 0 1-3.2768 16.247466A318.634667 318.634667 0 0 0 273.066667 650.069333c0 26.760533 3.2768 53.521067 9.796266 79.325867a23.4496 23.4496 0 0 0 44.3392 3.822933 306.653867 306.653867 0 0 1 61.1328-88.8832c1.877333 2.389333 3.754667 5.256533 5.597867 8.123734 39.2192 2.8672 78.404267 4.778667 118.0672 4.778666 39.185067 0 78.848-1.4336 118.0672-4.778666 1.877333-2.389333 3.754667-5.256533 5.597867-8.123734a306.688 306.688 0 0 1 61.1328 88.8832 23.4496 23.4496 0 0 0 44.3392-3.822933c6.519467-25.8048 9.796267-52.565333 9.796266-79.325867 0-59.733333-16.349867-115.643733-43.383466-161.9968a24.507733 24.507733 0 0 1-3.2768-16.247466c2.798933-20.0704 4.676267-40.1408 4.676266-60.2112-0.955733-143.36-74.205867-269.038933-185.275733-339.7632z m67.208533 299.144533c0 44.919467-35.498667 81.237333-79.36 81.237333-43.861333 0-79.325867-36.317867-79.325866-81.237333 0-44.919467 35.498667-81.237333 79.325866-81.237333 43.861333 0.477867 79.36 36.795733 79.36 81.237333z"
        fill="#0dafbb"/>
    <path
        d="M464.213333 730.453333c0 36.420267 21.333333 225.28 47.786667 225.28 26.453333 0 47.786667-188.859733 47.786667-225.28 0-36.352-21.333333-65.7408-47.786667-65.7408-26.453333 0.477867-47.786667 29.9008-47.786667 65.774934z"
        fill="#0dafbb"/>
</svg>