<svg id="id-svg" viewBox="0 0 1024 1024" version="1.1" xmlns="http://www.w3.org/2000/svg">
    <path
        d="M896.035413 128a128 128 0 1 0-164.010666 122.88V378.453333l-220.288 220.16-220.202667-220.16V251.008A128.042667 128.042667 0 0 0 256.035413 0a128 128 0 0 0-36.48 250.709333v156.885334l-0.298666 0.298666 256.768 256.810667v108.373333A128.085333 128.085333 0 0 0 512.035413 1024a128 128 0 0 0 36.010667-250.88v-108.928L804.30208 407.893333l-0.298667-0.298666V250.88A128.085333 128.085333 0 0 0 896.035413 128zM200.01408 128a56.021333 56.021333 0 1 1 112.085333 0.085333A56.021333 56.021333 0 0 1 200.01408 128z m368.042667 768a56.021333 56.021333 0 1 1-112.085334-0.085333 56.021333 56.021333 0 0 1 112.085334 0.085333zM768.035413 183.978667a56.021333 56.021333 0 1 1 0.085334-112.042667A56.021333 56.021333 0 0 1 768.035413 184.021333z"/>
</svg>