<svg id="id-svg" viewBox="0 0 1024 1024" xmlns="http://www.w3.org/2000/svg">
    <path
        d="M951.195857 793.868669 951.195857 107.301841c0-23.847128-14.686491-43.225477-39.304168-43.225477L374.844224 64.076364c-24.949228 0-47.865147 19.763113-47.865147 43.225477l0 591.558987c-22.512736-28.092825-64.692395-45.542242-107.262956-45.542242-84.609003 0-152.599514 68.832691-152.599514 153.442718s69.254294 153.442718 153.863297 153.442718 152.047951-68.832691 152.047951-153.442718c0-4.351098 8.18645-8.630564-2.046612-12.891611L370.981243 272.830829l537.235754 0 0 426.028976c-22.512736-28.092825-64.866357-45.542242-107.437941-45.542242-84.609003 0-152.686495 68.832691-152.686495 153.442718s69.210291 153.442718 153.820318 153.442718 151.688771-68.832691 151.688771-153.442718C953.60165 802.409183 962.452225 798.130739 951.195857 793.868669zM221.401506 916.362514c-60.430324 0-109.60121-49.170886-109.60121-109.60121s47.485501-109.60121 107.915825-109.60121c56.459896 0 107.262956 42.929742 107.262956 97.852632l0 4.780887c0 1.623987 1.889023 3.195785 2.224668 4.718465 0.014326 0.756223 0.956791 1.489934 0.956791 2.249227C330.160535 867.191628 281.832853 916.362514 221.401506 916.362514zM370.981243 228.828662 370.981243 109.346407c10.233062-0.031722 0.511653-0.042979 0.747014-0.042979l536.488741 0.107447 0 119.41881L370.981243 228.829685zM802.290479 916.362514c-60.430324 0-109.60121-49.170886-109.60121-109.60121s47.659463-109.60121 108.09081-109.60121c56.459896 0 107.437941 42.929742 107.437941 97.852632l0 15.741519c0 1.01819 1.677199 1.991354 1.810229 2.972705C906.404722 870.909299 860.370269 916.362514 802.290479 916.362514z"
        fill="currentColor" stroke-width="28"/>
</svg>