<svg id="id-svg" viewBox="0 0 1024 1024" xmlns="http://www.w3.org/2000/svg">
    <path
        d="M417.383062 781.594111c-62.535265 0-124.161834-16.698311-179.426509-49.300846-81.562621-48.080042-139.525754-125.07053-163.182546-216.743416s-10.1952-187.094142 37.913495-268.656763c48.080042-81.533968 125.07053-139.497101 216.743416-163.153894 91.701538-23.77038 187.094142-10.223852 268.656763 37.884842S737.613434 246.722194 761.270227 338.394057l0 0c23.656793 91.672886 10.1952 187.094142-37.913495 268.629133-48.108694 81.562621-125.099183 139.525754-216.772069 163.182546C477.05 777.816065 447.11727 781.594111 417.383062 781.594111zM418.518932 130.511449c-24.848944 0-49.868781 3.152806-74.547857 9.54233-76.649727 19.766183-141.002384 68.214614-181.187619 136.4016-40.213887 68.186985-51.458999 147.932214-31.69384 224.553289 19.793812 76.649727 68.214614 141.002384 136.4016 181.187619 68.186985 40.212864 147.903561 51.402717 224.553289 31.69384 76.649727-19.793812 141.002384-68.214614 181.216271-136.4016 40.212864-68.158333 51.458999-147.932214 31.665187-224.553289l0 0c-19.766183-76.649727-68.186985-141.002384-136.372947-181.216271C522.317996 144.456043 470.801692 130.511449 418.518932 130.511449z"/>
    <path
        d="M915.563312 953.295682c-11.161201 0-22.321378-4.260024-30.841426-12.780071l-260.307607-260.421194c-17.039072-17.039072-17.039072-44.672432 0-61.682851 17.039072-17.039072 44.64378-17.039072 61.682851 0l260.307607 260.421194c17.039072 17.039072 17.039072 44.672432 0 61.682851C937.88469 949.035658 926.723489 953.295682 915.563312 953.295682z"/>
</svg>