<svg xmlns="http://www.w3.org/2000/svg" xmlns:xlink="http://www.w3.org/1999/xlink" width="1024" height="1024" viewBox="0 0 1024 1024" fill="none"><defs><rect id="path_0" x="0" y="0" width="1024" height="1024" /><linearGradient id="linear_0" x1="-21056.33870967742%" y1="95413.58695652174%" x2="-20992.33870967742%" y2="95421.67391304347%" gradientUnits="objectBoundingBox"><stop offset="0" stop-color="#98D6FA" stop-opacity="1" /><stop offset="1" stop-color="#47B0F1" stop-opacity="1" /></linearGradient><linearGradient id="linear_1" x1="-21056.33870967742%" y1="95413.58695652174%" x2="-20992.33870967742%" y2="95421.67391304347%" gradientUnits="objectBoundingBox"><stop offset="0" stop-color="#98D6FA" stop-opacity="1" /><stop offset="1" stop-color="#47B0F1" stop-opacity="1" /></linearGradient><linearGradient id="linear_2" x1="-21354.003225806453%" y1="93604.33333333333%" x2="-21254.003225806453%" y2="93604.33333333333%" gradientUnits="objectBoundingBox"><stop offset="0" stop-color="#FFF5DE" stop-opacity="1" /><stop offset="1" stop-color="#FBD2AC" stop-opacity="1" /></linearGradient><linearGradient id="linear_3" x1="-20831.948711099234%" y1="97202.49560983774%" x2="-20768.948711099238%" y2="97208.35083235342%" gradientUnits="objectBoundingBox"><stop offset="0" stop-color="#98D6FA" stop-opacity="1" /><stop offset="1" stop-color="#47B0F1" stop-opacity="1" /></linearGradient><linearGradient id="linear_4" x1="-20565.306122448957%" y1="98672.92021634924%" x2="-20501.367731998438%" y2="98678.75751980762%" gradientUnits="objectBoundingBox"><stop offset="0" stop-color="#98D6FA" stop-opacity="1" /><stop offset="1" stop-color="#47B0F1" stop-opacity="1" /></linearGradient><linearGradient id="linear_5" x1="-20541.51923076923%" y1="98895.19716608555%" x2="-20477.654615384614%" y2="98901.047632368%" gradientUnits="objectBoundingBox"><stop offset="0" stop-color="#98D6FA" stop-opacity="1" /><stop offset="1" stop-color="#47B0F1" stop-opacity="1" /></linearGradient><linearGradient id="linear_6" x1="-20212.833333333332%" y1="101885.92504838352%" x2="-20149.88583333333%" y2="101891.79949920243%" gradientUnits="objectBoundingBox"><stop offset="0" stop-color="#98D6FA" stop-opacity="1" /><stop offset="1" stop-color="#47B0F1" stop-opacity="1" /></linearGradient><linearGradient id="linear_7" x1="-20352.575532441802%" y1="96002.81452218756%" x2="-20392.575532441806%" y2="96088.57273229852%" gradientUnits="objectBoundingBox"><stop offset="0" stop-color="#98D6FA" stop-opacity="1" /><stop offset="1" stop-color="#47B0F1" stop-opacity="1" /></linearGradient><linearGradient id="linear_8" x1="-20360.70374015748%" y1="95224.48726208278%" x2="-20304.703740157478%" y2="95265.93558196735%" gradientUnits="objectBoundingBox"><stop offset="0" stop-color="#98D6FA" stop-opacity="1" /><stop offset="1" stop-color="#47B0F1" stop-opacity="1" /></linearGradient><linearGradient id="linear_9" x1="-20497.188498402556%" y1="95971.50989110423%" x2="-20412.188498402553%" y2="96009.8734428187%" gradientUnits="objectBoundingBox"><stop offset="0" stop-color="#98D6FA" stop-opacity="1" /><stop offset="1" stop-color="#47B0F1" stop-opacity="1" /></linearGradient><linearGradient id="linear_10" x1="-20704.09836065574%" y1="95512.40169220205%" x2="-20619.09836065574%" y2="95548.44632915387%" gradientUnits="objectBoundingBox"><stop offset="0" stop-color="#98D6FA" stop-opacity="1" /><stop offset="1" stop-color="#47B0F1" stop-opacity="1" /></linearGradient><linearGradient id="linear_11" x1="-20288.473684210527%" y1="96981.2119314338%" x2="-20203.473684210527%" y2="97016.39623948994%" gradientUnits="objectBoundingBox"><stop offset="0" stop-color="#98D6FA" stop-opacity="1" /><stop offset="1" stop-color="#47B0F1" stop-opacity="1" /></linearGradient><linearGradient id="linear_12" x1="-21187.494374718735%" y1="93503.12127418914%" x2="-21148.49242462123%" y2="93537.36052092571%" gradientUnits="objectBoundingBox"><stop offset="0" stop-color="#98D6FA" stop-opacity="1" /><stop offset="1" stop-color="#47B0F1" stop-opacity="1" /></linearGradient><linearGradient id="linear_13" x1="-47809.35335771093%" y1="82992.52130996177%" x2="-47779.41865521361%" y2="83025.08794821611%" gradientUnits="objectBoundingBox"><stop offset="0" stop-color="#98D6FA" stop-opacity="1" /><stop offset="1" stop-color="#47B0F1" stop-opacity="1" /></linearGradient><linearGradient id="linear_14" x1="-21187.494374718724%" y1="93503.12127418914%" x2="-21148.492424621218%" y2="93537.36052092571%" gradientUnits="objectBoundingBox"><stop offset="0" stop-color="#98D6FA" stop-opacity="1" /><stop offset="1" stop-color="#47B0F1" stop-opacity="1" /></linearGradient><linearGradient id="linear_15" x1="-19790.980631810988%" y1="97289.85336003029%" x2="-19762.978900715974%" y2="97201.91907059804%" gradientUnits="objectBoundingBox"><stop offset="0" stop-color="#98D6FA" stop-opacity="1" /><stop offset="1" stop-color="#47B0F1" stop-opacity="1" /></linearGradient><linearGradient id="linear_16" x1="-19571.064596496642%" y1="95021.26235035718%" x2="-19566.0642641213%" y2="94984.40216660452%" gradientUnits="objectBoundingBox"><stop offset="0" stop-color="#98D6FA" stop-opacity="1" /><stop offset="1" stop-color="#47B0F1" stop-opacity="1" /></linearGradient><linearGradient id="linear_17" x1="-19014.300186243192%" y1="94858.98319403699%" x2="-19012.30024959318%" y2="94833.28781824009%" gradientUnits="objectBoundingBox"><stop offset="0" stop-color="#98D6FA" stop-opacity="1" /><stop offset="1" stop-color="#47B0F1" stop-opacity="1" /></linearGradient><linearGradient id="linear_18" x1="-19707.25731274838%" y1="95130.76753610985%" x2="-19701.259013174244%" y2="95088.46668594505%" gradientUnits="objectBoundingBox"><stop offset="0" stop-color="#98D6FA" stop-opacity="1" /><stop offset="1" stop-color="#47B0F1" stop-opacity="1" /></linearGradient><linearGradient id="linear_19" x1="-20868.337500000005%" y1="99338.86090637837%" x2="-20755.33750000001%" y2="99338.86090637837%" gradientUnits="objectBoundingBox"><stop offset="0" stop-color="#98D6FA" stop-opacity="1" /><stop offset="1" stop-color="#47B0F1" stop-opacity="1" /></linearGradient><linearGradient id="linear_20" x1="26568.55450407587%" y1="94804.10543000315%" x2="26666.307206539124%" y2="94804.10543000315%" gradientUnits="objectBoundingBox"><stop offset="0" stop-color="#F5DDA7" stop-opacity="1" /><stop offset="1" stop-color="#FA9A41" stop-opacity="1" /></linearGradient><linearGradient id="linear_21" x1="-20934.930201454%" y1="94108.40899064942%" x2="-21027.89755717649%" y2="94144.8966052553%" gradientUnits="objectBoundingBox"><stop offset="0" stop-color="#1D181C" stop-opacity="1" /><stop offset="0.3" stop-color="#2C2422" stop-opacity="1" /><stop offset="0.5" stop-color="#42352C" stop-opacity="1" /><stop offset="0.7" stop-color="#57352C" stop-opacity="1" /><stop offset="1" stop-color="#923629" stop-opacity="1" /></linearGradient><linearGradient id="linear_22" x1="-20350.635891248367%" y1="93797.95780403809%" x2="-20357.634993638378%" y2="93808.50191463476%" gradientUnits="objectBoundingBox"><stop offset="0" stop-color="#1D181C" stop-opacity="1" /><stop offset="0.3" stop-color="#2C2422" stop-opacity="1" /><stop offset="0.5" stop-color="#42352C" stop-opacity="1" /><stop offset="0.7" stop-color="#57352C" stop-opacity="1" /><stop offset="1" stop-color="#923629" stop-opacity="1" /></linearGradient><linearGradient id="linear_23" x1="-20329.473220730382%" y1="94115.91448285498%" x2="-20429.487235328874%" y2="94115.91448285498%" gradientUnits="objectBoundingBox"><stop offset="0" stop-color="#FFB859" stop-opacity="1" /><stop offset="1" stop-color="#F97B61" stop-opacity="1" /></linearGradient><linearGradient id="linear_24" x1="-20875.74005062656%" y1="94054.11345409372%" x2="-20974.73904320873%" y2="94054.11345409372%" gradientUnits="objectBoundingBox"><stop offset="0" stop-color="#FFB859" stop-opacity="1" /><stop offset="1" stop-color="#F97B61" stop-opacity="1" /></linearGradient><linearGradient id="linear_25" x1="-18125.78448666312%" y1="95479.35254212537%" x2="-18116.781716029393%" y2="95495.53692855488%" gradientUnits="objectBoundingBox"><stop offset="0" stop-color="#98D6FA" stop-opacity="1" /><stop offset="1" stop-color="#47B0F1" stop-opacity="1" /></linearGradient><linearGradient id="linear_26" x1="-20733.878974734136%" y1="94600.11225950552%" x2="-20687.88134393147%" y2="94608.07557802103%" gradientUnits="objectBoundingBox"><stop offset="0" stop-color="#F97B61" stop-opacity="1" /><stop offset="1" stop-color="#FFB859" stop-opacity="1" /></linearGradient><linearGradient id="linear_27" x1="-1465.6029835179388%" y1="-4037.0235426009026%" x2="-1361.6072598700966%" y2="-3988.0647421524714%" gradientUnits="objectBoundingBox"><stop offset="0" stop-color="#98D6FA" stop-opacity="1" /><stop offset="1" stop-color="#47B0F1" stop-opacity="1" /></linearGradient><linearGradient id="linear_28" x1="38324.678146641934%" y1="77707.53914472165%" x2="38405.05871845133%" y2="77718.6721260284%" gradientUnits="objectBoundingBox"><stop offset="0" stop-color="#98D6FA" stop-opacity="1" /><stop offset="1" stop-color="#47B0F1" stop-opacity="1" /></linearGradient><linearGradient id="linear_29" x1="-189.40809415599804%" y1="-1307.2447110155788%" x2="-200.49439885204526%" y2="-1306.4100214217601%" gradientUnits="objectBoundingBox"><stop offset="0.03" stop-color="#AFDEF9" stop-opacity="1" /><stop offset="1" stop-color="#7CC9F9" stop-opacity="1" /></linearGradient><linearGradient id="linear_30" x1="-481.5394259274868%" y1="-703.4904006444218%" x2="-427.53873471630345%" y2="-679.4955179282324%" gradientUnits="objectBoundingBox"><stop offset="0" stop-color="#98D6FA" stop-opacity="1" /><stop offset="1" stop-color="#47B0F1" stop-opacity="1" /></linearGradient><linearGradient id="linear_31" x1="-52074.95432185525%" y1="108629.75609756097%" x2="-52067.878577284304%" y2="108627.2796594734%" gradientUnits="objectBoundingBox"><stop offset="0.03" stop-color="#AFDEF9" stop-opacity="1" /><stop offset="1" stop-color="#7CC9F9" stop-opacity="1" /></linearGradient><linearGradient id="linear_32" x1="-857.211357135095%" y1="-629.0416219792849%" x2="-836.2115935476154%" y2="-572.0418092021146%" gradientUnits="objectBoundingBox"><stop offset="0" stop-color="#98D6FA" stop-opacity="1" /><stop offset="1" stop-color="#47B0F1" stop-opacity="1" /></linearGradient><linearGradient id="linear_33" x1="-1362.563308947666%" y1="-818.3116206357475%" x2="-1345.5633089476673%" y2="-825.3116206357525%" gradientUnits="objectBoundingBox"><stop offset="0.03" stop-color="#AFDEF9" stop-opacity="1" /><stop offset="1" stop-color="#7CC9F9" stop-opacity="1" /></linearGradient><linearGradient id="linear_34" x1="-17964.987405541568%" y1="104013.23250121535%" x2="-17860.98740554157%" y2="104058.13605469909%" gradientUnits="objectBoundingBox"><stop offset="0" stop-color="#98D6FA" stop-opacity="1" /><stop offset="1" stop-color="#47B0F1" stop-opacity="1" /></linearGradient><linearGradient id="linear_35" x1="-20877.50502438129%" y1="95452.81146637248%" x2="-20773.542753312253%" y2="95483.79382579916%" gradientUnits="objectBoundingBox"><stop offset="0" stop-color="#98D6FA" stop-opacity="1" /><stop offset="1" stop-color="#47B0F1" stop-opacity="1" /></linearGradient><linearGradient id="linear_36" x1="-20796.953302959413%" y1="102042.48945185919%" x2="-20692.95330295942%" y2="102054.49628068232%" gradientUnits="objectBoundingBox"><stop offset="0" stop-color="#98D6FA" stop-opacity="1" /><stop offset="1" stop-color="#47B0F1" stop-opacity="1" /></linearGradient></defs><g opacity="1" transform="translate(0 0)  rotate(0 512 512)"><mask id="bg-mask-0" fill="white"><use xlink:href="#path_0"></use></mask><g mask="url(#bg-mask-0)" ><g opacity="1" transform="translate(0 0)  rotate(0 512 512)"><g opacity="1" transform="translate(0 0)  rotate(0 512 512)"><g opacity="1" transform="translate(0 0)  rotate(0 512 512)"><path id="矩形" fill-rule="evenodd" style="fill:#FFFFFF" transform="translate(0 0)  rotate(0 512 512)" opacity="0" d="M0,1024L1024,1024L1024,0L0,0L0,1024Z " /><g opacity="1" transform="translate(62 125.06127715710409)  rotate(0 465 416.46936142144796)"><path id="路径-58" fill-rule="evenodd" style="fill:#47B0F1" transform="translate(0.00015584222433062678 0)  rotate(0 449.99919719279444 354.7709607683315)" opacity="0.05" d="M385.1,122.99C323.05,183.33 239.62,148.81 98.4,178.45C-42.82,208.09 7.12,423.61 14.8,456.71C22.47,489.8 46.11,632.06 151,676.94C368.19,751.12 730.88,679 787,653.84C871.28,620.47 924.86,544.03 888.35,539.56C851.84,535.09 800.21,494.91 850.91,450.18C901.61,405.45 895.59,287.32 888.35,178.45C842.53,-73.37 663.31,10.94 643.47,23.94C623.63,36.94 564.56,80.53 513.59,76.54C462.62,72.55 447.15,62.65 385.1,122.99Z " /><path id="形状结合" fill-rule="evenodd" fill="url(#linear_0)" transform="translate(8 173.9387228428959)  rotate(0 62 23)" opacity="0.1" d="M36,16L39.24,16C43.01,16.13 46,19.23 46,23L46,23.24C45.87,27.01 42.77,30 39,30L7.5,30C3.36,30 0,33.36 0,37.5L0,38.5C0,42.64 3.36,46 7.5,46L86.5,46C90.64,46 94,42.64 94,38.5L94,37.5C94,33.94 91.49,30.87 88,30.15L88,30L84.76,30C80.99,29.87 78,26.77 78,23L78,22.76C78.13,18.99 81.23,16 85,16L116.5,16C120.64,16 124,12.64 124,8.5L124,7.5C124,3.36 120.64,0 116.5,0L37.5,0C33.36,0 30,3.36 30,7.5L30,8.5C30,12.06 32.51,15.14 36,15.85L36,16Z " /><path id="形状结合-2" fill-rule="evenodd" fill="url(#linear_1)" transform="translate(708 3.9387228428959133)  rotate(0 62 23)" opacity="0.1" d="M39,30L7.5,30C3.36,30 0,33.36 0,37.5L0,38.5C0,42.64 3.36,46 7.5,46L86.5,46C90.64,46 94,42.64 94,38.5L94,37.5C94,33.94 91.49,30.87 88,30.15L88,30L84.76,30C80.99,29.87 78,26.77 78,23L78,22.76C78.13,18.99 81.23,16 85,16L116.5,16C120.64,16 124,12.64 124,8.5L124,7.5C124,3.36 120.64,0 116.5,0L37.5,0C33.36,0 30,3.36 30,7.5L30,8.5C30,12.06 32.51,15.14 36,15.85L36,16L39.24,16C43.01,16.13 46,19.23 46,23L46,23.24C45.87,27.01 42.77,30 39,30Z " /><path id="形状结合-3" fill-rule="evenodd" fill="url(#linear_2)" transform="translate(0 586.9387228428959)  rotate(0 465 123)" opacity="1" d="M786,152C786,149.9 785.82,147.81 785.45,145.75C801.2,142.43 815.61,138.88 828.61,135.13C887.55,127.8 930,107.23 930,83C930,53 865.06,28.65 784.3,28C701.78,10.79 583.62,0 452.52,0C202.37,0 0,39 0,87C0,123.72 118.2,155.13 285.59,167.89C305.83,212.24 409.35,246 534,246C673.18,246 786,203.91 786,152Z " /><g opacity="1" transform="translate(587.1700000000001 36.82996579528509)  rotate(0 104.77499999999998 32.379378523805414)"><path id="路径" fill-rule="evenodd" fill="url(#linear_3)" transform="translate(0 39.18500650284716)  rotate(0 37.435 12.786875272381835)" opacity="1" d="M37.44,25.56C42.78,10.63 60.15,3.55 74.87,5.63C64.03,-1.16 45.9,-2.88 37.44,7.45L37.44,7.36C29,-3.06 10.93,-1.25 0,5.54C14.74,3.36 32.11,10.47 37.44,25.47L37.44,25.57L37.44,25.56Z " /><path id="路径-2" fill-rule="evenodd" fill="url(#linear_4)" transform="translate(94.88999999999987 34.44)  rotate(0 25.970000000000027 8.88937852380542)" opacity="1" d="M25.94,17.74C29.7,7.38 41.73,2.48 51.94,3.92C44.38,-0.82 31.81,-1.98 25.94,5.18L25.94,5.12C20.07,-2.14 7.57,-0.85 0,3.86C10.21,2.36 22.24,7.25 25.94,17.67L25.94,17.78L25.94,17.74Z " /><path id="路径-3" fill-rule="evenodd" fill="url(#linear_5)" transform="translate(60.069999999999936 0)  rotate(0 26 8.869378523805409)" opacity="1" d="M52,3.93C44.43,-0.82 31.87,-1.97 26,5.18L26,5.12C20.08,-2.14 7.58,-0.85 0,3.86C10.27,2.36 22.3,7.25 26,17.68L26,17.74C29.76,7.38 41.78,2.48 52,3.93Z " /><path id="路径-4" fill-rule="evenodd" fill="url(#linear_6)" transform="translate(173.54999999999995 45.9325059140923)  rotate(0 18 6.1231255667592706)" opacity="1" d="M18 3.54C22.08 -1.46 30.78 -0.59 36 2.67C28.91 1.67 20.57 5.07 18 12.25C15.44 5.02 7.1 1.62 0 2.67C5.25 -0.59 13.91 -1.47 18 3.54Z" /></g><g opacity="1" transform="translate(8 632.9387228428959)  rotate(0 52 32.000499021809844)"><path id="路径-38" fill-rule="evenodd" fill="url(#linear_7)" transform="translate(20 13.393879495887177)  rotate(0 20.189999999999998 18.128060252056343)" opacity="1" d="M40.38,36.13C40.12,12.63 24.14,-2.06 0,0.24C17.83,1.95 25.3,13.91 22.4,36.13C29.39,36.3 35.38,36.3 40.38,36.13Z " /><path id="路径-39" fill-rule="evenodd" fill="url(#linear_8)" transform="translate(36.73000000000002 0)  rotate(0 20.32 25.002702229807994)" opacity="1" d="M40.64,49.65C35.78,16.44 20.82,6.57 0,0C16.31,10.67 22.1,27.22 17.39,49.65C25.13,50.12 32.9,50.12 40.64,49.65Z " /><path id="路径-40" fill-rule="evenodd" fill="url(#linear_9)" transform="translate(57.05000000000001 13.28546401326048)  rotate(0 23.475 18.35726799336976)" opacity="1" d="M46.95,0.1C30.84,-0.3 12.86,-1.38 0,36.71C10.9,36.36 18.91,36.36 24.02,36.71C21.93,15.41 29.58,3.21 46.95,0.1Z " /><path id="椭圆形" fill-rule="evenodd" fill="url(#linear_10)" transform="translate(0 20)  rotate(0 30.5 22.000499021809844)" opacity="1" d="M61,28.61C61,12.81 47.34,0 30.5,0C13.66,0 0,12.81 0,28.61C0,44.41 14.57,44 31.41,44C48.26,44 61,44.41 61,28.61Z " /><path id="椭圆形备份-6" fill-rule="evenodd" fill="url(#linear_11)" transform="translate(45 37)  rotate(0 19 13.50033654895617)" opacity="1" d="M38,17.56C38,7.87 29.49,0 19,0C8.51,0 0,7.86 0,17.56C0,27.26 9.07,27 19.57,27C30.06,27 38,27.25 38,17.56Z " /></g></g><path id="_4" fill-rule="evenodd" fill="url(#linear_12)" transform="translate(111.87 452.69000000000005)  rotate(0 99.995 163.55499999999995)" opacity="1" d="M30.65 0.03L75.01 0.03L48.01 177.31C47.48 180.64 47.12 183.99 46.94 187.35C46.94 191.92 49.01 195.92 53.16 199.35C56.3 201.78 60.37 203 65.38 203L127.97 203L127.97 0L172.77 0L172.77 203L199.99 203L199.99 245.22L172.77 245.22L172.77 327.11L127.98 327.11L127.98 245.26L41.81 245.26C26.66 245.26 14.58 238.19 5.58 224.04C1.86 218.19 0 210.54 0 201.11C0 198.24 0.22 195.37 0.65 192.53L30.65 0.03Z" /><path id="_0" fill-rule="evenodd" fill="url(#linear_13)" transform="translate(332.7224043715846 370.15774774774775)  rotate(0 126.68364440954588 174.66819158888006)" opacity="1" d="M57.61 47.48Z M209.05 24.06Z M195.72 303.1Z M44.72 325.04Z M169.78 342.1C182 335.02 190.64 322.02 195.72 303.1L250.91 97.24C255.08 82.45 253.92 66.66 247.61 52.64C241.43 38.82 228.58 29.3 209.05 24.06L126.15 1.84C111.91 -1.97 98.19 0.14 84.97 8.16C71.53 16.43 62.41 29.54 57.61 47.48L2.68 252.48C-1.99 269.86 -0.56 284.89 6.98 297.57C15.25 311.36 27.83 320.52 44.72 325.04L130.96 348.14C136.68 349.68 143.62 349.73 151.78 348.31C158.1 347.34 164.2 345.24 169.78 342.1Z M125.886 47.6789Z M49.3757 258.039Z M206.676 90.8289Z M64.5257 285.839L126.276 302.339C135.076 304.679 141.546 304.539 145.666 301.929C149.316 299.479 152.216 294.209 154.376 286.129L206.676 90.8289C210.266 77.459 206.006 69.1489 193.886 65.909L125.886 47.6789C120.056 46.1189 115.136 46.3689 111.136 48.4289C106.926 50.639 103.846 54.5389 102.676 59.1489L49.3757 258.039C45.4257 272.799 50.4757 282.069 64.5257 285.839Z " /><path id="_4-2" fill-rule="evenodd" fill="url(#linear_14)" transform="translate(591.8699999999999 452.69000000000005)  rotate(0 99.99500000000006 163.55499999999995)" opacity="1" d="M127.97 0L172.77 0L172.77 203L199.99 203L199.99 245.22L172.77 245.22L172.77 327.11L127.98 327.11L127.98 245.26L41.81 245.26C26.66 245.26 14.58 238.19 5.58 224.04C1.86 218.19 0 210.54 0 201.11C0 198.24 0.22 195.37 0.65 192.53L30.65 0.03L75.01 0.03L48.01 177.31C47.48 180.64 47.12 183.99 46.94 187.35C46.94 191.92 49.01 195.92 53.16 199.35C56.3 201.78 60.37 203 65.38 203L127.97 203L127.97 0Z" /><g opacity="1" transform="translate(175.06 712.7099999999998)  rotate(0 39.999999999999986 33.50272727272727)"><path id="路径-43" fill-rule="evenodd" fill="url(#linear_15)" transform="translate(18.201490436806978 38.05522121324452)  rotate(0 13.074191690427782 12.78738939337785)" opacity="1" d="M25.74,19.07C17.83,-3.74 7.37,0.08 2.47,0.47C-3.34,3.04 1.75,6.57 11.03,9.57C19.16,12.6 24.06,17.93 25.74,25.57C26.29,23.44 26.29,21.21 25.74,19.07Z " /><path id="路径-44" fill-rule="evenodd" fill="url(#linear_16)" transform="translate(24.35890981110049 8.95042511825568)  rotate(0 11.44423924341082 27.944787440872233)" opacity="1" d="M21.68,53.34C24.19,45.16 22.07,32.51 21.68,30.34C15.65,-1.1 7.65,-0.35 3.3,0.13C-0.94,1.94 -1.26,10.2 3.3,15.94C9.49,24.33 15.04,37.65 19.96,55.89C20.78,55.24 21.39,54.35 21.68,53.34Z " /><path id="路径-45" fill-rule="evenodd" fill="url(#linear_17)" transform="translate(38.77048331483968 0)  rotate(0 8.725276373083346 30.559973366678776)" opacity="1" d="M10.13,60.72C12.84,52.24 15.43,45.58 16.92,34.3C19.36,6.34 12.9,0.73 7.55,0C-5.64,0.36 1.59,16.03 5.83,28.77C8.6,41.91 8.89,52.56 6.68,60.72C7.77,61.25 9.04,61.25 10.13,60.72Z " /><path id="路径-46" fill-rule="evenodd" fill="url(#linear_18)" transform="translate(47.913022801302986 10.997446037515829)  rotate(0 12.433523714208462 26.446276981242193)" opacity="1" d="M2.6,51.05C2.63,49.23 5.3,41.45 9.37,36.13C21.72,21.39 23.87,11.73 24.87,7.2C24.9,-3.3 15.31,-0.16 12.79,3.2C3.45,13.25 -0.78,29.81 0.12,52.89C1.76,52.89 2.58,52.29 2.6,51.05Z " /><path id="路径-47" fill-rule="evenodd" fill="url(#linear_19)" transform="translate(0 50.01396110080259)  rotate(0 39.999999999999986 8.495746722325975)" opacity="1" d="M80,16.95C79.03,-0.12 66.1,-0.27 61.72,0.08C57.83,-0.56 48.89,3.38 47.46,9.54C44.32,5.64 38.85,7.35 37.14,9.54C29.29,3 16.72,10.74 15.29,12.54C14.34,13.74 9.24,15.21 0,16.93C49.81,17.01 76.47,17.01 80,16.95Z " /></g><path id="路径-5" fill-rule="evenodd" fill="url(#linear_20)" transform="translate(250.74457536641455 775.2306511153519)  rotate(0 128.7430135014285 50.59647940020727)" opacity="0.4" d="M27.34,61.56C13.7,69.1 19.83,75.7 26.76,81.77C37.03,90.77 113.69,112.4 196.81,93.99C274.32,76.83 262.64,45.99 242.72,31.99C226.69,20.77 156.76,-4.74 76.8,0.77C28.68,4.07 8.02,12.33 4.01,18.7C-2.63,29.24 -3.53,38.48 21.34,46.27C43.67,53.27 34.78,57.45 27.34,61.56Z " /><g opacity="1" transform="translate(284.9480670767323 430.79420144168887)  rotate(0 76.69234566996565 194.71945968728784)"><path id="路径-6" fill-rule="evenodd" style="fill:#333333" transform="translate(28.34995773376022 363.7157985583111)  rotate(0 20.245656892641392 12.861560408132277)" opacity="1" d="M0.12,6.74C-0.61,9.48 2.04,15.74 5.31,17.14C9.46,18.86 16.81,21.37 18.87,22.14C20.93,22.91 35.17,27.7 39,24.8C42.83,21.9 39,15.3 30.64,10.8C22.28,6.3 9.81,0.8 9.81,0.8L6.92,0C3.37,3.26 0.85,4 0.12,6.74Z " /><path id="路径-7" fill-rule="evenodd" style="fill:#333333" transform="translate(112.90515560881693 297.3624576685294)  rotate(0 20.239767865557184 12.413474392381374)" opacity="1" d="M0.75,21.08C2.24,23.47 8.67,25.84 11.9,24.37C15.99,22.51 22.84,18.85 24.79,17.86C26.74,16.87 39.97,9.73 40.46,4.95C40.95,0.17 33.46,-1.51 24.52,1.51C15.58,4.53 3.01,9.93 3.01,9.93L0.46,11.52C0.46,16.33 -0.74,18.69 0.75,21.08Z " /><path id="路径-8" fill-rule="evenodd" fill="url(#linear_21)" transform="translate(33.051932923267714 198.02579855831118)  rotate(0 46.5263313814321 56.08588070513906)" opacity="1" d="M76,20.26C63.59,5.94 41.14,0 41.14,0L0,20.26C0,20.26 37.54,36.49 61.21,52.75C63.07,68.67 64.06,71.36 68.44,83.85C73.9,99.37 79.1,105.75 80.64,110.18C82.18,114.61 93.85,111.05 93,105.38C93.77,60.48 86,26.57 76,20.26Z " /><path id="路径-9" fill-rule="evenodd" fill="url(#linear_22)" transform="translate(25.051932923267714 205.03579855831106)  rotate(0 20.1825880132144 84.21004236043137)" opacity="1" d="M37.77,0L0,4.71C0,4.71 2.84,75.29 4.56,89.23C6.28,103.17 5.88,151.13 5.11,159.17C4.34,167.21 19.19,172.86 21,163.72C23.7,150.28 34.18,112.38 36.26,89.17C38.34,65.96 41.43,52.84 40,22.47L37.77,0Z " /><path id="形状结合-4" fill-rule="evenodd" style="fill:#EBB0B0" transform="translate(25.034714413119445 71.19783777823557)  rotate(0 15.508048514140597 17.003980390037782)" opacity="1" d="M26.87 7.59L26.78 7.41C26.31 6.47 25.71 5.6 25 4.82C22.65 2.13 19.36 0.43 15.81 0.09C12.12 -0.38 8.45 1.03 6.02 3.83C4.26 5.88 3.17 8.41 2.89 11.1L2.89 12.1C-0.05 10.6 -2.35 20.01 4.36 19.75C4.93 21.23 5.66 22.64 6.54 23.97C7.19 25.07 8.03 26.06 9.02 26.87L9.02 34.01L21.04 33.87L21.04 27.79C23.35 26.16 24.98 23.33 26.47 21.16C26.75 20.72 26.98 20.26 27.16 19.77C33.06 19.55 31.12 11.27 28.41 12.01L28.41 11.81C28.37 9.4 27.89 7.42 26.77 7.1L26.87 7.59Z" /><path id="路径-10" fill-rule="evenodd" style="fill:#131322" transform="translate(21.05467851270049 60.20451622313669)  rotate(0 17.49862993775747 13.500641167587219)" opacity="1" d="M4.71,27C6.95,25.61 7.49,22.41 9.07,20.33C11.28,17.79 14.04,15.8 17.15,14.51C23.85,13.51 27.06,13.51 30.08,19.51L31.61,24C35.74,20.08 37.24,7 29.42,3.66C28.54,2.61 26.68,2.34 24.18,2.3C22.37,2.25 22.18,2.93 21.24,2.77C20.3,2.61 18.95,0.46 15.42,0.03C13.51,-0.23 7.74,1.17 6.49,2.77C2.96,5.74 0.68,9.93 0.12,14.51C-0.62,20.05 2.29,22.8 4.71,27Z " /><path id="路径-109" fill-rule="evenodd" style="fill:#EFBA9E" transform="translate(59.6558141827029 0)  rotate(0 7.632005445102635 10.554809001377777)" opacity="1" d="M11.4,20.04C16.28,15.48 15.66,7.38 14.28,3.57C6.63,-3.72 2.69,2.22 1.69,3.48C1.85,1.87 1.18,0.93 0.07,3.73C-0.22,8.08 0.42,12.44 1.93,16.54C5.09,21.06 8.25,22.23 11.4,20.04Z " /><path id="路径-11" fill-rule="evenodd" fill="url(#linear_23)" transform="translate(43.051932923267714 10.807850055561403)  rotate(0 19.772229001492974 55.698974251374864)" opacity="1" d="M33,111.4C48,97.4 32.52,1.46 32.52,1.46C28.04,-0.66 19.77,-1.87 18.21,8.13C19,72.32 0,97.79 0,97.79L33,111.4Z " /><path id="路径-2-2" fill-rule="evenodd" fill="url(#linear_24)" transform="translate(1.8972540992075437 100.20579855831113)  rotate(0 40.70041416487632 58.949223977387646)" opacity="1" d="M1.19,30C-4.52,50.55 11.52,104.43 22.19,117.22C48.02,119.51 74.19,117 79.19,93.94C84.19,73.16 79.9,31.76 74.19,14.59C65.19,-1.32 46.98,0.41 44.19,0.31C42.21,3.44 37.93,3.33 31.34,0C15.4,5.56 5.35,15.56 1.19,30Z " /><path id="路径-12" fill-rule="evenodd" fill="url(#linear_25)" transform="translate(60.5157921515389 106.81583113142835)  rotate(0 6.268070385864405 21.694983713441445)" opacity="1" d="M7.84,4.65C7.56,2.31 5.77,0.43 3.45,0.03C3.16,-0.01 2.87,-0.01 2.59,0.03C0.99,0.25 -0.15,1.7 0.02,3.31L3.94,35.39C4.27,38.12 6.02,40.48 8.54,41.59L12.54,43.39L7.84,4.65Z " /><path id="路径-109-2" fill-rule="evenodd" style="fill:#EFBA9E" transform="translate(55.91193292326773 118.11037572366774)  rotate(0 8.715000000000003 10.369628577084939)" opacity="1" d="M6.04,20.74C12.6,19.56 16.51,12.49 17.43,8.49C14.98,-1.78 8.4,1.03 6.92,1.56C7.93,0.3 7.88,-0.85 5.42,0.89C2.81,4.38 0.97,8.39 0,12.65C0.2,18.16 2.21,20.86 6.04,20.74Z " /><path id="路径-13" fill-rule="evenodd" fill="url(#linear_26)" transform="translate(0 121.78214496446424)  rotate(0 31.96164616188679 36.12061974415201)" opacity="1" d="M0,16.12C-0.11,36.96 4.48,49.45 12.48,61.12C14.18,65.34 19.64,70.5 24.05,71.34C28.46,72.18 38.55,74.88 45.05,63.66L62.05,26.44C63.65,20.21 67.05,10.88 57.05,7.8L30.92,42.16C33.05,5.42 16.27,0.72 16.27,0.72C0.11,-4.03 -0.03,16.16 0,16.12Z " /><path id="_Path_" fill-rule="evenodd" fill="url(#linear_27)" transform="translate(58.15035554236215 76.20579855831107)  rotate(0 19.180788690452772 17.839999999999975)" opacity="1" d="M11.77,19.16L0.64,26C-0.4,28.28 -0.16,30.94 1.26,33C3.12,35.27 5.8,35.47 6.21,35.68C10.06,33.89 13.84,32.04 17.54,30.12L38.36,29.91L23.31,0L11.77,19.16Z " /><g opacity="1" transform="translate(74.4419367537302 75.90297861688839)  rotate(0 12.198804177215067 15.253389697011698)"><g opacity="1" transform="translate(4.592053892911224 0)  rotate(0 9.902777230759455 15.253389697011698)"><path id="path-26-2" fill-rule="evenodd" style="fill:#98D6FA" transform="translate(0 0)  rotate(0 9.902777230759455 15.25338969701167)" opacity="1" d="M2.85,18.84C6.35,25.65 13.98,32.03 17.48,30.18C20.98,28.33 20.16,19.26 17.48,13.07C13.98,5.45 5.94,-1.56 2.48,0.3L2.43,0.3C-1.07,2.15 -0.66,11.84 2.85,18.84Z " /></g><g opacity="1" transform="translate(0 13.792823771885423)  rotate(0 7.529996169537526 5.878502429302557)"><path id="路径 1" fill-rule="evenodd" style="fill:#FFFFFF" transform="translate(0 0)  rotate(0 7.529996169537526 5.878502429302557)" opacity="1" d="M2.12 4.22L9.18 0.47C11.13 -0.57 13.55 0.17 14.59 2.12C15.63 4.07 14.89 6.49 12.94 7.53L5.88 11.29C4.94 11.79 3.85 11.89 2.83 11.58C1.82 11.27 0.97 10.57 0.47 9.63C-0.57 7.68 0.17 5.26 2.12 4.22Z" /></g></g><path id="路径-110" fill-rule="evenodd" style="fill:#FFFFFF" transform="translate(92.79193292326772 64.45579855831113)  rotate(0 8.689999999999998 7.064999999999998)" opacity="1" d="M5.54 12.99L4.36 9.74L0 14.13L4.52 5.62L6.78 9.66L17.38 0L5.54 12.99Z" /><path id="路径-110-2" fill-rule="evenodd" style="fill:#FFFFFF" transform="translate(100.3119329232677 87.94579855831114)  rotate(0 11.170000000000016 3.3100000000000023)" opacity="1" d="M5.19 6.62L6.09 3.28L0 4.37L8.58 0L8.12 4.61L22.34 2.78L5.19 6.62Z" /></g><g opacity="1" transform="translate(732.3007669055189 594.0031824266764)  rotate(0 135.64609802872207 122.88817575703996)"><path id="路径-61" fill-rule="evenodd" fill="url(#linear_28)" transform="translate(53.62923309448115 72.49042839538401)  rotate(0 108.83148148148149 85.94333822643688)" opacity="1" d="M137.29,6.68C123.22,-4 111.1,-1.87 100.95,13.08C81.75,36.22 81.75,36.22 81.75,36.22C66.47,41.08 58.83,48.78 58.83,59.33C46.46,86.84 46.46,86.84 46.46,86.84C38.05,88.33 25.88,92.22 9.93,98.51C0,170.51 0,170.51 0,170.51C52.05,176.01 88.41,165.04 109.09,137.6C115.95,111.03 128.56,100.8 146.92,106.92C174.48,116.09 185.48,100.06 186.59,85.92C187.33,76.48 194.12,63.95 206.96,48.31C211.89,46.05 215.3,40.41 217.2,31.39C220.53,2.29 205.87,-4.92 173.2,9.75C137.29,6.68 137.29,6.68 137.29,6.68Z " /><path id="形状结合-5" fill-rule="evenodd" fill="url(#linear_29)" transform="translate(65.60923309448106 95.55247873531414)  rotate(0 81.375 57.15716941900473)" opacity="1" d="M32.83 66.65C31.16 68.65 30.04 83.65 30.53 89.99L0 110.44L3.87 114.31L35.41 91.98C43.93 96.98 55.62 97.77 61.27 97.25C50.82 96.29 43.19 93.89 38.37 90.05C37.6 90.68 36.76 91.22 35.87 91.65L124.69 28.74C124.49 28.96 124.31 29.19 124.13 29.42C137.29 31.28 149.1 30.49 159.57 27.04C158.73 25.37 144.82 31.88 126.46 27.49L162.75 1.79L114.48 34.01C116.94 21.1 119.88 10.63 123.3 2.61C128.37 -9.26 112.71 22.4 112.5 35.33L72.26 62.19L72.37 62.04C71.26 44.75 71.71 32.68 73.71 25.83C71.02 29.43 68.15 55.21 69.71 63.83L32.71 88.54L33.05 88.12C33.05 88.12 31.14 73.85 32.83 66.65Z M80.25 60.3843C79.56 61.1643 78.82 61.9043 78.03 62.5943C94 75.2143 111.15 80.1843 121.42 78.6543C110.88 78.9543 97.16 72.8643 80.25 60.3843Z " /><path id="路径-65" fill-rule="evenodd" fill="url(#linear_30)" transform="translate(32.86464828536123 0)  rotate(0 101.78869708360088 108.43312012709362)" opacity="1" d="M203.34,29.63C205.66,-3.27 190.73,-8.77 158.56,13.12C146.9,26.32 135.38,31.83 123.98,29.65C98.28,23.12 84.28,26.39 81.98,39.45C81.28,65.45 73.59,80.11 58.92,83.45C25.55,91.69 37.16,111.55 37.16,123.69C37.16,135.83 35.03,145.53 19.16,161.41C-2.78,195.7 -23.11,227.34 62.22,213.57C119.1,204.39 145.18,189.27 140.44,168.19C131.02,154.47 137.06,143.87 158.56,136.4C190.81,125.15 197.15,97.84 195.12,83.4C193.09,68.96 197.15,53.2 203.34,29.63Z " /><path id="形状结合-6" fill-rule="evenodd" fill="url(#linear_31)" transform="translate(68.99923309448104 30.58681757332363)  rotate(0 71.14999999999998 87.125)" opacity="1" d="M101.62 45L101.55 44.83C97.72 35.91 96.89 25.98 99.2 16.55L99.28 16.24C99.035 17.0013 98.7666 17.7779 98.4909 18.5756C96.1342 25.3951 93.247 33.7497 99.89 47.17L69.89 85.35L69.7 85.08Q60.7 72.36 60.7 51.63C59.32 55.92 59.29 75.63 67.86 87.89L41.25 121.81C39.57 119.2 35.37 111.81 35.37 103.65C34.48 109.3 34.42 116.87 39.26 124.33L0 174.25L6.22 174.25L44.22 123.7C62.6 131.55 72.92 128.26 78.03 125.96C68.03 128.4 57.46 126.73 46.31 120.96L75.18 82.52C75.02 82.82 74.86 83.12 74.68 83.44C93.89 90.17 113.83 90.96 123.04 86.17C113.25 89.87 97.72 88.06 76.47 80.77L108.64 37.93C108.57 38.1 108.51 38.27 108.46 38.44C122.59 39.31 133.87 34.82 142.3 24.96C141.941 24.6116 141.031 25.2975 139.471 26.473C135.212 29.6835 126.107 36.5456 110.15 35.96L137.06 0L101.62 45Z" /><path id="路径-96" fill-rule="evenodd" fill="url(#linear_32)" transform="translate(0 2.8355535480782237)  rotate(0 55.33062289770976 121.47039898300085)" opacity="1" d="M12.88,168.99C5.25,174.83 -9.4,192.34 8.61,226.38C26.62,260.42 69.07,233.98 75.43,217.98C81.79,201.98 69.07,179.93 75.43,168.98C81.79,158.03 118.9,154.27 108.99,121.46C100.74,108.04 89.25,104.16 100.78,81.3C112.31,58.44 115.24,67.63 100.78,45.11C94.47,38.65 88.15,27.53 81.8,11.75C69.38,-5.51 58.26,-3.76 48.45,17.01C43.69,34.95 51.2,46.36 26.63,54.51C10.24,59.95 7.76,71.33 19.19,88.66C23.96,99.56 20.43,106.53 8.61,109.57C8.61,109.57 8.61,109.57 12.88,145.79C17.96,157.36 17.96,165.1 12.88,168.99Z " /><path id="形状结合-7" fill-rule="evenodd" fill="url(#linear_33)" transform="translate(18.929233094481106 44.34681757332362)  rotate(0 35.54000000000002 95.95000000000005)" opacity="1" d="M14.93 155.9L7.75 191.9L13.22 191.9L19.73 153.81C29.31 151.34 38.12 143.61 41.73 139.24C33.67 145.95 26.58 149.65 20.45 150.35C20.35 151.33 20.14 152.3 19.82 153.24L38.15 45.97C38.16 46.27 38.19 46.56 38.24 46.85C48.86 38.85 56.65 29.93 61.61 20.1C59.84 19.52 54.61 33.95 38.51 43.83L45.96 0L34.61 56.91C27.22 46.05 21.89 36.57 18.61 28.48C13.8 16.48 25.11 49.96 34.11 59.25L24.65 106.7C24.65 106.64 24.65 106.57 24.65 106.51C11.64 95.07 3.43 86.22 0 79.96C0.64 84.41 16.84 104.66 24.1 109.66L15.39 153.31L15.39 152.77C15.39 152.77 3.95 144.03 0.05 137.77C0.3 140.38 10.05 151.72 14.93 155.9Z M29.08 99.76C29.15 100.81 29.15 101.85 29.08 102.9C49.27 100.53 64.9 91.92 71.08 83.57C63.84 91.24 49.84 96.64 29.08 99.76Z " /></g><g opacity="1" transform="translate(138.79000000000002 358.1)  rotate(0 89.995 22.67500000000004)"><path id="路径-75" fill-rule="evenodd" fill="url(#linear_34)" transform="translate(0 15.56310344827591)  rotate(0 5.954999999999998 4.774232401841601)" opacity="1" d="M2.31,4.78C1.26,5.4 0.44,6.36 0,7.51C3.24,9.51 9.54,9.92 11.91,9.26C11.44,8.25 11.39,4.69 11.91,0.75C6.99,-0.77 3.02,0.03 0,3.15L2.31,4.78Z " /><path id="形状结合-8" fill-rule="evenodd" fill="url(#linear_35)" transform="translate(9.060005501886195 0)  rotate(0 41.33999724905689 22.67500000000004)" opacity="1" d="M69.07,6.7L69.38,6.42L71.17,4.85C74.94,1.6 72.59,0.35 65.7,0C52.77,1.77 43.78,8.28 38.75,19.52C36.51,19.91 34.28,20.41 32.09,21.02C32.18,20.32 32.22,19.61 32.22,18.9C32.23,11.89 27.7,5.68 21.02,3.54C14.34,1.4 7.05,3.83 2.99,9.54C-1.08,15.25 -0.99,22.94 3.22,28.55C7.43,34.16 14.78,36.4 21.4,34.1C21.43,34.32 21.52,34.54 21.52,34.76C32.8,48.88 52.22,48.88 79.78,34.76L75.53,34.76C77.61,32.48 80.02,30.52 82.68,28.95C78.64,27.41 71.96,23.64 67.75,21.27C65.96,20.72 64.16,20.25 62.36,19.86C69.64,16.54 68.84,15.27 67.59,14.44L67.43,14.34L66.87,14.01L66.78,13.95L66.65,13.87C63.26,13.11 65.2,10.42 67.83,7.87L68.13,7.57L68.29,7.43L68.6,7.13L69.07,6.7Z " /><path id="椭圆形-2" fill-rule="evenodd" style="fill:#FFFFFF" transform="translate(16.409999999999997 11.569999999999936)  rotate(0 5.85 5.85)" opacity="1" d="M5.85,0C2.62,0 0,2.62 0,5.85C0,9.08 2.62,11.7 5.85,11.7C9.08,11.7 11.7,9.08 11.7,5.85C11.7,2.62 9.08,0 5.85,0Z " /><path id="椭圆形-3" fill-rule="evenodd" style="fill:#000000" transform="translate(19.329999999999984 14.489999999999952)  rotate(0 2.93 2.93)" opacity="1" d="M2.93,0C1.31,0 0,1.31 0,2.93C0,4.55 1.31,5.86 2.93,5.86C4.55,5.86 5.86,4.55 5.86,2.93C5.86,1.31 4.55,0 2.93,0Z " /><path id="形状结合-9" fill-rule="evenodd" fill="url(#linear_36)" transform="translate(109.74999999999375 21.949999999999932)  rotate(0 35.12000000000313 5.8500042796547405)" opacity="1" d="M11.7 5.84001C11.7 2.61001 9.08 8.52634e-06 5.85 8.52634e-06C2.62 8.52634e-06 0 2.62001 0 5.85001C0 7.40001 0.62 8.89001 1.72 9.99001C2.82 11.09 4.31 11.7 5.86 11.7C9.09 11.69 11.7 9.07001 11.7 5.84001Z M40.97 5.84001C40.97 2.61001 38.35 8.52634e-06 35.12 8.52634e-06C31.89 8.52634e-06 29.27 2.62001 29.27 5.85001C29.27 7.40001 29.89 8.89001 30.99 9.99001C32.09 11.09 33.58 11.7 35.13 11.7C38.36 11.69 40.97 9.07001 40.97 5.84001Z M70.24 5.85C70.24 2.62 67.62 0 64.39 0C61.16 0 58.54 2.62 58.54 5.85C58.54 9.08 61.16 11.7 64.39 11.7C67.62 11.7 70.24 9.08 70.24 5.85Z " /></g></g></g></g></g></g></svg>