<svg xmlns="http://www.w3.org/2000/svg" xmlns:xlink="http://www.w3.org/1999/xlink" width="1024" height="1024" viewBox="0 0 1024 1024" fill="none"><defs><rect id="path_0" x="0" y="0" width="1024" height="1024" /><linearGradient id="linear_0" x1="-13.582350699999997%" y1="50%" x2="50%" y2="47.2031971%" gradientUnits="objectBoundingBox"><stop offset="0" stop-color="#98D6FA" stop-opacity="1" /><stop offset="1" stop-color="#47B0F1" stop-opacity="1" /></linearGradient><linearGradient id="linear_1" x1="-13.582350699999997%" y1="50%" x2="50%" y2="47.2031971%" gradientUnits="objectBoundingBox"><stop offset="0" stop-color="#98D6FA" stop-opacity="1" /><stop offset="1" stop-color="#47B0F1" stop-opacity="1" /></linearGradient><linearGradient id="linear_2" x1="-9.43689570931383e-14%" y1="-3.10559006%" x2="100%" y2="-3.10559006%" gradientUnits="objectBoundingBox"><stop offset="0" stop-color="#FFF5DE" stop-opacity="1" /><stop offset="1" stop-color="#FBD2AC" stop-opacity="1" /></linearGradient><linearGradient id="linear_3" x1="-13.582350699999997%" y1="50%" x2="50%" y2="47.6284444%" gradientUnits="objectBoundingBox"><stop offset="0" stop-color="#98D6FA" stop-opacity="1" /><stop offset="1" stop-color="#47B0F1" stop-opacity="1" /></linearGradient><linearGradient id="linear_4" x1="-13.582350699999997%" y1="50%" x2="50%" y2="47.629463%" gradientUnits="objectBoundingBox"><stop offset="0" stop-color="#98D6FA" stop-opacity="1" /><stop offset="1" stop-color="#47B0F1" stop-opacity="1" /></linearGradient><linearGradient id="linear_5" x1="-13.582350699999997%" y1="50%" x2="50%" y2="47.629463%" gradientUnits="objectBoundingBox"><stop offset="0" stop-color="#98D6FA" stop-opacity="1" /><stop offset="1" stop-color="#47B0F1" stop-opacity="1" /></linearGradient><linearGradient id="linear_6" x1="-13.582350699999997%" y1="50%" x2="50%" y2="47.6298828%" gradientUnits="objectBoundingBox"><stop offset="0" stop-color="#98D6FA" stop-opacity="1" /><stop offset="1" stop-color="#47B0F1" stop-opacity="1" /></linearGradient><linearGradient id="linear_7" x1="-10.6140486%" y1="87.0084871%" x2="50%" y2="30.481096299999997%" gradientUnits="objectBoundingBox"><stop offset="0" stop-color="#98D6FA" stop-opacity="1" /><stop offset="1" stop-color="#47B0F1" stop-opacity="1" /></linearGradient><linearGradient id="linear_8" x1="-54.0805314%" y1="87.0084871%" x2="50%" y2="30.481096299999997%" gradientUnits="objectBoundingBox"><stop offset="0" stop-color="#98D6FA" stop-opacity="1" /><stop offset="1" stop-color="#47B0F1" stop-opacity="1" /></linearGradient><linearGradient id="linear_9" x1="-54.0805314%" y1="83.5677888%" x2="50%" y2="32.295779%" gradientUnits="objectBoundingBox"><stop offset="0" stop-color="#98D6FA" stop-opacity="1" /><stop offset="1" stop-color="#47B0F1" stop-opacity="1" /></linearGradient><linearGradient id="linear_10" x1="-13.582350699999997%" y1="50%" x2="50%" y2="43.4230204%" gradientUnits="objectBoundingBox"><stop offset="0" stop-color="#98D6FA" stop-opacity="1" /><stop offset="1" stop-color="#47B0F1" stop-opacity="1" /></linearGradient><linearGradient id="linear_11" x1="43.13989250000001%" y1="-6.451612899999999%" x2="60.33656359999999%" y2="0%" gradientUnits="objectBoundingBox"><stop offset="0.0315726754" stop-color="#AFDEF9" stop-opacity="1" /><stop offset="1" stop-color="#7CC9F9" stop-opacity="1" /></linearGradient><linearGradient id="linear_12" x1="43.13989250000001%" y1="-6.451612899999999%" x2="60.33656359999999%" y2="0%" gradientUnits="objectBoundingBox"><stop offset="0.0315726754" stop-color="#AFDEF9" stop-opacity="1" /><stop offset="1" stop-color="#7CC9F9" stop-opacity="1" /></linearGradient><linearGradient id="linear_13" x1="5.920258089999997%" y1="60.85714990000001%" x2="59.966368%" y2="37.0542203%" gradientUnits="objectBoundingBox"><stop offset="0" stop-color="#98D6FA" stop-opacity="1" /><stop offset="1" stop-color="#47B0F1" stop-opacity="1" /></linearGradient><linearGradient id="linear_14" x1="44.49263710000001%" y1="-6.451612899999999%" x2="58.29829660000001%" y2="0%" gradientUnits="objectBoundingBox"><stop offset="0.0315726754" stop-color="#AFDEF9" stop-opacity="1" /><stop offset="1" stop-color="#7CC9F9" stop-opacity="1" /></linearGradient><linearGradient id="linear_15" x1="28.4038852%" y1="87.0084871%" x2="50%" y2="30.481096299999997%" gradientUnits="objectBoundingBox"><stop offset="0" stop-color="#98D6FA" stop-opacity="1" /><stop offset="1" stop-color="#47B0F1" stop-opacity="1" /></linearGradient><linearGradient id="linear_16" x1="43.13989250000001%" y1="-6.451612899999999%" x2="60.33656359999999%" y2="0%" gradientUnits="objectBoundingBox"><stop offset="0.0315726754" stop-color="#AFDEF9" stop-opacity="1" /><stop offset="1" stop-color="#7CC9F9" stop-opacity="1" /></linearGradient><linearGradient id="linear_17" x1="43.13989250000001%" y1="-6.451612899999999%" x2="60.33656359999999%" y2="0%" gradientUnits="objectBoundingBox"><stop offset="0.0315726754" stop-color="#AFDEF9" stop-opacity="1" /><stop offset="1" stop-color="#7CC9F9" stop-opacity="1" /></linearGradient><linearGradient id="linear_18" x1="80.1766865%" y1="78.1244605%" x2="40.1612594%" y2="1.2035674499999982%" gradientUnits="objectBoundingBox"><stop offset="0" stop-color="#98D6FA" stop-opacity="1" /><stop offset="1" stop-color="#47B0F1" stop-opacity="1" /></linearGradient><linearGradient id="linear_19" x1="16.9636606%" y1="77.6033014%" x2="73.1106367%" y2="27.310414800000004%" gradientUnits="objectBoundingBox"><stop offset="0" stop-color="#98D6FA" stop-opacity="1" /><stop offset="1" stop-color="#47B0F1" stop-opacity="1" /></linearGradient><linearGradient id="linear_20" x1="0%" y1="66.87911599999998%" x2="84.977599%" y2="36.12556749999999%" gradientUnits="objectBoundingBox"><stop offset="0" stop-color="#98D6FA" stop-opacity="1" /><stop offset="1" stop-color="#47B0F1" stop-opacity="1" /></linearGradient><linearGradient id="linear_21" x1="0%" y1="64.3617284%" x2="84.977599%" y2="38.1948302%" gradientUnits="objectBoundingBox"><stop offset="0" stop-color="#98D6FA" stop-opacity="1" /><stop offset="1" stop-color="#47B0F1" stop-opacity="1" /></linearGradient><linearGradient id="linear_22" x1="0%" y1="63.9354617%" x2="84.977599%" y2="38.5452163%" gradientUnits="objectBoundingBox"><stop offset="0" stop-color="#98D6FA" stop-opacity="1" /><stop offset="1" stop-color="#47B0F1" stop-opacity="1" /></linearGradient><linearGradient id="linear_23" x1="22.3559231%" y1="-8.914208740000001%" x2="50%" y2="77.38105420000001%" gradientUnits="objectBoundingBox"><stop offset="0" stop-color="#98D6FA" stop-opacity="1" /><stop offset="1" stop-color="#47B0F1" stop-opacity="1" /></linearGradient><linearGradient id="linear_24" x1="45.36279059999999%" y1="-11.452464699999998%" x2="49.99999999999999%" y2="78.5607378%" gradientUnits="objectBoundingBox"><stop offset="0" stop-color="#98D6FA" stop-opacity="1" /><stop offset="1" stop-color="#47B0F1" stop-opacity="1" /></linearGradient><linearGradient id="linear_25" x1="47.7464074%" y1="-11.452464699999998%" x2="50%" y2="78.5607378%" gradientUnits="objectBoundingBox"><stop offset="0" stop-color="#98D6FA" stop-opacity="1" /><stop offset="1" stop-color="#47B0F1" stop-opacity="1" /></linearGradient><linearGradient id="linear_26" x1="43.893082400000004%" y1="-11.452464699999998%" x2="50%" y2="78.5607378%" gradientUnits="objectBoundingBox"><stop offset="0" stop-color="#98D6FA" stop-opacity="1" /><stop offset="1" stop-color="#47B0F1" stop-opacity="1" /></linearGradient><linearGradient id="linear_27" x1="0%" y1="77.6033014%" x2="113.227535%" y2="77.6033014%" gradientUnits="objectBoundingBox"><stop offset="0" stop-color="#98D6FA" stop-opacity="1" /><stop offset="1" stop-color="#47B0F1" stop-opacity="1" /></linearGradient><linearGradient id="linear_28" x1="13.965733000000002%" y1="7.491415459999995%" x2="87.51969790000001%" y2="107.50235899999998%" gradientUnits="objectBoundingBox"><stop offset="0" stop-color="#FFB859" stop-opacity="1" /><stop offset="1" stop-color="#F97B61" stop-opacity="1" /></linearGradient><linearGradient id="linear_29" x1="2.075163480000003%" y1="87.0084871%" x2="50%" y2="30.481096299999997%" gradientUnits="objectBoundingBox"><stop offset="0" stop-color="#98D6FA" stop-opacity="1" /><stop offset="1" stop-color="#47B0F1" stop-opacity="1" /></linearGradient><linearGradient id="linear_30" x1="100%" y1="-2.96987539%" x2="0.5814659180000015%" y2="-2.96987539%" gradientUnits="objectBoundingBox"><stop offset="0" stop-color="#F97B61" stop-opacity="1" /><stop offset="1" stop-color="#FFB859" stop-opacity="1" /></linearGradient><linearGradient id="linear_31" x1="100%" y1="-2.96987539%" x2="0.5814659180000015%" y2="-2.96987539%" gradientUnits="objectBoundingBox"><stop offset="0" stop-color="#F97B61" stop-opacity="1" /><stop offset="1" stop-color="#FFB859" stop-opacity="1" /></linearGradient><linearGradient id="linear_32" x1="0%" y1="-2.96987539%" x2="99.418534082%" y2="-2.96987539%" gradientUnits="objectBoundingBox"><stop offset="0" stop-color="#FFB859" stop-opacity="1" /><stop offset="1" stop-color="#F97B61" stop-opacity="1" /></linearGradient><linearGradient id="linear_33" x1="0%" y1="-2.96987539%" x2="99.418534082%" y2="-2.96987539%" gradientUnits="objectBoundingBox"><stop offset="0" stop-color="#FFB859" stop-opacity="1" /><stop offset="1" stop-color="#F97B61" stop-opacity="1" /></linearGradient><linearGradient id="linear_34" x1="86.2750219%" y1="-2.80504909%" x2="-2.708944180085382e-12%" y2="-2.80504909%" gradientUnits="objectBoundingBox"><stop offset="0" stop-color="#1D181C" stop-opacity="1" /><stop offset="0.3" stop-color="#2C2422" stop-opacity="1" /><stop offset="0.5" stop-color="#42352C" stop-opacity="1" /><stop offset="0.7" stop-color="#57352C" stop-opacity="1" /><stop offset="1" stop-color="#923629" stop-opacity="1" /></linearGradient><linearGradient id="linear_35" x1="86.2750219%" y1="-2.80504909%" x2="-2.708944180085382e-12%" y2="-2.80504909%" gradientUnits="objectBoundingBox"><stop offset="0" stop-color="#1D181C" stop-opacity="1" /><stop offset="0.3" stop-color="#2C2422" stop-opacity="1" /><stop offset="0.5" stop-color="#42352C" stop-opacity="1" /><stop offset="0.7" stop-color="#57352C" stop-opacity="1" /><stop offset="1" stop-color="#923629" stop-opacity="1" /></linearGradient><linearGradient id="linear_36" x1="13.724978099999996%" y1="-2.80504909%" x2="100.00000000000271%" y2="-2.80504909%" gradientUnits="objectBoundingBox"><stop offset="0" stop-color="#1D181C" stop-opacity="1" /><stop offset="0.3" stop-color="#2C2422" stop-opacity="1" /><stop offset="0.5" stop-color="#42352C" stop-opacity="1" /><stop offset="0.7" stop-color="#57352C" stop-opacity="1" /><stop offset="1" stop-color="#923629" stop-opacity="1" /></linearGradient><linearGradient id="linear_37" x1="-47.8681948%" y1="87.0084871%" x2="50%" y2="30.481096299999997%" gradientUnits="objectBoundingBox"><stop offset="0" stop-color="#98D6FA" stop-opacity="1" /><stop offset="1" stop-color="#47B0F1" stop-opacity="1" /></linearGradient></defs><g opacity="1" transform="translate(0 0)  rotate(0 512 512)"><mask id="bg-mask-0" fill="white"><use xlink:href="#path_0"></use></mask><g mask="url(#bg-mask-0)" ><g opacity="1" transform="translate(0 0)  rotate(0 512 512)"><path id="矩形" fill-rule="evenodd" style="fill:#FFFFFF" transform="translate(0 0)  rotate(0 512 512)" opacity="0" d="M0,1024L1024,1024L1024,0L0,0L0,1024Z " /><g opacity="1" transform="translate(62 125.00000002765569)  rotate(0 465 416.49999998617216)"><path id="路径-58" fill-rule="evenodd" style="fill:#47B0F1" transform="translate(1.742830590956146e-8 0)  rotate(0 449.99999992659576 354.8076923248157)" opacity="0.05" d="M888.35,539.62C851.84,535.15 800.22,494.98 850.91,450.24C901.61,405.5 895.59,287.38 888.35,178.51C842.53,-73.31 663.32,10.87 643.47,23.96C623.63,37.04 564.56,80.6 513.59,76.6C462.62,72.61 447.15,62.71 385.1,123.05C323.05,183.39 239.62,148.88 98.4,178.51C-42.82,208.15 7.12,423.67 14.8,456.77C22.47,489.86 46.11,632.12 150.99,677.04C368.19,751.18 730.88,679.06 786.95,653.9C871.28,620.53 924.86,544.08 888.35,539.62Z " /><path id="形状结合" fill-rule="evenodd" fill="url(#linear_0)" transform="translate(8 173.99999997234437)  rotate(0 62 23)" opacity="0.100000001" d="M0,37.5L0,38.5C0,42.64 3.36,46 7.5,46L86.5,46C90.64,46 94,42.64 94,38.5L94,37.5C94,33.87 91.42,30.85 88,30.15L88,30L85,30L84.76,30C81,29.87 78,26.79 78,23L78,22.76C78.13,19 81.21,16 85,16L116.5,16C120.64,16 124,12.64 124,8.5L124,7.5C124,3.36 120.64,0 116.5,0L37.5,0C33.36,0 30,3.36 30,7.5L30,8.5C30,12.13 32.58,15.16 36,15.85L36,16L39,16L39.24,16C43,16.13 46,19.21 46,23L46,23.24C45.87,27 42.79,30 39,30L7.5,30C3.36,30 0,33.36 0,37.5Z " /><path id="形状结合" fill-rule="evenodd" fill="url(#linear_1)" transform="translate(708 3.9999999723443693)  rotate(0 62 23)" opacity="0.100000001" d="M7.5,30C3.36,30 0,33.36 0,37.5L0,38.5C0,42.64 3.36,46 7.5,46L86.5,46C90.64,46 94,42.64 94,38.5L94,37.5C94,33.87 91.42,30.85 88,30.15L88,30L85,30L84.76,30C81,29.87 78,26.79 78,23L78,22.76C78.13,19 81.21,16 85,16L116.5,16C120.64,16 124,12.64 124,8.5L124,7.5C124,3.36 120.64,0 116.5,0L37.5,0C33.36,0 30,3.36 30,7.5L30,8.5C30,12.13 32.58,15.16 36,15.85L36,16L39,16L39.24,16C43,16.13 46,19.21 46,23L46,23.24C45.87,27 42.79,30 39,30L7.5,30Z " /><path id="形状结合" fill-rule="evenodd" fill="url(#linear_2)" transform="translate(0 586.9999999723443)  rotate(0 465 123)" opacity="1" d="M784.3,28.01C701.78,10.79 583.62,0 452.52,0C202.37,0 0,38.95 0,87C0,123.72 118.2,155.13 285.59,167.89C305.83,212.24 409.35,246 534,246C673.18,246 786,203.91 786,152C786,149.9 785.82,147.81 785.45,145.75C801.2,142.43 815.64,138.88 828.61,135.13C887.55,127.8 930,107.23 930,83C930,53.03 865.06,28.66 784.3,28.01Z " /><g opacity="1" transform="translate(587.174147 36.90715797159437)  rotate(0 104.768092 32.371190900375)"><path id="路径" fill-rule="evenodd" fill="url(#linear_3)" transform="translate(0 39.167003127098816)  rotate(0 37.4343421 12.787689336825594)" opacity="1" d="M37.43,25.57C42.77,10.62 60.15,3.55 74.87,5.64C64.03,-1.15 45.89,-2.88 37.43,7.45L37.43,7.36C28.96,-3.06 10.93,-1.25 0,5.55C14.74,3.36 32.11,10.44 37.43,25.48L37.43,25.58L37.43,25.57Z " /><path id="路径" fill-rule="evenodd" fill="url(#linear_4)" transform="translate(94.91315410000001 34.47799892575)  rotate(0 25.94716795 8.8617306875)" opacity="1" d="M51.89,3.91C44.38,-0.8 31.82,-1.99 25.95,5.17L25.95,5.1C20.08,-2.12 7.57,-0.86 0,3.84C10.22,2.34 22.25,7.24 25.95,17.66L25.95,17.72C29.65,7.36 41.68,2.46 51.89,3.91Z " /><path id="路径" fill-rule="evenodd" fill="url(#linear_5)" transform="translate(60.1208168 0)  rotate(0 25.9471676 8.861730650375)" opacity="1" d="M51.89,3.91C44.38,-0.8 31.82,-1.99 25.95,5.17L25.95,5.1C20.08,-2.12 7.57,-0.86 0,3.84C10.22,2.34 22.25,7.24 25.95,17.66L25.95,17.72C29.65,7.36 41.68,2.46 51.89,3.91Z " /><path id="路径" fill-rule="evenodd" fill="url(#linear_6)" transform="translate(173.561624 45.87633603825)  rotate(0 17.98728 6.142647781249998)" opacity="1" d="M35.97,2.71C30.77,-0.55 22.06,-1.38 17.99,3.58L17.99,3.54C13.92,-1.47 5.25,-0.6 0,2.67C7.08,1.62 15.42,5.02 17.99,12.24L17.99,12.29C20.55,5.1 28.89,1.7 35.97,2.71Z " /></g></g><path id="形状结合" fill-rule="evenodd" fill="url(#linear_7)" transform="translate(65 460)  rotate(0 125.53585899999999 164.5)" opacity="1" d="M118.38,137.53C111.36,137.53 105.91,135.73 102.04,132.15C98.03,128.28 96.02,123.76 96.02,118.6L96.02,63.98C96.02,56.24 97.95,50.5 101.82,46.77C104.84,43.91 110.35,42.47 118.38,42.47L251.07,42.47L251.07,0.11L117.76,0.11C117.35,0.04 116.93,0 116.5,0L37.5,0C33.36,0 30,3.36 30,7.5L30,8.5C30,12.13 32.58,15.16 36,15.85L36,16L39,16L39.24,16C43,16.13 46,19.21 46,23L46,23.24C45.87,27 42.79,30 39,30L7.5,30C3.36,30 0,33.36 0,37.5L0,38.5C0,42.64 3.36,46 7.5,46L51.69,46C51.28,49.18 51.07,52.52 51.07,56.02L51.07,123.55C51.07,140.18 55.52,153.01 64.41,162.04C76.02,173.94 91.22,179.89 110,179.89L185.7,179.89C198.74,179.89 205.27,186.92 205.27,200.97L205.27,262.9C205.27,278.53 198.74,286.34 185.7,286.34L118.75,286.34C118.04,286.12 117.28,286 116.5,286L37.5,286C33.36,286 30,289.36 30,293.5L30,294.5C30,298.64 33.36,302 37.5,302L44.75,302C45.54,303.13 46,304.51 46,306L46,306.24C45.87,310 42.79,313 39,313L7.5,313C3.36,313 0,316.36 0,320.5L0,321.5C0,325.64 3.36,329 7.5,329L86.5,329C87.22,329 87.92,328.9 88.58,328.71L197.95,328.71C212.43,328.71 224.98,324.34 235.59,315.59C245.34,307.7 250.21,295.59 250.21,279.25L250.21,190.43C250.21,176.95 245.41,165.34 235.8,155.59C223.76,143.55 208.13,137.53 188.92,137.53L118.38,137.53Z " /><path id="椭圆形" fill-rule="evenodd" fill="url(#linear_8)" transform="translate(350.07171800000003 509.10619499999996)  rotate(0 140.00000000000003 139.99999999999997)" opacity="1" d="M0 140C0 217.32 62.68 280 140 280C217.32 280 280 217.32 280 140C280 62.68 217.32 0 140 0C62.68 0 0 62.68 0 140Z M44 140C44 193.02 86.98 236 140 236C193.02 236 236 193.02 236 140C236 86.98 193.02 44 140 44C86.98 44 44 86.98 44 140Z " /><path id="形状结合" fill-rule="evenodd" fill="url(#linear_9)" transform="translate(645 509)  rotate(0 147 140)" opacity="1" d="M140 280C163.48 280 185.61 274.22 205.05 264L242.5 264C246.64 264 250 260.64 250 256.5L250 255.5C250 251.87 247.42 248.85 244 248.15L244 248L241 248L240.76 248C237.83 247.9 235.36 246 234.41 243.37C237.67 240.4 240.79 237.27 243.75 234L272.5 234C276.64 234 280 230.64 280 226.5L280 225.5C280 221.36 276.64 218 272.5 218L256.27 218C271.26 195.71 280 168.88 280 140C280 109.37 270.17 81.05 253.48 58L256.5 58C260.64 58 264 54.64 264 50.5L264 49.5C264 45.87 261.42 42.85 258 42.15L258 42L255 42L254.76 42C251 41.87 248 38.79 248 35L248 34.76C248.13 31 251.21 28 255 28L286.5 28C290.64 28 294 24.64 294 20.5L294 19.5C294 15.36 290.64 12 286.5 12L207.5 12C205.31 12 203.34 12.94 201.97 14.43C183.29 5.19 162.25 0 140 0C62.68 0 0 62.68 0 140C0 217.32 62.68 280 140 280Z M44 140C44 193.02 86.98 236 140 236C156.71 236 172.43 231.73 186.11 224.22C186.72 220.69 189.79 218 193.5 218L195.97 218C220.21 200.58 236 172.13 236 140C236 105.27 217.56 74.86 189.94 58L177.5 58C173.36 58 170 54.64 170 50.5L170 49.5C170 49.26 170.01 49.03 170.03 48.79C160.59 45.68 150.49 44 140 44C86.98 44 44 86.98 44 140Z " /><g opacity="1" transform="translate(261.9999999755958 581.9999999998712)  rotate(0 120.00000006428326 104.05211600580117)"><path id="路径-61" fill-rule="evenodd" fill="url(#linear_10)" transform="translate(9.25723449143375 63.83299873254535)  rotate(10 110.7427655728495 62.99902529994122)" opacity="1" d="M68.66,89.24C82.45,81.78 93.95,88.17 103.16,108.4C123.55,127.38 154.12,131.01 194.86,119.28C235.6,107.56 229.59,88.88 176.81,63.24C163.19,60.46 152.93,59.07 146.02,59.07C139.1,59.07 134.52,52.33 132.28,38.85C130.82,30.43 123.64,25.36 110.74,23.64C97.84,21.91 91.65,16.66 92.16,7.88C81.96,-2.63 72,-2.63 62.27,7.88C52.55,18.38 43.14,20.89 34.05,15.39C5.91,8.27 -4.79,16.09 1.96,38.85C4.74,45.79 8.26,49.81 12.51,50.91C24.95,61.59 32.14,70.64 34.05,78.06C36.93,89.18 47.96,100.42 68.66,89.24Z " /><g opacity="1" transform="translate(83.64358411582548 50.13266046226086)  rotate(-45 28.794556050000004 77.73738574999999)"><path id="形状结合" fill-rule="evenodd" fill="url(#linear_11)" transform="translate(7.707063700000006 0)  rotate(0 24.9410242 77.73738574999999)" opacity="1" d="M21.84,46.11L12.64,0L18.71,35.52C5.68,27.51 1.43,15.81 0,16.29C4.02,24.26 10.33,31.48 18.94,37.96C18.97,37.72 19,37.48 19.01,37.24L33.86,124.15C33.62,123.46 33.44,122.68 33.35,121.81C28.39,121.25 22.64,118.25 16.11,112.82C19.04,116.35 26.17,122.61 33.94,124.61L39.21,155.47L43.65,155.47L37.83,126.29C41.77,122.91 49.68,113.72 49.88,111.6C46.73,116.69 37.45,123.78 37.45,123.78C37.45,123.78 37.44,123.95 37.41,124.21L30.36,88.85C36.24,84.8 49.36,68.39 49.88,64.78C47.11,69.86 40.45,77.03 29.91,86.3C29.9,86.35 29.89,86.4 29.88,86.45L22.22,48C29.51,40.48 38.67,13.37 34.77,23.07C32.15,29.61 27.86,37.26 21.9,46.03L21.84,46.11Z " /><path id="形状结合" fill-rule="evenodd" fill="url(#linear_12)" transform="translate(0 67.7101015)  rotate(0 17.026378550000004 7.830352000000005)" opacity="1" d="M34.05,15.66C34,14.7 34,13.85 34.05,13.12C17.22,10.58 5.86,6.21 0,0C5.01,6.76 17.68,13.74 34.05,15.66Z " /></g><path id="路径-65" fill-rule="evenodd" fill="url(#linear_13)" transform="translate(44.950684916287756 0)  rotate(0 82.46877513735818 87.83245570739179)" opacity="1" d="M0.19,24.01C5.2,43.1 8.49,55.87 6.85,67.57C5.2,79.28 10.34,101.4 36.47,110.47C53.89,116.52 58.78,125.11 51.15,136.23C47.32,153.3 68.44,165.56 114.53,172.99C183.66,184.15 167.19,158.52 149.41,130.74C136.56,117.87 134.83,110.01 134.83,100.18C134.83,90.34 144.25,74.26 117.21,67.57C105.33,64.87 99.1,53 98.53,31.95C96.66,21.36 85.32,18.72 64.52,24.01C55.27,25.79 45.92,21.33 36.47,10.63C10.41,-7.11 -1.69,-2.65 0.19,24.01Z " /><path id="形状结合" fill-rule="evenodd" fill="url(#linear_14)" transform="translate(86.8097583019578 12.044982336050495)  rotate(-26 29.135128899999998 87.7869778)" opacity="1" d="M44.05,123.07L53.74,173.36L58.27,175.57L47.41,125.27C53.59,121.56 56.23,116.03 57.59,111.6C54.68,117.57 49.01,121.43 46.86,122.73L39.5,88.65C50.09,82.77 57.07,68.4 57.59,64.78C52.69,74.82 46.58,81.87 39.24,85.93L38.94,86.09L30.64,47.63C41.27,39.42 41.19,31.59 42.04,25.5L42.07,25.29L42.06,25.34C40.39,33.15 36.48,39.79 30.32,45.25L30.15,45.39L20.35,0L27.22,35.68C11.05,28.56 9.14,15.82 7.71,16.29C10.34,26.46 16.96,33.74 27.56,38.13C27.58,37.98 27.6,37.84 27.61,37.69L35.81,80.31L36.19,80.35C17.93,78.14 5.86,73.92 0,67.71C5.01,74.47 19.81,80.97 36.19,82.9C36.17,82.6 36.16,82.33 36.15,82.06L43.52,120.3C33.32,120.55 25.02,118.02 18.63,112.71C21.53,116.2 27.88,122.25 44.05,123.07Z " /><path id="路径-96" fill-rule="evenodd" fill="url(#linear_15)" transform="translate(146.8590880204951 2.3029705286338213)  rotate(0 44.828714305315415 98.41317031376207)" opacity="1" d="M23.38,9.52C18.24,22.3 13.12,31.31 8,36.55C-3.71,54.8 -1.34,47.36 8,65.88C17.34,84.39 8.04,87.54 1.36,98.41C-6.68,125 23.38,128.05 28.54,136.91C33.7,145.77 23.38,163.64 28.54,176.6C33.7,189.57 68.08,210.99 82.68,183.41C97.28,155.83 85.4,141.64 79.22,136.91C75.1,133.76 75.1,127.49 79.22,118.11C91.11,101.01 92.26,91.23 82.68,88.77C73.1,86.31 70.24,80.66 74.11,71.83C83.37,57.79 81.36,48.57 68.08,44.16C48.17,37.56 54.26,28.31 50.41,13.78C42.45,-3.04 33.45,-4.46 23.38,9.52Z " /><g opacity="1" transform="translate(163.58826702440416 35.93148270012881)  rotate(0 28.794556 77.73738565)"><path id="形状结合" fill-rule="evenodd" fill="url(#linear_16)" transform="translate(7.707064000000003 0)  rotate(0 24.941024 77.73738565)" opacity="1" d="M43.65,155.47L37.83,126.29C41.77,122.91 49.68,113.72 49.88,111.6C46.73,116.69 37.45,123.78 37.45,123.78C37.45,123.78 37.44,123.95 37.41,124.21L30.36,88.85C36.24,84.8 49.36,68.39 49.88,64.78C47.11,69.86 40.45,77.03 29.91,86.3C29.9,86.35 29.89,86.4 29.88,86.45L22.22,48C29.51,40.48 38.67,13.37 34.77,23.07C32.15,29.61 27.86,37.26 21.9,46.03L21.84,46.11L12.64,0L18.71,35.52C5.68,27.51 1.43,15.81 0,16.29C4.02,24.26 10.33,31.48 18.94,37.96C18.97,37.72 19,37.48 19.01,37.24L33.86,124.15C33.62,123.46 33.44,122.68 33.35,121.81C28.39,121.25 22.64,118.25 16.11,112.82C19.04,116.35 26.17,122.61 33.94,124.61L39.21,155.47L43.65,155.47Z " /><path id="形状结合" fill-rule="evenodd" fill="url(#linear_17)" transform="translate(0 67.71010129999999)  rotate(0 17.026378499999993 7.830352000000005)" opacity="1" d="M34.05,15.66C34,14.7 34,13.85 34.05,13.12C17.22,10.58 5.86,6.21 0,0C5.01,6.76 17.68,13.74 34.05,15.66Z " /></g></g><g opacity="1" transform="translate(875 758)  rotate(0 52 32.00000002206705)"><path id="路径-38" fill-rule="evenodd" fill="url(#linear_18)" transform="translate(20 13.394751852779663)  rotate(0 20.1911512 18.12624964861017)" opacity="1" d="M40.38,36.12C40.12,12.62 24.14,-2.07 0,0.24C17.84,1.96 25.3,13.92 22.4,36.12C29.38,36.3 35.38,36.3 40.38,36.12Z " /><path id="路径-39" fill-rule="evenodd" fill="url(#linear_19)" transform="translate(36.7306519 0)  rotate(0 20.3212756 24.999999987500004)" opacity="1" d="M40.64,49.65C35.78,16.44 20.82,6.57 0,0C16.31,10.69 22.1,27.24 17.39,49.65C26.54,50.12 34.29,50.12 40.64,49.65Z " /><path id="路径-40" fill-rule="evenodd" fill="url(#linear_20)" transform="translate(57.051927500000005 13.287657042201523)  rotate(0 23.47403625 18.35617147889924)" opacity="1" d="M46.95,0.11C30.83,-0.3 12.86,-1.38 0,36.71C10.9,36.36 18.9,36.36 24.02,36.71C21.93,15.42 29.58,3.22 46.95,0.11Z " /><path id="椭圆形" fill-rule="evenodd" fill="url(#linear_21)" transform="translate(0 20)  rotate(0 30.5 22.00000001394949)" opacity="1" d="M61,28.61C61,12.81 47.34,0 30.5,0C13.66,0 0,12.81 0,28.61C0,44.41 14.57,44 31.41,44C48.26,44 61,44.41 61,28.61Z " /><path id="椭圆形备份-6" fill-rule="evenodd" fill="url(#linear_22)" transform="translate(45 37)  rotate(0 19 13.500000022067049)" opacity="1" d="M38,17.56C38,7.86 29.49,0 19,0C8.51,0 0,7.86 0,17.56C0,27.25 9.07,27 19.57,27C30.06,27 38,27.25 38,17.56Z " /></g><g opacity="1" transform="translate(68 722)  rotate(0 40 33.500039375)"><path id="路径-43" fill-rule="evenodd" fill="url(#linear_23)" transform="translate(18.17224119052011 38.028913515895724)  rotate(0 13.072711017239943 12.799883942052137)" opacity="1" d="M25.73,19.08C17.83,-3.73 7.37,0.08 2.47,0.47C-3.34,3.05 1.75,6.59 11.03,9.57C19.15,12.62 24.05,17.96 25.73,25.6C26.28,23.46 26.28,21.29 25.73,19.08Z " /><path id="路径-44" fill-rule="evenodd" fill="url(#linear_24)" transform="translate(24.356887399698067 8.95070319234906)  rotate(0 11.445418860564752 27.945017403825467)" opacity="1" d="M21.69,53.32C24.19,45.16 22.07,32.5 21.69,30.34C15.66,-1.1 7.65,-0.35 3.3,0.13C-0.94,1.99 -1.26,10.2 3.3,15.93C9.52,24.33 15.07,37.65 19.96,55.89C20.74,55.3 21.32,54.44 21.69,53.32Z " /><path id="路径-45" fill-rule="evenodd" fill="url(#linear_25)" transform="translate(38.77123158479763 0)  rotate(0 8.725082370047573 30.558481224999998)" opacity="1" d="M10.13,60.72C12.84,52.24 15.43,45.57 16.92,34.29C19.36,6.34 12.9,0.73 7.55,0C-5.64,0.36 1.59,16.03 5.83,28.77C8.61,41.91 8.89,52.56 6.68,60.72C8.03,61.25 9.18,61.25 10.13,60.72Z " /><path id="路径-46" fill-rule="evenodd" fill="url(#linear_26)" transform="translate(47.9135565229182 10.994541013346197)  rotate(0 12.430992647553285 26.448073193326902)" opacity="1" d="M2.6,51.07C2.62,49.25 5.3,41.47 9.37,36.15C21.72,21.41 23.86,11.75 24.86,7.22C24.9,-3.3 15.31,-0.16 12.79,3.2C3.45,13.25 -0.77,29.81 0.11,52.9C1.75,52.9 2.58,52.29 2.6,51.07Z " /><path id="路径-47" fill-rule="evenodd" fill="url(#linear_27)" transform="translate(0 49.988955408390495)  rotate(0 40 8.505561670804749)" opacity="1" d="M80,16.95C79.03,-0.13 66.1,-0.27 61.72,0.07C57.83,-0.56 48.89,3.38 47.46,9.54C44.32,5.64 38.85,7.34 37.14,9.54C29.3,3.02 16.72,10.76 15.29,12.56C14.34,13.76 9.24,15.23 0,16.95C49.81,17.03 76.47,17.03 80,16.95Z " /></g><g opacity="1" transform="translate(703.999999996852 279.99999999994577)  rotate(0 80.00000000157397 176.25325953733432)"><path id="形状结合" fill-rule="evenodd" style="fill:#EBB0B0" transform="translate(57.08860319796588 19.328687215924486)  rotate(0 26.267331827863842 28.91223684206487)" opacity="1" d="M45.44 12.77C44.62 11.1 43.58 9.56 42.34 8.18C38.36 3.58 32.78 0.71 26.76 0.14C20.55 -0.62 14.36 1.77 10.24 6.53C7.26 10.01 5.41 14.32 4.93 18.89C4.92 19.44 4.91 20 4.92 20.55C-0.05 17.99 -4.02 34 7.41 33.56C7.41 33.56 7.41 33.56 7.41 33.55L7.81 33.53C7.67 33.54 7.54 33.55 7.41 33.56C8.37 36.07 9.6 38.48 11.1 40.75C12.23 42.67 13.66 44.33 15.3 45.68L15.22 57.82L35.66 57.54L35.62 47.19C39.54 44.34 42.3 39.61 44.82 35.91C45.24 35.3 45.64 34.5 45.99 33.56C55.99 33.19 52.71 19.09 48.12 20.35L48.11 20.18C48.06 16.03 47.24 12.61 45.34 12.06L45.5 12.89L45.44 12.77Z M7.81 33.53L7.41 33.55C7.41 33.56 7.41 33.56 7.41 33.56C7.54 33.55 7.67 33.54 7.81 33.53Z M45.965 15.397C45.995 16.217 46.035 17.027 46.445 17.767L45.955 15.237L45.965 15.397Z M45.957 15.24L45.947 15.09C45.927 14.58 45.897 14.07 45.767 13.57L45.677 13.27L45.497 12.89L45.957 15.24Z " /><path id="路径" fill-rule="evenodd" style="fill:#131322" transform="translate(51.59216130222502 0)  rotate(0 29.778012499010796 23.455812900027116)" opacity="1" d="M11.04,4.82C6.85,7.97 1.41,15.62 0.2,25.22C-1.05,34.83 3.89,39.61 8.01,46.91C11.82,44.5 12.75,38.94 15.44,35.32C19.17,30.93 23.87,27.47 29.18,25.22C40.58,23.54 46.05,23.54 51.18,33.87C51.18,33.87 52.05,36.48 53.78,41.7C60.81,34.89 63.37,12.12 50.06,6.36C48.57,4.54 45.41,4.06 41.15,4C38.06,3.92 37.72,5.1 36.14,4.82C34.56,4.54 32.24,0.8 26.23,0.06C22.98,-0.41 13.17,2.04 11.04,4.82Z " /><path id="路径" fill-rule="evenodd" fill="url(#linear_28)" transform="translate(25.78365030314795 68.53695190005425)  rotate(0 57.33788584999999 73.76088796312678)" opacity="1" d="M103.19,106.85C109.68,78.51 114.68,69.54 114.68,19.21C97.7,6.19 77.65,0.52 66.59,0C64.19,1.66 60.43,5.64 57.67,5.48C54.03,5.41 50.22,2.02 46.99,0C33.29,3.84 12.66,2.29 0,20.9C0.21,40.18 1.25,66.22 1.86,81.59C2.09,87.37 5.14,97.01 7.13,102.34C9.13,107.68 17.93,127.04 19.69,128.81C21.9,131 38.68,145.74 41.62,146.1C56.71,147.89 67.36,149.21 81.13,142.16C84.65,140.34 103.01,108.09 103.19,106.85Z " /><path id="矩形" fill-rule="evenodd" fill="url(#linear_29)" transform="translate(64.72973940314795 79.97674860005422)  rotate(0 16.7603051 24.699397)" opacity="1" d="M4,49.4L29.52,49.4C30.58,49.4 31.6,48.98 32.35,48.23C33.1,47.48 33.52,46.46 33.52,45.4L33.52,4C33.52,2.94 33.1,1.92 32.35,1.17C31.6,0.42 30.58,0 29.52,0L4,0C1.79,0 0,1.79 0,4L0,45.4C0,47.61 1.79,49.4 4,49.4Z " /><path id="路径-109" fill-rule="evenodd" style="fill:#EFBA9E" transform="translate(51.43554986416959 108.6692524685196)  rotate(-30.999999999999993 13.987819320584993 12.328525688428478)" opacity="1" d="M3.48,23.24C11.94,27.15 22.12,22.14 26.35,18.35C31.79,4.61 22,2.55 19.87,1.98C22.05,1.34 22.91,-0.02 18.69,0C13.58,1.53 8.37,4.57 3.06,9.12C-1.15,15.6 -1.01,20.31 3.48,23.24Z " /><path id="路径-2" fill-rule="evenodd" fill="url(#linear_30)" transform="translate(11.089889269363539 82.06804707875574)  rotate(0 19.421381495729438 51.63717571896833)" opacity="1" d="M4.86,90.22C8.62,101.56 22.65,109.84 33.86,96.12C38.67,64.42 42.12,13.12 33.86,5.17C26.59,-2.52 19.05,-1.63 11.25,7.85C-1.18,27.79 -3.31,55.25 4.86,90.22Z " /><path id="路径-3" fill-rule="evenodd" fill="url(#linear_31)" transform="translate(23.709571000961056 124.33259190927973)  rotate(0 21.768063794715637 30.844465706419193)" opacity="1" d="M17.2,61.01C36.6,51.25 44.97,13.27 43.34,8.52C41.8,0.7 35.3,-1.34 29.56,0.8C13.7,13.35 4.12,27.24 0.82,42.49C-2.23,57.7 3.23,63.87 17.2,61.01Z " /><path id="路径-109" fill-rule="evenodd" style="fill:#EFBA9E" transform="translate(85.12910916709939 108.66925288922258)  rotate(30.999999999999993 13.987819317487855 12.328525688428478)" opacity="1" d="M9.29,0C5.06,-0.02 5.93,1.34 8.1,1.98C5.98,2.55 -3.82,4.61 1.63,18.35C5.85,22.14 16.04,27.15 24.5,23.24C28.99,20.31 29.13,15.6 24.92,9.12C19.61,4.57 14.4,1.53 9.29,0Z " /><path id="路径-2" fill-rule="evenodd" fill="url(#linear_32)" transform="translate(114.60775173835782 82.06804707875574)  rotate(0 19.421381550512628 51.63717571896833)" opacity="1" d="M4.98,5.17C-3.28,13.12 0.18,64.42 4.98,96.12C16.2,109.84 30.22,101.56 33.98,90.22C42.15,55.25 40.02,27.79 27.59,7.85C19.8,-1.63 12.26,-2.52 4.98,5.17Z " /><path id="路径-3" fill-rule="evenodd" fill="url(#linear_33)" transform="translate(97.29470549131918 124.33259190927973)  rotate(0 21.76806378216878 30.844465706419193)" opacity="1" d="M13.97,0.8C8.24,-1.34 1.74,0.7 0.2,8.52C-1.43,13.27 6.93,51.25 26.34,61.01C40.31,63.87 45.77,57.7 42.72,42.49C39.41,27.24 29.83,13.35 13.97,0.8Z " /><path id="路径-4" fill-rule="evenodd" fill="url(#linear_34)" transform="translate(7.222679776946578 184.08234674140544)  rotate(0 74.54369328579573 28.478054129324406)" opacity="1" d="M10.64,56.96C71.88,56.23 113.24,56.23 134.74,56.96C154.44,20.85 153.85,1.87 132.98,0.01C117.19,4.73 102.57,12.56 89.1,23.5C80.12,30.33 70.47,30.33 60.15,23.5L16.13,0.01C-0.83,-0.52 -4.42,16.28 5.38,50.38C6.59,53.77 8.35,55.96 10.64,56.96Z " /><path id="路径" fill-rule="evenodd" style="fill:#333333" transform="translate(32.61678653952305 319.1311779246644)  rotate(-94 19.825573552591415 12.711361914515123)" opacity="1" d="M36.94,10.88C36.94,10.88 24.71,5.09 15.93,1.79C7.14,-1.5 -0.31,-0.09 0.01,4.66C0.33,9.41 13.19,16.94 15.09,17.99C16.99,19.04 23.65,22.9 27.64,24.89C30.78,26.45 37.24,24.32 38.8,22.01C40.35,19.7 39.28,17.31 39.41,12.54L36.94,10.88Z " /><path id="路径备份-2" fill-rule="evenodd" style="fill:#333333" transform="translate(88.19042977103955 319.1311779714828)  rotate(94 19.825573317801037 12.711361914515123)" opacity="1" d="M0.85,22.01C2.41,24.32 8.87,26.45 12.01,24.89C16,22.9 22.66,19.04 24.56,17.99C26.46,16.94 39.32,9.41 39.64,4.66C39.96,-0.09 32.51,-1.5 23.73,1.79C14.94,5.09 2.71,10.88 2.71,10.88L0.24,12.54C0.37,17.31 -0.7,19.7 0.85,22.01Z " /><path id="路径-5" fill-rule="evenodd" fill="url(#linear_35)" transform="translate(0 175.90956031389408)  rotate(0 33.68863065157397 70.75437608089622)" opacity="1" d="M40.82,140.91C51.67,142.72 60.52,140.44 67.38,134.07C56.47,67.41 50.07,28.96 48.17,18.72C42.13,8 34.04,-4.58 14.65,1.67C-4.74,7.92 0.7,35.77 0.7,35.77C0.7,35.77 36.39,126.27 40.82,140.91Z " /><path id="路径-5备份" fill-rule="evenodd" fill="url(#linear_36)" transform="translate(92.6227387472735 175.90956031389408)  rotate(0 33.68863062793722 70.75437608089622)" opacity="1" d="M52.73,1.67C33.34,-4.58 25.25,8 19.21,18.72C17.31,28.96 10.91,67.41 0,134.07C6.85,140.44 15.71,142.72 26.56,140.91C30.98,126.27 66.67,35.77 66.67,35.77C66.67,35.77 72.12,7.92 52.73,1.67Z " /></g><path id="飞机" fill-rule="evenodd" fill="url(#linear_37)" transform="translate(587.753208 290.043735)  rotate(0 24.727272500000026 25.5)" opacity="1" d="M42.38,46.69L49.45,0L0,28.81L12.98,34.88L44.33,6.62L19.16,37.75L18.82,51L27.85,40.46L42.38,46.69Z " /></g></g></g></svg>