<svg>
  <symbol id="about" fill="none" stroke="currentColor" stroke-linecap="round" stroke-linejoin="round" stroke-width="2" viewBox="0 0 24 24" xmlns="http://www.w3.org/2000/svg"><path d="M18 8h1a4 4 0 0 1 0 8h-1"/><path d="M2 8h16v9a4 4 0 0 1-4 4H6a4 4 0 0 1-4-4V8z"/><line x1="6" x2="6" y1="1" y2="4"/><line x1="10" x2="10" y1="1" y2="4"/><line x1="14" x2="14" y1="1" y2="4"/></symbol>
  <symbol id="album" fill="none" stroke="currentColor" stroke-linecap="round" stroke-linejoin="round" stroke-width="2" viewBox="0 0 24 24" xmlns="http://www.w3.org/2000/svg"><rect height="18" rx="2" ry="2" width="18" x="3" y="3"/><circle cx="8.5" cy="8.5" r="1.5"/><polyline points="21 15 16 10 5 21"/></symbol>
  <symbol id="archive" fill="none" stroke="currentColor" stroke-linecap="round" stroke-linejoin="round" stroke-width="2" viewBox="0 0 24 24" xmlns="http://www.w3.org/2000/svg"><polyline points="21 8 21 21 3 21 3 8"/><rect height="5" width="22" x="1" y="3"/><line x1="10" x2="14" y1="12" y2="12"/></symbol>
  <symbol id="arrow-down" viewBox="0 0 32 32" xmlns="http://www.w3.org/2000/svg"><path d="M15.992 25.304c-0 0-0 0-0.001 0-0.516 0-0.981-0.216-1.31-0.563l-0.001-0.001-14.187-14.996c-0.306-0.323-0.494-0.76-0.494-1.241 0-0.998 0.809-1.807 1.807-1.807 0.517 0 0.983 0.217 1.313 0.565l0.001 0.001 12.875 13.612 12.886-13.612c0.331-0.348 0.797-0.565 1.314-0.565 0.481 0 0.918 0.187 1.242 0.493l-0.001-0.001c0.723 0.687 0.755 1.832 0.072 2.555l-14.201 14.996c-0.33 0.348-0.795 0.564-1.311 0.564-0.001 0-0.003 0-0.004 0h0z"/></symbol>
  <symbol id="article" viewBox="0 0 1024 1024" xmlns="http://www.w3.org/2000/svg"><path d="M930.36339 92.946902c-18.975167-18.975167-44.166919-29.426193-70.939679-29.426193l-736.175689 0.468674-0.12689 148.804071H64.021106v51.27685h59.057047l-0.106424 125.070531H64.021106v51.27685h58.908668l-0.107448 124.746142H64.021106v51.27685h58.757218l-0.106424 125.07053H64.019059v51.276851h58.607816l-0.141216 165.513637 736.941122-0.687661c55.338353 0 100.359732-45.02138 100.359732-100.359732V163.881464c0-26.767644-10.44898-51.959396-29.423123-70.934562z m-20.675902 70.936609v693.371814c0 27.713178-22.545482 50.258661-50.260707 50.258661l-73.241095 0.019442V113.658619L859.427804 113.62178c27.713178 0 50.259684 22.547529 50.259684 50.261731zM170.417321 741.511207l0.23536-125.07053h66.537416v-51.27685h-66.440201l0.236383-124.746142h66.204841v-51.27685h-66.10865l0.236384-125.070531h65.87022v-51.27685h-65.775053l0.186242-98.825796 564.484352-0.283456v793.863553l-565.982472 0.150426 0.218987-114.910123h66.86999V741.511207h-66.773799z" fill="currentColor" stroke-width="28"/></symbol>
  <symbol id="backTop" viewBox="0 0 1024 1024" xmlns="http://www.w3.org/2000/svg"><path d="M523.6736 71.850667a23.1424 23.1424 0 0 0-24.746667 0c-110.592 70.724267-183.876267 196.4032-183.876266 339.7632 0 20.0704 1.399467 40.1408 4.676266 60.2112a24.507733 24.507733 0 0 1-3.2768 16.247466A318.634667 318.634667 0 0 0 273.066667 650.069333c0 26.760533 3.2768 53.521067 9.796266 79.325867a23.4496 23.4496 0 0 0 44.3392 3.822933 306.653867 306.653867 0 0 1 61.1328-88.8832c1.877333 2.389333 3.754667 5.256533 5.597867 8.123734 39.2192 2.8672 78.404267 4.778667 118.0672 4.778666 39.185067 0 78.848-1.4336 118.0672-4.778666 1.877333-2.389333 3.754667-5.256533 5.597867-8.123734a306.688 306.688 0 0 1 61.1328 88.8832 23.4496 23.4496 0 0 0 44.3392-3.822933c6.519467-25.8048 9.796267-52.565333 9.796266-79.325867 0-59.733333-16.349867-115.643733-43.383466-161.9968a24.507733 24.507733 0 0 1-3.2768-16.247466c2.798933-20.0704 4.676267-40.1408 4.676266-60.2112-0.955733-143.36-74.205867-269.038933-185.275733-339.7632z m67.208533 299.144533c0 44.919467-35.498667 81.237333-79.36 81.237333-43.861333 0-79.325867-36.317867-79.325866-81.237333 0-44.919467 35.498667-81.237333 79.325866-81.237333 43.861333 0.477867 79.36 36.795733 79.36 81.237333z" fill="#0dafbb"/><path d="M464.213333 730.453333c0 36.420267 21.333333 225.28 47.786667 225.28 26.453333 0 47.786667-188.859733 47.786667-225.28 0-36.352-21.333333-65.7408-47.786667-65.7408-26.453333 0.477867-47.786667 29.9008-47.786667 65.774934z" fill="#0dafbb"/></symbol>
  <symbol id="bilibili" viewBox="0 0 1024 1024" xmlns="http://www.w3.org/2000/svg"><path d="M1019.54782609 345.3106087c-3.20556522-142.1133913-127.15408696-169.36069565-127.15408696-169.36069566s-96.70121739-0.53426087-222.25252174-1.60278261l91.3586087-88.15304347s14.42504348-18.16486957-10.15095652-38.46678261c-24.576-20.30191304-26.17878261-11.21947826-34.72695653-5.87686957-7.47965217 5.3426087-117.00313043 112.72904348-136.23652174 131.96243479-49.68626087 0-101.50956522-0.53426087-151.73008695-0.53426087h17.63060869S315.392 43.98747826 306.84382609 38.1106087s-9.61669565-14.42504348-34.72695652 5.87686956c-24.576 20.30191304-10.15095652 38.46678261-10.15095653 38.46678261l93.49565218 90.82434783c-101.50956522 0-189.12834783 0.53426087-229.73217392 2.13704347C-5.69878261 213.34817391 4.45217391 345.3106087 4.45217391 345.3106087s1.60278261 283.15826087 0 426.34017391c14.42504348 143.18191304 124.48278261 166.15513043 124.48278261 166.15513043s43.8093913 1.06852174 76.39930435 1.06852174c3.20556522 9.08243478 5.87686957 53.96034783 56.0973913 53.96034783 49.68626087 0 56.0973913-53.96034783 56.09739131-53.96034783s365.96869565-1.60278261 396.42156522-1.60278261c1.60278261 15.49356522 9.08243478 56.63165217 59.30295652 56.09739131 49.68626087-1.06852174 53.42608696-59.30295652 53.42608695-59.30295652s17.09634783-1.60278261 67.85113044 0c118.60591304-21.90469565 125.55130435-160.81252174 125.55130435-160.81252174s-2.13704348-285.82956522-0.53426087-427.94295652z m-102.04382609 453.05321739c0 22.43895652-17.6306087 40.60382609-39.53530435 40.60382608h-721.25217391c-21.90469565 0-39.53530435-18.16486957-39.53530435-40.60382608V320.20034783c0-22.43895652 17.6306087-40.60382609 39.53530435-40.60382609h721.25217391c21.90469565 0 39.53530435 18.16486957 39.53530435 40.60382609v478.16347826z" fill="#1296db"/><path d="M409.088 418.816l-203.264 38.912 17.408 76.288 201.216-38.912zM518.656 621.056c-49.664 106.496-94.208 26.112-94.208 26.112l-33.28 21.504s65.536 89.6 128 21.504c73.728 68.096 130.048-22.016 130.048-22.016l-30.208-19.456c0-0.512-52.736 75.776-100.352-27.648zM619.008 495.104l201.728 38.912 16.896-76.288-202.752-38.912z" fill="#1296db"/></symbol>
  <symbol id="classify" viewBox="0 0 1026 1024" xmlns="http://www.w3.org/2000/svg"><path d="M931.571183 1023.943658 641.471385 1023.943658c-51.60138 0-93.398472-65.628416-93.398472-117.229796L548.072913 641.506393c0-51.572603 41.797092-93.403477 93.398472-93.403477l290.098547 0c51.537569 0 93.398472 41.832125 93.398472 93.403477l0 289.038793C1024.969655 982.146566 983.108752 1023.943658 931.571183 1023.943658L931.571183 1023.943658zM976.990457 644.869579c0-26.32869-21.362736-47.662649-47.662649-47.662649L643.393205 597.206931c-26.294908 0-47.662649 21.333959-47.662649 47.662649l0 285.934603c0 26.294908 21.367741 47.657644 47.662649 47.657644l285.934603 0c26.299913 0 47.662649-21.362736 47.662649-47.657644L976.990457 644.869579 976.990457 644.869579zM931.571183 475.904526 641.471385 475.904526c-51.60138 0-93.398472-65.657194-93.398472-117.258574L548.072913 93.43348c0-51.567598 41.797092-93.433505 93.398472-93.433505l290.098547 0c51.537569 0 93.398472 41.865907 93.398472 93.433505l0 289.043798C1024.969655 434.073652 983.108752 475.904526 931.571183 475.904526L931.571183 475.904526zM976.990457 96.795414c0-26.298662-21.362736-47.661398-47.662649-47.661398L643.393205 49.134018c-26.294908 0-47.662649 21.362736-47.662649 47.661398l0 285.935854c0 26.32869 21.367741 47.661398 47.662649 47.661398l285.934603 0c26.299913 0 47.662649-21.332708 47.662649-47.661398L976.990457 96.795414 976.990457 96.795414zM383.49827 1023.943658 93.433505 1023.943658C41.797092 1023.943658 0 958.315242 0 906.713862L0 641.506393c0-51.572603 41.797092-93.403477 93.433505-93.403477l290.064764 0c51.572603 0 93.433505 41.832125 93.433505 93.403477l0 289.038793C476.901746 982.146566 435.070872 1023.943658 383.49827 1023.943658L383.49827 1023.943658zM428.917544 644.869579c0-26.32869-21.328954-47.662649-47.657644-47.662649L95.325297 597.206931c-26.299913 0-47.662649 21.333959-47.662649 47.662649l0 285.934603c0 26.294908 21.362736 47.657644 47.662649 47.657644l285.934603 0c26.32869 0 47.657644-21.362736 47.657644-47.657644L428.917544 644.869579 428.917544 644.869579zM383.49827 475.904526 93.433505 475.904526C41.797092 475.904526 0 410.247332 0 358.645953L0 93.43348c0-51.567598 41.797092-93.433505 93.433505-93.433505l290.064764 0c51.572603 0 93.433505 41.832125 93.433505 93.433505l0 289.043798C476.901746 434.073652 435.070872 475.904526 383.49827 475.904526L383.49827 475.904526zM428.917544 96.795414c0-26.298662-21.328954-47.661398-47.657644-47.661398L95.325297 49.134018c-26.299913 0-47.662649 21.362736-47.662649 47.661398l0 285.935854c0 26.32869 21.362736 47.661398 47.662649 47.661398l285.934603 0c26.32869 0 47.657644-21.332708 47.657644-47.661398L428.917544 96.795414 428.917544 96.795414zM428.917544 96.795414" fill="currentColor" stroke-width="28"/></symbol>
  <symbol id="click" viewBox="0 0 1024 1024" xmlns="http://www.w3.org/2000/svg"><path d="M836.294944 346.540597h-2.541893c-18.721387 0-34.07712 5.369288-48.860824 14.532995-12.958126-37.764092-45.890166-64.969711-88.308255-64.96971-18.721387 0-36.619012 5.369288-51.402717 14.532994-12.958126-37.765115-45.890166-64.968687-88.344071-64.968687-16.537651 0-31.930223 4.152577-45.532009 11.419074v-97.185436c0-52.941769-40.055275-95.825462-93.355201-95.825463s-96.540753 42.919509-96.540753 95.825463v372.06083l-58.597583-58.382688c-37.693484-37.44175-104.416118-32.108279-136.524397 0-32.109302 32.109302-53.156664 96.684016-7.194866 142.68163l269.613554 267.823791c5.548366 5.51255 11.669784 10.130731 18.11252 14.031575 49.14735 40.09109 105.490589 63.823608 224.582965 63.823607 272.082792 0 297.283754-146.798391 297.283753-327.852979v-191.685717c-0.037862-52.941769-39.054481-95.861278-92.390223-95.861279m41.522696 287.51118c0 153.205311-0.716314 277.417287-246.454088 277.417287-104.093776 0-166.593226-23.195282-213.950814-70.231551L162.188916 587.697029c-22.586414-22.586414-16.894785-51.438533 1.574868-69.945025 18.470677-18.470677 52.404534-19.114336 70.266344-1.39579 0 0 44.780903 44.494377 83.368756 82.867336a83728.374434 83728.374434 0 0 0 54.838979 54.516638V169.996742c0-25.056676 20.475334-45.388746 45.746903-45.388746 25.27157 0 42.525536 20.332071 42.525536 45.388746v307.699988h0.50142a25.933649 25.933649 0 0 0-0.50142 5.046946c0 13.924127 11.383258 25.235754 25.414833 25.235754 14.031575 0 25.414833-11.275811 25.414833-25.235754 0-1.718131-0.179079-3.400446-0.501421-5.046946h0.501421V351.588567c0-25.056676 18.255783-45.388746 43.527352-45.388746 0 0 44.744064-0.608867 44.744063 45.388746v166.449963h0.501421a25.933649 25.933649 0 0 0-0.501421 5.046946c0 13.925151 11.383258 25.235754 25.414833 25.235754 14.031575 0 25.414833-11.275811 25.414833-25.235754 0-1.718131-0.179079-3.400446-0.50142-5.046946h0.50142V402.02426c0-25.056676 17.969257-45.388746 43.240827-45.388747 0 0 45.675272 2.864234 45.675272 45.388747V548.32123h0.50142a25.933649 25.933649 0 0 0-0.50142 5.046946c0 13.924127 11.383258 25.235754 25.414833 25.235755 14.031575 0 24.77015-11.275811 24.770149-25.235755 0-1.718131-0.179079-3.400446-0.465604-5.046946h0.465604v-99.869568c0-25.057699 18.828834-45.388746 44.100404-45.388747 0 0 44.279483-1.789763 44.279483 45.388747v185.601138h-0.104377M283.715737 302.798351"/></symbol>
  <symbol id="date-out" viewBox="0 0 1024 1024" xmlns="http://www.w3.org/2000/svg"><path d="M128 384v512h768V192H768v32a32 32 0 1 1-64 0v-32H320v32a32 32 0 0 1-64 0v-32H128v128h768v64H128zm192-256h384V96a32 32 0 1 1 64 0v32h160a32 32 0 0 1 32 32v768a32 32 0 0 1-32 32H96a32 32 0 0 1-32-32V160a32 32 0 0 1 32-32h160V96a32 32 0 0 1 64 0v32zm-32 384h64a32 32 0 0 1 0 64h-64a32 32 0 0 1 0-64zm0 192h64a32 32 0 1 1 0 64h-64a32 32 0 1 1 0-64zm192-192h64a32 32 0 0 1 0 64h-64a32 32 0 0 1 0-64zm0 192h64a32 32 0 1 1 0 64h-64a32 32 0 1 1 0-64zm192-192h64a32 32 0 1 1 0 64h-64a32 32 0 1 1 0-64zm0 192h64a32 32 0 1 1 0 64h-64a32 32 0 1 1 0-64z" fill="currentColor"/></symbol>
  <symbol id="date-color" viewBox="0 0 1024 1024" xmlns="http://www.w3.org/2000/svg"><path d="M762.8 71.1c-16-11.6-38.6-8.1-50.3 7.9L504.2 365.5 295.8 79c-11.6-16-34.3-19.6-50.3-7.9-16 11.6-19.6 34.3-7.9 50.3L461 428.5c-4.2 14.2 0.6 30.1 13.2 39.3 9 6.5 19.9 8.1 30 5.6 10 2.5 21 0.9 30-5.6 12.6-9.2 17.4-25.1 13.2-39.3l223.4-307.2c11.6-16 8-38.6-8-50.2z" fill="#FB813A"/><path d="M861.7 182.1H162.3c-33.8 0-61.1 27.4-61.1 61.1v655.4c0 33.8 27.4 61.1 61.1 61.1h699.5c33.8 0 61.1-27.4 61.1-61.1V243.2c0-33.8-27.4-61.1-61.2-61.1z" fill="#FDDE80"/><path d="M781.1 863.2H242.9c-21.5 0-39-17.5-39-39v-399c0-21.5 17.5-39 39-39h538.3c21.5 0 39 17.5 39 39v398.9c0 21.6-17.5 39.1-39.1 39.1z" fill="#FFFFFF"/><path d="M398.9 480.3H297c-5.2 0-9.4 4.2-9.4 9.4v101.9c0 5.2 4.2 9.4 9.4 9.4h102c5.2 0 9.4-4.2 9.4-9.4V489.7c-0.1-5.2-4.3-9.4-9.5-9.4zM563 480.3H461c-5.2 0-9.4 4.2-9.4 9.4v101.9c0 5.2 4.2 9.4 9.4 9.4h102c5.2 0 9.4-4.2 9.4-9.4V489.7c0-5.2-4.2-9.4-9.4-9.4zM727.1 480.3h-102c-5.2 0-9.3 4.2-9.3 9.3v102c0 5.2 4.2 9.4 9.4 9.4h102c5.2 0 9.3-4.2 9.3-9.3v-102c-0.1-5.2-4.3-9.4-9.4-9.4zM398.9 665.8h-102c-5.2 0-9.3 4.2-9.3 9.3v102c0 5.2 4.2 9.4 9.4 9.4h102c5.2 0 9.3-4.2 9.3-9.3v-102c0-5.2-4.2-9.4-9.4-9.4zM563 665.8H461c-5.2 0-9.4 4.2-9.4 9.4v101.9c0 5.2 4.2 9.4 9.4 9.4h102c5.2 0 9.4-4.2 9.4-9.4V675.2c0-5.2-4.2-9.4-9.4-9.4z" fill="#FB813A"/><path d="M625.1 786.5h102c5.2 0 9.4-4.2 9.4-9.4V675.2c0-5.2-4.2-9.4-9.4-9.4h-102c-5.2 0-9.4 4.2-9.4 9.4v101.9c0 5.2 4.2 9.4 9.4 9.4z" fill="#9289F0"/></symbol>
  <symbol id="fork" viewBox="0 0 1024 1024" xmlns="http://www.w3.org/2000/svg"><path d="M896.035413 128a128 128 0 1 0-164.010666 122.88V378.453333l-220.288 220.16-220.202667-220.16V251.008A128.042667 128.042667 0 0 0 256.035413 0a128 128 0 0 0-36.48 250.709333v156.885334l-0.298666 0.298666 256.768 256.810667v108.373333A128.085333 128.085333 0 0 0 512.035413 1024a128 128 0 0 0 36.010667-250.88v-108.928L804.30208 407.893333l-0.298667-0.298666V250.88A128.085333 128.085333 0 0 0 896.035413 128zM200.01408 128a56.021333 56.021333 0 1 1 112.085333 0.085333A56.021333 56.021333 0 0 1 200.01408 128z m368.042667 768a56.021333 56.021333 0 1 1-112.085334-0.085333 56.021333 56.021333 0 0 1 112.085334 0.085333zM768.035413 183.978667a56.021333 56.021333 0 1 1 0.085334-112.042667A56.021333 56.021333 0 0 1 768.035413 184.021333z"/></symbol>
  <symbol id="gitee" viewBox="0 0 1024 1024" xmlns="http://www.w3.org/2000/svg"><path d="M512 0C230.4 0 0 230.4 0 512s230.4 512 512 512 512-230.4 512-512S793.6 0 512 0z m284.8 313.6c0 12.8-12.8 25.6-25.6 25.6H416c-41.6 0-76.8 35.2-76.8 76.8v243.2c0 12.8 12.8 25.6 25.6 25.6h240c41.6 0 76.8-35.2 76.8-76.8v-12.8c0-12.8-12.8-25.6-25.6-25.6H480c-12.8 0-25.6-12.8-25.6-25.6v-64c0-12.8 12.8-25.6 25.6-25.6h291.2c12.8 0 25.6 12.8 25.6 25.6v144c0 92.8-76.8 169.6-169.6 169.6H252.8c-12.8 0-25.6-12.8-25.6-25.6V412.8C227.2 310.4 310.4 224 416 224h355.2c12.8 0 25.6 12.8 25.6 25.6v64z" fill="#B32225"/></symbol>
  <symbol id="github_li" viewBox="0 0 1024 1024" xmlns="http://www.w3.org/2000/svg"><path d="M511.542857 14.057143C228.914286 13.942857 0 242.742857 0 525.142857 0 748.457143 143.2 938.285714 342.628571 1008c26.857143 6.742857 22.742857-12.342857 22.742858-25.371429v-88.571428c-155.085714 18.171429-161.371429-84.457143-171.771429-101.6C172.571429 756.571429 122.857143 747.428571 137.714286 730.285714c35.314286-18.171429 71.314286 4.571429 113.028571 66.171429 30.171429 44.685714 89.028571 37.142857 118.857143 29.714286 6.514286-26.857143 20.457143-50.857143 39.657143-69.485715-160.685714-28.8-227.657143-126.857143-227.657143-243.428571 0-56.571429 18.628571-108.571429 55.2-150.514286-23.314286-69.142857 2.171429-128.342857 5.6-137.142857 66.4-5.942857 135.428571 47.542857 140.8 51.771429 37.714286-10.171429 80.8-15.542857 129.028571-15.542858 48.457143 0 91.657143 5.6 129.714286 15.885715 12.914286-9.828571 76.914286-55.771429 138.628572-50.171429 3.314286 8.8 28.228571 66.628571 6.285714 134.857143 37.028571 42.057143 55.885714 94.514286 55.885714 151.2 0 116.8-67.428571 214.971429-228.571428 243.314286a145.714286 145.714286 0 0 1 43.542857 104v128.571428c0.914286 10.285714 0 20.457143 17.142857 20.457143 202.4-68.228571 348.114286-259.428571 348.114286-484.685714 0-282.514286-229.028571-511.2-511.428572-511.2z"/></symbol>
  <symbol id="github_out" viewBox="0 0 1049 1024" xmlns="http://www.w3.org/2000/svg"><path d="M524.979332 0C234.676191 0 0 234.676191 0 524.979332c0 232.068678 150.366597 428.501342 358.967656 498.035028 26.075132 5.215026 35.636014-11.299224 35.636014-25.205961 0-12.168395-0.869171-53.888607-0.869171-97.347161-146.020741 31.290159-176.441729-62.580318-176.441729-62.580318-23.467619-60.841976-58.234462-76.487055-58.234463-76.487055-47.804409-32.15933 3.476684-32.15933 3.476685-32.15933 53.019436 3.476684 80.83291 53.888607 80.83291 53.888607 46.935238 79.963739 122.553122 57.365291 152.97411 43.458554 4.345855-33.897672 18.252593-57.365291 33.028501-70.402857-116.468925-12.168395-239.022047-57.365291-239.022047-259.012982 0-57.365291 20.860106-104.300529 53.888607-140.805715-5.215026-13.037566-23.467619-66.926173 5.215027-139.067372 0 0 44.327725-13.906737 144.282399 53.888607 41.720212-11.299224 86.917108-17.383422 131.244833-17.383422s89.524621 6.084198 131.244833 17.383422C756.178839 203.386032 800.506564 217.29277 800.506564 217.29277c28.682646 72.1412 10.430053 126.029806 5.215026 139.067372 33.897672 36.505185 53.888607 83.440424 53.888607 140.805715 0 201.64769-122.553122 245.975415-239.891218 259.012982 19.121764 16.514251 35.636014 47.804409 35.636015 97.347161 0 70.402857-0.869171 126.898978-0.869172 144.282399 0 13.906737 9.560882 30.420988 35.636015 25.205961 208.601059-69.533686 358.967656-265.96635 358.967655-498.035028C1049.958663 234.676191 814.413301 0 524.979332 0z" fill="#191717"/><path d="M199.040177 753.571326c-0.869171 2.607513-5.215026 3.476684-8.691711 1.738342s-6.084198-5.215026-4.345855-7.82254c0.869171-2.607513 5.215026-3.476684 8.691711-1.738342s5.215026 5.215026 4.345855 7.82254z m-6.953369-4.345856M219.900283 777.038945c-2.607513 2.607513-7.82254 0.869171-10.430053-2.607514-3.476684-3.476684-4.345855-8.691711-1.738342-11.299224 2.607513-2.607513 6.953369-0.869171 10.430053 2.607514 3.476684 4.345855 4.345855 9.560882 1.738342 11.299224z m-5.215026-5.215027M240.760389 807.459932c-3.476684 2.607513-8.691711 0-11.299224-4.345855-3.476684-4.345855-3.476684-10.430053 0-12.168395 3.476684-2.607513 8.691711 0 11.299224 4.345855 3.476684 4.345855 3.476684 9.560882 0 12.168395z m0 0M269.443034 837.011749c-2.607513 3.476684-8.691711 2.607513-13.906737-1.738342-4.345855-4.345855-6.084198-10.430053-2.607513-13.037566 2.607513-3.476684 8.691711-2.607513 13.906737 1.738342 4.345855 3.476684 5.215026 9.560882 2.607513 13.037566z m0 0M308.555733 853.526c-0.869171 4.345855-6.953369 6.084198-13.037566 4.345855-6.084198-1.738342-9.560882-6.953369-8.691711-10.430053 0.869171-4.345855 6.953369-6.084198 13.037566-4.345855 6.084198 1.738342 9.560882 6.084198 8.691711 10.430053z m0 0M351.145116 857.002684c0 4.345855-5.215026 7.82254-11.299224 7.82254-6.084198 0-11.299224-3.476684-11.299224-7.82254s5.215026-7.82254 11.299224-7.82254c6.084198 0 11.299224 3.476684 11.299224 7.82254z m0 0M391.126986 850.049315c0.869171 4.345855-3.476684 8.691711-9.560882 9.560882-6.084198 0.869171-11.299224-1.738342-12.168395-6.084197-0.869171-4.345855 3.476684-8.691711 9.560881-9.560882 6.084198-0.869171 11.299224 1.738342 12.168396 6.084197z m0 0" fill="#191717"/></symbol>
  <symbol id="guestbook" fill="none" stroke="currentColor" stroke-linecap="round" stroke-linejoin="round" stroke-width="2" viewBox="0 0 24 24" xmlns="http://www.w3.org/2000/svg"><circle cx="12" cy="12" r="4"/><path d="M16 8v5a3 3 0 0 0 6 0v-1a10 10 0 1 0-3.92 7.94"/></symbol>
  <symbol id="home-page" fill="none" stroke="currentColor" stroke-linecap="round" stroke-linejoin="round" stroke-width="2" viewBox="0 0 24 24" xmlns="http://www.w3.org/2000/svg"><path d="M3 9l9-7 9 7v11a2 2 0 0 1-2 2H5a2 2 0 0 1-2-2z"/><polyline points="9 22 9 12 15 12 15 22"/></symbol>
  <symbol id="link" viewBox="0 0 1024 1024" xmlns="http://www.w3.org/2000/svg"><path d="M563.2 672c-6.4-6.4 0 0 0 0L448 793.6c-57.6 57.6-153.6 57.6-211.2 0-57.6-57.6-64-147.2 0-211.2l121.6-121.6-6.4-6.4-38.4-32-6.4-6.4-121.6 121.6C108.8 614.4 108.8 755.2 192 832s217.6 83.2 300.8 0l121.6-121.6-6.4-6.4-44.8-32z m38.4-294.4c6.4 0 6.4 0 0 0l38.4 38.4 6.4 6.4-230.4 230.4-38.4-51.2 224-224zM531.2 192c83.2-83.2 217.6-83.2 300.8 0 83.2 83.2 83.2 217.6 0 300.8l-121.6 121.6-44.8-44.8 128-128c44.8-44.8 51.2-147.2-6.4-204.8-57.6-57.6-160-57.6-204.8-6.4l-128 128v-6.4l-38.4-38.4-6.4-6.4L531.2 192z" fill="currentColor" stroke-width="28"/></symbol>
  <symbol id="mini-menu" viewBox="0 0 32 32" xmlns="http://www.w3.org/2000/svg"><path d="M30 18h-28c-1.1 0-2-0.9-2-2s0.9-2 2-2h28c1.1 0 2 0.9 2 2s-0.9 2-2 2zM30 6.25h-28c-1.1 0-2-0.9-2-2s0.9-2 2-2h28c1.1 0 2 0.9 2 2s-0.9 2-2 2zM2 25.75h28c1.1 0 2 0.9 2 2s-0.9 2-2 2h-28c-1.1 0-2-0.9-2-2s0.9-2 2-2z"/></symbol>
  <symbol id="music" viewBox="0 0 1024 1024" xmlns="http://www.w3.org/2000/svg"><path d="M951.195857 793.868669 951.195857 107.301841c0-23.847128-14.686491-43.225477-39.304168-43.225477L374.844224 64.076364c-24.949228 0-47.865147 19.763113-47.865147 43.225477l0 591.558987c-22.512736-28.092825-64.692395-45.542242-107.262956-45.542242-84.609003 0-152.599514 68.832691-152.599514 153.442718s69.254294 153.442718 153.863297 153.442718 152.047951-68.832691 152.047951-153.442718c0-4.351098 8.18645-8.630564-2.046612-12.891611L370.981243 272.830829l537.235754 0 0 426.028976c-22.512736-28.092825-64.866357-45.542242-107.437941-45.542242-84.609003 0-152.686495 68.832691-152.686495 153.442718s69.210291 153.442718 153.820318 153.442718 151.688771-68.832691 151.688771-153.442718C953.60165 802.409183 962.452225 798.130739 951.195857 793.868669zM221.401506 916.362514c-60.430324 0-109.60121-49.170886-109.60121-109.60121s47.485501-109.60121 107.915825-109.60121c56.459896 0 107.262956 42.929742 107.262956 97.852632l0 4.780887c0 1.623987 1.889023 3.195785 2.224668 4.718465 0.014326 0.756223 0.956791 1.489934 0.956791 2.249227C330.160535 867.191628 281.832853 916.362514 221.401506 916.362514zM370.981243 228.828662 370.981243 109.346407c10.233062-0.031722 0.511653-0.042979 0.747014-0.042979l536.488741 0.107447 0 119.41881L370.981243 228.829685zM802.290479 916.362514c-60.430324 0-109.60121-49.170886-109.60121-109.60121s47.659463-109.60121 108.09081-109.60121c56.459896 0 107.437941 42.929742 107.437941 97.852632l0 15.741519c0 1.01819 1.677199 1.991354 1.810229 2.972705C906.404722 870.909299 860.370269 916.362514 802.290479 916.362514z" fill="currentColor" stroke-width="28"/></symbol>
  <symbol id="page_out" class="icon" viewBox="0 0 1024 1024" xmlns="http://www.w3.org/2000/svg"><path d="M790.08 718.08l-138.112 119.232V718.08h138.112zM198.848 132.992h627.328v516.16H617.088a34.56 34.56 0 0 0-34.816 34.432v206.528H198.848V132.992z m662.208-68.8H164.032a34.56 34.56 0 0 0-34.816 34.432v825.92a34.56 34.56 0 0 0 34.816 34.432h453.056l278.784-240.896V98.624a34.56 34.56 0 0 0-34.816-34.432z" fill="currentColor" stroke-width="28"/></symbol>
  <symbol id="search" viewBox="0 0 1024 1024" xmlns="http://www.w3.org/2000/svg"><path d="M417.383062 781.594111c-62.535265 0-124.161834-16.698311-179.426509-49.300846-81.562621-48.080042-139.525754-125.07053-163.182546-216.743416s-10.1952-187.094142 37.913495-268.656763c48.080042-81.533968 125.07053-139.497101 216.743416-163.153894 91.701538-23.77038 187.094142-10.223852 268.656763 37.884842S737.613434 246.722194 761.270227 338.394057l0 0c23.656793 91.672886 10.1952 187.094142-37.913495 268.629133-48.108694 81.562621-125.099183 139.525754-216.772069 163.182546C477.05 777.816065 447.11727 781.594111 417.383062 781.594111zM418.518932 130.511449c-24.848944 0-49.868781 3.152806-74.547857 9.54233-76.649727 19.766183-141.002384 68.214614-181.187619 136.4016-40.213887 68.186985-51.458999 147.932214-31.69384 224.553289 19.793812 76.649727 68.214614 141.002384 136.4016 181.187619 68.186985 40.212864 147.903561 51.402717 224.553289 31.69384 76.649727-19.793812 141.002384-68.214614 181.216271-136.4016 40.212864-68.158333 51.458999-147.932214 31.665187-224.553289l0 0c-19.766183-76.649727-68.186985-141.002384-136.372947-181.216271C522.317996 144.456043 470.801692 130.511449 418.518932 130.511449z"/><path d="M915.563312 953.295682c-11.161201 0-22.321378-4.260024-30.841426-12.780071l-260.307607-260.421194c-17.039072-17.039072-17.039072-44.672432 0-61.682851 17.039072-17.039072 44.64378-17.039072 61.682851 0l260.307607 260.421194c17.039072 17.039072 17.039072 44.672432 0 61.682851C937.88469 949.035658 926.723489 953.295682 915.563312 953.295682z"/></symbol>
  <symbol id="star" viewBox="0 0 1151 1024" xmlns="http://www.w3.org/2000/svg"><path d="M1056.069394 342.982943L763.905526 300.38821 633.321676 35.620955c-23.397106-47.194163-91.188723-47.794089-114.785804 0L387.952021 300.38821 95.788154 342.982943c-52.39352 7.59906-73.390924 72.191072-35.395623 109.186496l211.373859 205.974527-49.993817 290.964016c-8.998887 52.593496 46.394262 91.988624 92.788525 67.391666L575.928774 879.116638l261.367676 137.38301c46.394262 24.396983 101.787412-14.79817 92.788525-67.391666l-49.993818-290.964016 211.373859-205.974527c37.995301-36.995425 16.997898-101.587436-35.395622-109.186496zM777.103894 624.548121l47.394139 276.765772L575.928774 770.730042l-248.569259 130.583851 47.394139-276.765772-201.175121-195.975763 277.965624-40.395005 124.384617-251.968838 124.384617 251.968838 277.965623 40.395005-201.17512 195.975763z"/></symbol>
  <symbol id="views" viewBox="0 0 1024 1024" xmlns="http://www.w3.org/2000/svg"><path d="M512 160c320 0 512 352 512 352S832 864 512 864 0 512 0 512s192-352 512-352zm0 64c-225.28 0-384.128 208.064-436.8 288 52.608 79.872 211.456 288 436.8 288 225.28 0 384.128-208.064 436.8-288-52.608-79.872-211.456-288-436.8-288zm0 64a224 224 0 1 1 0 448 224 224 0 0 1 0-448zm0 64a160.192 160.192 0 0 0-160 160c0 88.192 71.744 160 160 160s160-71.808 160-160-71.744-160-160-160z" fill="currentColor"/></symbol>
  <symbol id="storage" fill="none" stroke="currentColor" stroke-linecap="round" stroke-linejoin="round" stroke-width="2" viewBox="0 0 24 24" xmlns="http://www.w3.org/2000/svg"><path d="M9 19c-5 1.5-5-2.5-7-3m14 6v-3.87a3.37 3.37 0 0 0-.94-2.61c3.14-.35 6.44-1.54 6.44-7A5.44 5.44 0 0 0 20 4.77 5.07 5.07 0 0 0 19.91 1S18.73.65 16 2.48a13.38 13.38 0 0 0-7 0C6.27.65 5.09 1 5.09 1A5.07 5.07 0 0 0 5 4.77a5.44 5.44 0 0 0-1.5 3.78c0 5.42 3.3 6.61 6.44 7A3.37 3.37 0 0 0 9 18.13V22"/></symbol>
  <symbol id="more" viewBox="0 0 1024 1024" xmlns="http://www.w3.org/2000/svg"><path d="M227.14123 413.647995c-52.14973 0-94.587262 42.439578-94.587262 94.587262 0 52.14973 42.437531 94.587262 94.587262 94.587262 52.147684 0 94.587262-42.437531 94.587262-94.587262C321.728492 456.087573 279.288914 413.647995 227.14123 413.647995z"/><path d="M510.903016 413.647995c-52.14973 0-94.587262 42.439578-94.587262 94.587262 0 52.14973 42.437531 94.587262 94.587262 94.587262 52.147684 0 94.587262-42.437531 94.587262-94.587262C605.490278 456.087573 563.051723 413.647995 510.903016 413.647995z"/><path d="M794.665825 413.647995c-52.14973 0-94.587262 42.439578-94.587262 94.587262 0 52.14973 42.437531 94.587262 94.587262 94.587262 52.147684 0 94.587262-42.437531 94.587262-94.587262C889.253086 456.087573 846.813508 413.647995 794.665825 413.647995z"/></symbol>
  <symbol id="books" viewBox="0 0 1024 1024" xmlns="http://www.w3.org/2000/svg"><path d="M227.328 975.872H92.16c-12.288 0-23.552-10.24-23.552-23.552V109.568c0-11.264 9.216-21.504 21.504-21.504h137.216c12.288 0 23.552 10.24 23.552 23.552v841.728c0 12.288-10.24 22.528-23.552 22.528z" fill="#DD365E"/><path d="M230.4 975.872c10.24 3.072 20.48-9.216 20.48-20.48V108.544c0-11.264-9.216-20.48-20.48-20.48H90.112c-11.264 0-20.48 9.216-20.48 20.48l54.272 756.736s-5.12 74.752 106.496 110.592z" fill="#FC6B79"/><path d="M206.848 100.352c17.408 0 30.72 13.312 30.72 30.72v801.792c0 17.408-13.312 30.72-30.72 30.72H112.64c-17.408 0-30.72-13.312-30.72-30.72V131.072c0-17.408 13.312-30.72 30.72-30.72h94.208m0-30.72H112.64c-33.792 0-61.44 27.648-61.44 61.44v801.792c0 33.792 27.648 61.44 61.44 61.44h94.208c33.792 0 61.44-27.648 61.44-61.44V131.072c0-33.792-26.624-61.44-61.44-61.44z" fill="#330867"/><path d="M490.496 985.088H355.328c-12.288 0-23.552-10.24-23.552-23.552V118.784c0-11.264 9.216-21.504 21.504-21.504h137.216c12.288 0 23.552 10.24 23.552 23.552V962.56c-1.024 12.288-11.264 22.528-23.552 22.528z" fill="#F9B52B"/><path d="M492.544 985.088c10.24 3.072 20.48-9.216 20.48-20.48V117.76c0-11.264-9.216-20.48-20.48-20.48H352.256c-11.264 0-20.48 9.216-20.48 20.48l54.272 756.736s-4.096 74.752 106.496 110.592z" fill="#FFE08A"/><path d="M470.016 109.568c17.408 0 30.72 13.312 30.72 30.72V942.08c0 17.408-13.312 30.72-30.72 30.72h-94.208c-17.408 0-30.72-13.312-30.72-30.72V140.288c0-17.408 13.312-30.72 30.72-30.72h94.208m0-30.72h-94.208c-33.792 0-61.44 27.648-61.44 61.44V942.08c0 33.792 27.648 61.44 61.44 61.44h94.208c33.792 0 61.44-27.648 61.44-61.44V140.288c0-33.792-27.648-61.44-61.44-61.44z" fill="#330867"/><path d="M314.368 328.704h217.088v27.648H314.368z" fill="#330867"/><path d="M953.344 931.84l-130.048 36.864c-12.288 3.072-24.576-3.072-28.672-15.36L562.176 141.312c-3.072-11.264 3.072-22.528 14.336-25.6l132.096-37.888c12.288-3.072 24.576 4.096 28.672 15.36l232.448 808.96c3.072 13.312-4.096 25.6-16.384 29.696z" fill="#66C1FF"/><path d="M714.752 89.088c4.096 0 8.192 2.048 10.24 7.168l232.448 809.984c2.048 5.12-2.048 11.264-7.168 12.288l-130.048 36.864h-3.072c-4.096 0-8.192-2.048-10.24-7.168L574.464 140.288c-1.024-3.072 0-6.144 1.024-8.192 1.024-1.024 3.072-4.096 6.144-5.12l130.048-36.864c1.024 0 2.048-1.024 3.072-1.024m0-30.72c-4.096 0-7.168 1.024-11.264 2.048L573.44 97.28c-21.504 6.144-34.816 28.672-27.648 50.176L778.24 957.44c5.12 18.432 21.504 29.696 38.912 29.696 4.096 0 7.168-1.024 11.264-2.048l130.048-36.864c21.504-6.144 34.816-28.672 27.648-50.176L754.688 88.064c-5.12-17.408-21.504-29.696-39.936-29.696z" fill="#330867"/><path d="M603.5456 348.02688l208.6912-59.84256 7.6288 26.5728-208.6912 59.8528z" fill="#330867"/><path d="M591.872 103.424l93.184-26.624 35.84 124.928-51.2-25.6c-1.024-1.024-3.072-2.048-4.096-2.048-3.072 0-7.168 2.048-9.216 5.12l-29.696 48.128-34.816-123.904z" fill="#99CAFF"/><path d="M677.888 89.088l26.624 92.16-29.696-15.36c-3.072-1.024-6.144-2.048-9.216-2.048-7.168 0-13.312 3.072-17.408 10.24l-17.408 28.672-26.624-92.16 73.728-21.504m14.336-25.6L578.56 96.256 618.496 235.52c1.024 4.096 4.096 6.144 8.192 6.144 3.072 0 5.12-1.024 7.168-4.096L665.6 184.32l55.296 27.648c1.024 1.024 2.048 1.024 4.096 1.024 5.12 0 9.216-5.12 8.192-10.24l-40.96-139.264z" fill="#330867"/></symbol>
  <symbol id="bookmark" viewBox="0 0 1024 1024" xmlns="http://www.w3.org/2000/svg"><path d="M789.333333 917.333333l-277.333333-128-277.333333 128V192c0-46.933333 38.4-85.333333 85.333333-85.333333h384c46.933333 0 85.333333 38.4 85.333333 85.333333v725.333333z" fill="#F44336"/></symbol>
  <symbol id="albums" viewBox="0 0 1024 1024" xmlns="http://www.w3.org/2000/svg"><path d="M852.4288 876.6976H230.3488c-53.3504 0-96.5632-43.2128-96.5632-96.5632V293.9392c0-53.3504 43.2128-96.5632 96.5632-96.5632h622.08c53.3504 0 96.5632 43.2128 96.5632 96.5632v486.1952c0 53.3504-43.2128 96.5632-96.5632 96.5632z" fill="#76BFFF"/><path d="M948.992 620.1856V297.0624c0-53.248-41.7792-96.6144-94.3104-99.4304 12.9536 18.7392 26.88 46.6944 26.88 80.3328v342.2208h67.4304z" fill="#659CF8"/><path d="M67.5328 431.1552c-8.4992 0-15.36-6.8608-15.36-15.36v-27.5968c0-8.4992 6.8608-15.36 15.36-15.36s15.36 6.8608 15.36 15.36v27.5968c0 8.4992-6.8608 15.36-15.36 15.36z" fill="#333333"/><path d="M948.992 773.6832v-223.0272L238.6944 843.6736c18.8416 20.3264 45.7216 33.0752 75.6224 33.0752h531.6608c56.8832-0.0512 103.0144-46.1824 103.0144-103.0656z" fill="#F58200"/><path d="M948.992 550.656l-67.4304 27.8016v153.0368c0 38.4512-6.0928 125.5424-66.816 139.7248 7.6288 2.048 14.8992 3.84 22.016 5.4784h9.216c56.9344 0 103.0656-46.1312 103.0656-103.0656v-222.976z" fill="#F46800"/><path d="M662.2208 359.2192m-70.4 0a70.4 70.4 0 1 0 140.8 0 70.4 70.4 0 1 0-140.8 0Z" fill="#ECD300"/><path d="M679.168 290.9696c6.6048 15.7184 13.568 40.3456 7.68 65.792-9.3184 40.192-45.1584 54.1696-72.96 53.5552 12.5952 11.9296 29.5936 19.3024 48.3328 19.3024 38.8608 0 70.4-31.5392 70.4-70.4 0-33.024-22.784-60.6208-53.4528-68.2496z" fill="#E8A200"/><path d="M648.8576 451.3792c-55.9616 0-101.4784-45.5168-101.4784-101.4784s45.5168-101.4784 101.4784-101.4784 101.4784 45.5168 101.4784 101.4784-45.5168 101.4784-101.4784 101.4784z m0-172.1856c-39.0144 0-70.7584 31.744-70.7584 70.7584s31.744 70.7584 70.7584 70.7584 70.7584-31.744 70.7584-70.7584-31.744-70.7584-70.7584-70.7584z" fill="#333333"/><path d="M379.5968 526.6432L133.7856 656.384V768c0 60.0576 34.1504 108.7488 95.8464 108.7488h551.1168l-343.4496-341.6064c-15.1552-15.0528-38.656-18.4832-57.7024-8.4992z" fill="#ECD300"/><path d="M780.7488 876.6976l-343.4496-341.6064c-15.104-15.0528-38.656-18.4832-57.6512-8.448l-27.136 14.336 321.3312 335.7184h106.9056z" fill="#E8A200"/><path d="M830.208 126.8224H186.3168c-73.984 0-134.144 60.16-134.144 134.144v30.0544c0 8.4992 6.8608 15.36 15.36 15.36s15.36-6.8608 15.36-15.36v-30.0544c0-57.0368 46.3872-103.424 103.424-103.424h643.8912c57.0368 0 103.424 46.3872 103.424 103.424v215.9104l-372.4288 153.6512-148.1216-151.3472c-21.3504-21.8112-55.04-26.88-81.8688-12.3392l-248.32 134.5536V479.1808c0-8.4992-6.8608-15.36-15.36-15.36s-15.36 6.8608-15.36 15.36V757.9136c0 73.984 60.16 134.144 134.144 134.144H830.2592c73.984 0 134.144-60.16 134.144-134.144V260.9152c-0.0512-73.9328-60.2112-134.0928-134.1952-134.0928zM190.6688 861.3376c-3.5328 0-7.0144-0.2048-10.4448-0.512-0.3072-0.0512-0.6144-0.0512-0.9728-0.1024-3.0208-0.3072-5.9904-0.8192-8.9088-1.3824l-2.4576-0.4608c-2.5088-0.5632-4.9664-1.1776-7.3728-1.8944l-3.1232-0.9216c-2.304-0.768-4.5568-1.5872-6.8096-2.5088-0.9728-0.3584-1.8944-0.768-2.8672-1.1776-2.3552-1.024-4.7104-2.1504-7.0144-3.3792-0.768-0.4096-1.5872-0.8192-2.3552-1.2288-2.4576-1.3824-4.8128-2.816-7.1168-4.352-0.512-0.3584-1.024-0.6656-1.4848-1.024-2.5088-1.7408-4.9664-3.5328-7.2704-5.4784l-0.7168-0.5632c-2.5088-2.0992-4.9664-4.3008-7.2704-6.6048 0-0.0512-0.0512-0.0512-0.0512-0.1024a107.34592 107.34592 0 0 1-31.5392-76.1344v-117.248l262.9632-142.4896c14.848-8.0384 33.4848-5.2224 45.312 6.8096l139.4176 142.4384 23.1936 23.6544 190.464 194.56H190.6688z m596.5312 0l-202.8032-207.2064 349.2864-144.0768v243.5072c0 59.4432-48.3328 107.776-107.776 107.776h-38.7072z" fill="#333333"/><path d="M201.5232 474.1632a12.8 12.8 0 0 1-12.8-12.8v-15.2064a12.8 12.8 0 0 1 25.6 0v15.2064a12.8 12.8 0 0 1-12.8 12.8zM201.5232 417.1776a12.8 12.8 0 0 1-12.8-12.8V299.6224c0-29.696 24.1664-53.8624 53.8624-53.8624h40.0896a12.8 12.8 0 0 1 0 25.6h-40.0896c-15.5648 0-28.2624 12.6976-28.2624 28.2624v104.7552c0 7.1168-5.7344 12.8-12.8 12.8zM615.5264 352.1536c-1.0752 0-2.2016-0.1536-3.2768-0.4096a12.84096 12.84096 0 0 1-9.1136-15.6672c5.9392-22.3232 21.3504-29.8496 23.0912-30.6176 6.4512-2.9184 14.0288 0 16.896 6.4512 2.8672 6.3488 0.1024 13.7728-6.144 16.7936-0.6144 0.3584-6.4512 3.84-9.1648 13.9776-1.4336 5.6832-6.656 9.472-12.288 9.472zM201.5232 780.8a12.8 12.8 0 0 1-12.8-12.8v-86.0672a12.8 12.8 0 0 1 25.6 0V768a12.8 12.8 0 0 1-12.8 12.8z" fill="#FFFFFF"/></symbol>
  <symbol id="storages" viewBox="0 0 1028 1024" xmlns="http://www.w3.org/2000/svg"><path d="M736.104 34.694H872.04v222.243l-135.936-81.993z" fill="#D2D5DE"/><path d="M872.04 265.568c-1.552 0-3.103-0.403-4.451-1.247l-135.937-81.993a8.584 8.584 0 0 1-4.18-7.384V34.694c0-4.755 3.877-8.631 8.631-8.631H872.04c4.753 0 8.631 3.875 8.631 8.631v222.243c0 3.103-1.688 6.003-4.385 7.52a8.695 8.695 0 0 1-4.246 1.111z m-127.306-95.512l118.675 71.608V43.325H744.734v126.731z" fill="#040000"/><path d="M83.529 322.376v627.189h860.255V322.376L521.813 51.956z" fill="#FFFFFF"/><path d="M943.784 958.196H83.529c-4.754 0-8.631-3.877-8.631-8.631V322.376c0-3 1.55-5.763 4.112-7.349L517.298 44.604c2.764-1.72 6.337-1.72 9.17 0.069l421.969 270.421a8.672 8.672 0 0 1 3.979 7.282v627.189c-0.001 4.754-3.879 8.631-8.632 8.631zM92.16 940.935h842.994V327.098L521.715 62.136 92.16 327.199v613.736z" fill="#222323"/><path d="M1011.011 319.511L523.096 10.89c-2.9-1.854-6.204-2.359-9.44-2.225-3.236-0.134-6.473 0.371-9.44 2.225L16.302 319.511c-7.619 4.822-9.979 14.834-5.191 22.319l18.138 28.726c4.788 7.518 14.768 9.709 22.386 4.855l462.02-292.237 462.022 292.237c7.619 4.854 17.665 2.663 22.386-4.855l18.204-28.726c4.721-7.485 2.43-17.497-5.256-22.319z" fill="#F6D57D"/><path d="M984.511 386.638c-4.788 0-9.439-1.383-13.485-3.944L513.655 93.39 56.253 382.693c-11.159 7.181-27.173 3.674-34.287-7.485L3.828 346.45C0.322 340.954-0.825 334.38 0.592 327.973c1.449-6.54 5.394-12.137 11.092-15.745L499.598 3.607C503.406 1.215 507.823 0 512.678 0c6.911 0 11.328 1.215 15.07 3.607l487.881 308.621a24.807 24.807 0 0 1 11.091 15.611c1.484 6.438 0.337 13.047-3.134 18.61l-18.241 28.724c-4.483 7.149-12.304 11.465-20.834 11.465zM513.655 72.959l466.64 295.169c3.474 2.225 8.363 1.213 10.452-2.158l18.24-28.76a7.36 7.36 0 0 0 0.91-5.528 7.734 7.734 0 0 0-3.474-4.855L518.478 18.172c-0.979-0.606-2.227-0.911-3.845-0.911-4.113 0-5.191 0.54-5.832 0.945L20.92 326.793c-1.787 1.147-3.034 2.9-3.472 4.924-0.439 1.92-0.101 3.843 0.944 5.461l18.138 28.758c2.125 3.304 6.979 4.382 10.452 2.192L513.655 72.959z" fill="#040000"/><path d="M9.694 948.486h1010.081" fill="#D2D5DE"/><path d="M1019.775 957.117H9.694c-4.754 0-8.631-3.877-8.631-8.631 0-4.753 3.877-8.631 8.631-8.631h1010.082c4.752 0 8.631 3.878 8.631 8.631-0.001 4.754-3.88 8.631-8.632 8.631z" fill="#040000"/><path d="M582.702 333.875c0 38.164-30.881 69.047-69.047 69.047-38.097 0-69.047-30.883-69.047-69.047 0-38.099 30.95-69.047 69.047-69.047 38.166 0 69.047 30.948 69.047 69.047z" fill="#EA5150"/><path d="M513.655 411.553c-42.816 0-77.678-34.862-77.678-77.678 0-42.818 34.862-77.678 77.678-77.678 42.818 0 77.678 34.86 77.678 77.678 0 42.815-34.859 77.678-77.678 77.678z m0-138.095c-33.309 0-60.416 27.105-60.416 60.417 0 33.309 27.107 60.416 60.416 60.416 33.311 0 60.416-27.107 60.416-60.416 0-33.311-27.105-60.417-60.416-60.417z" fill="#040000"/><path d="M844.529 948.486V512.763c0-10.789-8.768-19.555-19.556-19.555H202.405c-10.856 0-19.623 8.767-19.623 19.555v435.724h661.747z" fill="#D2D5DE"/><path d="M844.529 957.117H182.783c-4.753 0-8.631-3.877-8.631-8.631V512.763c0-15.542 12.677-28.186 28.253-28.186h622.568c15.542 0 28.187 12.644 28.187 28.186v435.724c0 4.753-3.878 8.63-8.631 8.63z m-653.115-17.262h644.485V512.763c0-6.035-4.89-10.924-10.925-10.924H202.405c-6.069 0-10.992 4.889-10.992 10.924v427.092z" fill="#040000"/><path d="M187.098 608.274h653.116" fill="#D2D5DE"/><path d="M840.214 616.905H187.098c-4.753 0-8.631-3.877-8.631-8.631 0-4.753 3.877-8.631 8.631-8.631h653.116c4.753 0 8.631 3.878 8.631 8.631 0 4.754-3.878 8.631-8.631 8.631z" fill="#040000"/><path d="M187.098 691.718h653.116" fill="#D2D5DE"/><path d="M840.214 700.349H187.098c-4.753 0-8.631-3.877-8.631-8.631 0-4.753 3.877-8.631 8.631-8.631h653.116c4.753 0 8.631 3.878 8.631 8.631 0 4.754-3.878 8.631-8.631 8.631z" fill="#040000"/><path d="M187.098 775.127h653.116" fill="#D2D5DE"/><path d="M840.214 783.758H187.098c-4.753 0-8.631-3.878-8.631-8.631 0-4.754 3.877-8.631 8.631-8.631h653.116c4.753 0 8.631 3.877 8.631 8.631 0 4.753-3.878 8.631-8.631 8.631z" fill="#040000"/><path d="M187.098 858.536h653.116" fill="#D2D5DE"/><path d="M840.214 867.167H187.098c-4.753 0-8.631-3.876-8.631-8.631 0-4.754 3.877-8.631 8.631-8.631h653.116c4.753 0 8.631 3.877 8.631 8.631 0 4.755-3.878 8.631-8.631 8.631z" fill="#040000"/></symbol>
  <symbol id="email" viewBox="0 0 1024 1024" xmlns="http://www.w3.org/2000/svg"><path d="M853.994667 341.994667l0-85.994667-341.994667 213.994667-341.994667-213.994667 0 85.994667 341.994667 212.010667zM853.994667 170.005333q34.005333 0 59.008 26.005333t25.002667 60.010667l0 512q0 34.005333-25.002667 60.010667t-59.008 26.005333l-684.010667 0q-34.005333 0-59.008-26.005333t-25.002667-60.010667l0-512q0-34.005333 25.002667-60.010667t59.008-26.005333l684.010667 0z"/></symbol>
  <symbol id="qq" viewBox="0 0 1024 1024" xmlns="http://www.w3.org/2000/svg"><path d="M824.8 613.2c-16-51.4-34.4-94.6-62.7-165.3C766.5 262.2 689.3 112 511.5 112 331.7 112 256.2 265.2 261 447.9c-28.4 70.8-46.7 113.7-62.7 165.3-34 109.5-23 154.8-14.6 155.8 18 2.2 70.1-82.4 70.1-82.4 0 49 25.2 112.9 79.8 159-26.4 8.1-85.7 29.9-71.6 53.8 11.4 19.3 196.2 12.3 249.5 6.3 53.3 6 238.1 13 249.5-6.3 14.1-23.8-45.3-45.7-71.6-53.8 54.6-46.2 79.8-110.1 79.8-159 0 0 52.1 84.6 70.1 82.4 8.5-1.1 19.5-46.4-14.5-155.8z"/></symbol>
  <symbol id="wei-xin" viewBox="0 0 1024 1024" xmlns="http://www.w3.org/2000/svg"><path d="M664.250054 368.541681c10.015098 0 19.892049 0.732687 29.67281 1.795902-26.647917-122.810047-159.358451-214.077703-310.826188-214.077703-169.353083 0-308.085774 114.232694-308.085774 259.274068 0 83.708494 46.165436 152.460344 123.281791 205.78483l-30.80868 91.730191 107.688651-53.455469c38.558178 7.53665 69.459978 15.308661 107.924012 15.308661 9.66308 0 19.230993-0.470721 28.752858-1.225921-6.025227-20.36584-9.521864-41.723264-9.521864-63.862493C402.328693 476.632491 517.908058 368.541681 664.250054 368.541681zM498.62897 285.87389c23.200398 0 38.557154 15.120372 38.557154 38.061874 0 22.846334-15.356756 38.156018-38.557154 38.156018-23.107277 0-46.260603-15.309684-46.260603-38.156018C452.368366 300.994262 475.522716 285.87389 498.62897 285.87389zM283.016307 362.090758c-23.107277 0-46.402843-15.309684-46.402843-38.156018 0-22.941502 23.295566-38.061874 46.402843-38.061874 23.081695 0 38.46301 15.120372 38.46301 38.061874C321.479317 346.782098 306.098002 362.090758 283.016307 362.090758zM945.448458 606.151333c0-121.888048-123.258255-221.236753-261.683954-221.236753-146.57838 0-262.015505 99.348706-262.015505 221.236753 0 122.06508 115.437126 221.200938 262.015505 221.200938 30.66644 0 61.617359-7.609305 92.423993-15.262612l84.513836 45.786813-23.178909-76.17082C899.379213 735.776599 945.448458 674.90216 945.448458 606.151333zM598.803483 567.994292c-15.332197 0-30.807656-15.096836-30.807656-30.501688 0-15.190981 15.47546-30.477129 30.807656-30.477129 23.295566 0 38.558178 15.286148 38.558178 30.477129C637.361661 552.897456 622.099049 567.994292 598.803483 567.994292zM768.25071 567.994292c-15.213493 0-30.594809-15.096836-30.594809-30.501688 0-15.190981 15.381315-30.477129 30.594809-30.477129 23.107277 0 38.558178 15.286148 38.558178 30.477129C806.808888 552.897456 791.357987 567.994292 768.25071 567.994292z"/></symbol>
  <symbol id="a_map" viewBox="0 0 1024 1024" xmlns="http://www.w3.org/2000/svg"><path d="M537.972364 826.228364L512 855.179636l-25.972364-28.951272a2274.606545 2274.606545 0 0 1-44.520727-52.084364 2336.116364 2336.116364 0 0 1-97.489454-125.742545 1516.218182 1516.218182 0 0 1-68.072728-102.516364C225.908364 462.731636 197.818182 392.913455 197.818182 337.454545 197.818182 163.933091 338.478545 23.272727 512 23.272727s314.181818 140.660364 314.181818 314.181818c0 55.458909-28.090182 125.277091-78.126545 208.430546a1516.218182 1516.218182 0 0 1-68.072728 102.516364 2336.116364 2336.116364 0 0 1-97.466181 125.742545 2274.606545 2274.606545 0 0 1-44.544 52.084364z m-9.216-96.628364a2267.461818 2267.461818 0 0 0 94.533818-121.949091 1447.726545 1447.726545 0 0 0 64.930909-97.745454c43.985455-73.076364 68.142545-133.166545 68.142545-172.45091C756.363636 202.496 646.958545 93.090909 512 93.090909S267.636364 202.496 267.636364 337.454545c0 39.284364 24.180364 99.374545 68.142545 172.45091a1447.726545 1447.726545 0 0 0 64.930909 97.745454A2267.461818 2267.461818 0 0 0 512 749.591273c5.352727-6.283636 10.938182-12.986182 16.756364-20.014546zM888.226909 605.090909H861.090909a34.909091 34.909091 0 0 1 0-69.818182h58.181818c17.687273 0 32.581818 13.265455 34.676364 30.836364l46.545454 395.636364A34.909091 34.909091 0 0 1 965.818182 1000.727273h-907.636364a34.909091 34.909091 0 0 1-34.676363-38.981818l46.545454-395.636364A34.909091 34.909091 0 0 1 104.727273 535.272727H162.909091a34.909091 34.909091 0 0 1 0 69.818182H135.773091L97.442909 930.909091h829.114182l-38.330182-325.818182zM512 453.818182a128 128 0 1 1 0-256 128 128 0 0 1 0 256z m0-69.818182a58.181818 58.181818 0 1 0 0-116.363636 58.181818 58.181818 0 0 0 0 116.363636z"/></symbol>
  <symbol id="weather" viewBox="0 0 1024 1024" xmlns="http://www.w3.org/2000/svg"><path d="M512 223.361137c16.954137 0 30.699186-13.745049 30.699186-30.699186L542.699186 94.429673c0-16.954137-13.745049-30.699186-30.699186-30.699186s-30.699186 13.745049-30.699186 30.699186l0 98.232279C481.300814 209.617112 495.04484 223.361137 512 223.361137z"/><path d="M264.485767 307.901579c5.994528 5.995551 13.850449 8.991792 21.707394 8.991792 7.855922 0 15.71389-2.998287 21.707394-8.991792 11.989055-11.989055 11.989055-31.426757 0-43.414789l-69.459978-69.461001c-11.988032-11.989055-31.426757-11.989055-43.414789 0-11.989055 11.989055-11.989055 31.426757 0 43.414789L264.485767 307.901579z"/><path d="M94.429673 542.698163l98.232279 0c16.954137 0 30.699186-13.744026 30.699186-30.699186s-13.745049-30.699186-30.699186-30.699186l-98.232279 0c-16.954137 0-30.699186 13.745049-30.699186 30.699186S77.475536 542.698163 94.429673 542.698163z"/><path d="M800.63784 512c0 16.954137 13.745049 30.699186 30.699186 30.699186l98.232279 0c16.954137 0 30.699186-13.744026 30.699186-30.699186s-13.745049-30.699186-30.699186-30.699186l-98.232279 0C814.382888 481.300814 800.63784 495.04484 800.63784 512z"/><path d="M737.805816 316.89337c7.856945 0 15.712867-2.997264 21.707394-8.991792l69.461001-69.461001c11.989055-11.989055 11.989055-31.426757 0-43.415812-11.988032-11.989055-31.426757-11.989055-43.414789 0l-69.461001 69.461001c-11.989055 11.989055-11.989055 31.426757 0 43.415812C722.091926 313.896106 729.948871 316.89337 737.805816 316.89337z"/><path d="M824.811402 636.81368c-4.625344-50.765197-24.583908-98.751095-57.501622-137.949862-3.197832-63.572898-29.557176-122.878608-74.978668-168.08009-48.234561-47.999201-112.277156-74.43427-180.329065-74.43427-68.288293 0-132.488477 26.592658-180.774203 74.878384-48.285726 48.28675-74.878384 112.486934-74.878384 180.774203 0 6.978948 0.300852 13.957897 0.865717 20.906146-17.141402 6.476505-32.683377 16.902972-45.360094 30.66951-19.584034 21.267373-30.651091 48.705282-31.338752 77.54512-28.018124 9.185196-53.315276 25.775037-73.081459 48.26219-26.650987 30.318516-41.328267 69.264527-41.328267 109.664655 0 91.629907 74.610278 166.175717 166.317956 166.175717l559.799656 0c43.736107 0 85.134982-17.198707 116.570949-48.425919 31.658024-31.448246 49.093115-73.135694 49.093115-117.380384 0-43.585681-16.817014-84.754313-47.351448-115.923196C886.962927 659.431817 857.222579 643.363863 824.811402 636.81368zM512.00307 317.748854c51.708686 0 100.369965 20.085454 137.019677 56.55711 18.577101 18.48705 32.961716 40.08188 42.660612 63.612807-4.607948-2.412956-9.302877-4.689812-14.08274-6.828522-32.242332-14.422478-66.62849-21.735024-102.204753-21.735024-92.582605 0-176.346357 50.889017-219.72226 130.127709-11.594059-6.268774-24.205285-10.57587-37.370119-12.701277-0.370437-4.910846-0.555655-9.843182-0.555655-14.777565C317.748854 404.89054 404.89054 317.748854 512.00307 317.748854zM865.523639 873.241414c-19.854187 19.723204-45.887097 30.586622-73.299423 30.586622l-559.799656 0c-57.852616 0-104.919585-47.003524-104.919585-104.777345 0-52.106752 38.842657-96.722902 90.349751-103.780645 8.607028-1.179872 16.311501-5.950526 21.202904-13.130042 4.891404-7.18054 6.512321-16.095583 4.459568-24.537859-1.086751-4.470825-1.638313-9.051143-1.638313-13.613042 0-14.431687 5.377474-28.216645 15.140839-38.820144 9.713222-10.54824 22.880103-17.042141 37.07643-18.285458 0.022513-0.002047 0.045025-0.00614 0.068562-0.008186 0.016373-0.001023 0.031722-0.002047 0.048095-0.00307 1.598404-0.146333 3.281743-0.220011 5.002944-0.220011 17.323551 0 33.540907 7.711636 44.493354 21.158902 5.888104 7.227612 14.665001 11.311627 23.799032 11.311627 1.789763 0 3.593851-0.156566 5.392824-0.477884 10.975982-1.957585 20.027126-9.711176 23.64656-20.25737 26.200732-76.342736 98.074689-127.634936 178.847318-127.634936 26.879184 0 52.831252 5.51255 77.134775 16.383132 23.502273 10.512425 44.313252 25.480324 61.853743 44.48926 0.00307 0.004093 0.007163 0.007163 0.010233 0.010233 32.279171 34.982746 50.057069 80.465636 50.057069 128.070864 0 0.937348 0.021489 1.852184 0.045025 2.761903 0.010233 0.38374 0.027629 0.76441 0.021489 1.152243-0.339738 16.871249 13.000082 30.853705 29.868261 31.308053 27.41642 0.73678 53.090149 11.935843 72.290443 31.534204 19.22383 19.62292 29.811979 45.532009 29.811979 72.955592C896.489908 827.187519 885.492436 853.404624 865.523639 873.241414z"/></symbol>
</svg>
