<svg>
    <symbol id="about" fill="none" stroke="currentColor" stroke-linecap="round"
            stroke-linejoin="round" stroke-width="2" viewBox="0 0 24 24" xmlns="http://www.w3.org/2000/svg">
        <path d="M18 8h1a4 4 0 0 1 0 8h-1"/>
        <path d="M2 8h16v9a4 4 0 0 1-4 4H6a4 4 0 0 1-4-4V8z"/>
        <line x1="6" x2="6" y1="1" y2="4"/>
        <line x1="10" x2="10" y1="1" y2="4"/>
        <line x1="14" x2="14" y1="1" y2="4"/>
    </symbol>
    <symbol id="action1" fill="none" stroke="currentColor" stroke-width="2" viewBox="0 0 24 24" xmlns="http://www.w3.org/2000/svg">
        <polyline points="22 12 18 12 15 21 9 3 6 12 2 12"/>
    </symbol>
    <symbol id="album" fill="none" stroke="currentColor" stroke-linecap="round"
            stroke-linejoin="round" stroke-width="2" viewBox="0 0 24 24" xmlns="http://www.w3.org/2000/svg">
        <rect height="18" rx="2" ry="2" width="18" x="3" y="3"/>
        <circle cx="8.5" cy="8.5" r="1.5"/>
        <polyline points="21 15 16 10 5 21"/>
    </symbol>
    <symbol id="archive" fill="none" stroke="currentColor" stroke-linecap="round"
            stroke-linejoin="round" stroke-width="2" viewBox="0 0 24 24" xmlns="http://www.w3.org/2000/svg">
        <polyline points="21 8 21 21 3 21 3 8"/>
        <rect height="5" width="22" x="1" y="3"/>
        <line x1="10" x2="14" y1="12" y2="12"/>
    </symbol>
    <symbol id="arrow-down" viewBox="0 0 32 32" xmlns="http://www.w3.org/2000/svg">
        <path
            d="M15.992 25.304c-0 0-0 0-0.001 0-0.516 0-0.981-0.216-1.31-0.563l-0.001-0.001-14.187-14.996c-0.306-0.323-0.494-0.76-0.494-1.241 0-0.998 0.809-1.807 1.807-1.807 0.517 0 0.983 0.217 1.313 0.565l0.001 0.001 12.875 13.612 12.886-13.612c0.331-0.348 0.797-0.565 1.314-0.565 0.481 0 0.918 0.187 1.242 0.493l-0.001-0.001c0.723 0.687 0.755 1.832 0.072 2.555l-14.201 14.996c-0.33 0.348-0.795 0.564-1.311 0.564-0.001 0-0.003 0-0.004 0h0z"/>
    </symbol>
    <symbol id="article" viewBox="0 0 1024 1024" xmlns="http://www.w3.org/2000/svg">
        <path
            d="M930.36339 92.946902c-18.975167-18.975167-44.166919-29.426193-70.939679-29.426193l-736.175689 0.468674-0.12689 148.804071H64.021106v51.27685h59.057047l-0.106424 125.070531H64.021106v51.27685h58.908668l-0.107448 124.746142H64.021106v51.27685h58.757218l-0.106424 125.07053H64.019059v51.276851h58.607816l-0.141216 165.513637 736.941122-0.687661c55.338353 0 100.359732-45.02138 100.359732-100.359732V163.881464c0-26.767644-10.44898-51.959396-29.423123-70.934562z m-20.675902 70.936609v693.371814c0 27.713178-22.545482 50.258661-50.260707 50.258661l-73.241095 0.019442V113.658619L859.427804 113.62178c27.713178 0 50.259684 22.547529 50.259684 50.261731zM170.417321 741.511207l0.23536-125.07053h66.537416v-51.27685h-66.440201l0.236383-124.746142h66.204841v-51.27685h-66.10865l0.236384-125.070531h65.87022v-51.27685h-65.775053l0.186242-98.825796 564.484352-0.283456v793.863553l-565.982472 0.150426 0.218987-114.910123h66.86999V741.511207h-66.773799z"
            fill="currentColor" stroke-width="28"/>
    </symbol>
    <symbol id="article1" viewBox="0 0 24 24" xmlns="http://www.w3.org/2000/svg" fill="none" stroke="currentColor" stroke-width="2">
        <circle cx="12" cy="8" r="7"/>
        <polyline points="8.21 13.89 7 23 12 20 17 23 15.79 13.88"/>
    </symbol>
    <symbol id="backTop" viewBox="0 0 1024 1024" xmlns="http://www.w3.org/2000/svg">
        <path
            d="M523.6736 71.850667a23.1424 23.1424 0 0 0-24.746667 0c-110.592 70.724267-183.876267 196.4032-183.876266 339.7632 0 20.0704 1.399467 40.1408 4.676266 60.2112a24.507733 24.507733 0 0 1-3.2768 16.247466A318.634667 318.634667 0 0 0 273.066667 650.069333c0 26.760533 3.2768 53.521067 9.796266 79.325867a23.4496 23.4496 0 0 0 44.3392 3.822933 306.653867 306.653867 0 0 1 61.1328-88.8832c1.877333 2.389333 3.754667 5.256533 5.597867 8.123734 39.2192 2.8672 78.404267 4.778667 118.0672 4.778666 39.185067 0 78.848-1.4336 118.0672-4.778666 1.877333-2.389333 3.754667-5.256533 5.597867-8.123734a306.688 306.688 0 0 1 61.1328 88.8832 23.4496 23.4496 0 0 0 44.3392-3.822933c6.519467-25.8048 9.796267-52.565333 9.796266-79.325867 0-59.733333-16.349867-115.643733-43.383466-161.9968a24.507733 24.507733 0 0 1-3.2768-16.247466c2.798933-20.0704 4.676267-40.1408 4.676266-60.2112-0.955733-143.36-74.205867-269.038933-185.275733-339.7632z m67.208533 299.144533c0 44.919467-35.498667 81.237333-79.36 81.237333-43.861333 0-79.325867-36.317867-79.325866-81.237333 0-44.919467 35.498667-81.237333 79.325866-81.237333 43.861333 0.477867 79.36 36.795733 79.36 81.237333z"
            fill="#0dafbb"/>
        <path
            d="M464.213333 730.453333c0 36.420267 21.333333 225.28 47.786667 225.28 26.453333 0 47.786667-188.859733 47.786667-225.28 0-36.352-21.333333-65.7408-47.786667-65.7408-26.453333 0.477867-47.786667 29.9008-47.786667 65.774934z"
            fill="#0dafbb"/>
    </symbol>
    <symbol id="bilibili" viewBox="0 0 1024 1024" xmlns="http://www.w3.org/2000/svg">
        <path
            d="M1019.54782609 345.3106087c-3.20556522-142.1133913-127.15408696-169.36069565-127.15408696-169.36069566s-96.70121739-0.53426087-222.25252174-1.60278261l91.3586087-88.15304347s14.42504348-18.16486957-10.15095652-38.46678261c-24.576-20.30191304-26.17878261-11.21947826-34.72695653-5.87686957-7.47965217 5.3426087-117.00313043 112.72904348-136.23652174 131.96243479-49.68626087 0-101.50956522-0.53426087-151.73008695-0.53426087h17.63060869S315.392 43.98747826 306.84382609 38.1106087s-9.61669565-14.42504348-34.72695652 5.87686956c-24.576 20.30191304-10.15095652 38.46678261-10.15095653 38.46678261l93.49565218 90.82434783c-101.50956522 0-189.12834783 0.53426087-229.73217392 2.13704347C-5.69878261 213.34817391 4.45217391 345.3106087 4.45217391 345.3106087s1.60278261 283.15826087 0 426.34017391c14.42504348 143.18191304 124.48278261 166.15513043 124.48278261 166.15513043s43.8093913 1.06852174 76.39930435 1.06852174c3.20556522 9.08243478 5.87686957 53.96034783 56.0973913 53.96034783 49.68626087 0 56.0973913-53.96034783 56.09739131-53.96034783s365.96869565-1.60278261 396.42156522-1.60278261c1.60278261 15.49356522 9.08243478 56.63165217 59.30295652 56.09739131 49.68626087-1.06852174 53.42608696-59.30295652 53.42608695-59.30295652s17.09634783-1.60278261 67.85113044 0c118.60591304-21.90469565 125.55130435-160.81252174 125.55130435-160.81252174s-2.13704348-285.82956522-0.53426087-427.94295652z m-102.04382609 453.05321739c0 22.43895652-17.6306087 40.60382609-39.53530435 40.60382608h-721.25217391c-21.90469565 0-39.53530435-18.16486957-39.53530435-40.60382608V320.20034783c0-22.43895652 17.6306087-40.60382609 39.53530435-40.60382609h721.25217391c21.90469565 0 39.53530435 18.16486957 39.53530435 40.60382609v478.16347826z"
            fill="#1296db"/>
        <path
            d="M409.088 418.816l-203.264 38.912 17.408 76.288 201.216-38.912zM518.656 621.056c-49.664 106.496-94.208 26.112-94.208 26.112l-33.28 21.504s65.536 89.6 128 21.504c73.728 68.096 130.048-22.016 130.048-22.016l-30.208-19.456c0-0.512-52.736 75.776-100.352-27.648zM619.008 495.104l201.728 38.912 16.896-76.288-202.752-38.912z"
            fill="#1296db"/>
    </symbol>
    <symbol id="bookmarks" viewBox="0 0 1024 1024" xmlns="http://www.w3.org/2000/svg">
        <path
            d="M256 128v698.88l196.032-156.864a96 96 0 0 1 119.936 0L768 826.816V128H256zm-32-64h576a32 32 0 0 1 32 32v797.44a32 32 0 0 1-51.968 24.96L531.968 720a32 32 0 0 0-39.936 0L243.968 918.4A32 32 0 0 1 192 893.44V96a32 32 0 0 1 32-32z"
            fill="currentColor"/>
    </symbol>
    <symbol id="classify" viewBox="0 0 1026 1024" xmlns="http://www.w3.org/2000/svg">
        <path
            d="M931.571183 1023.943658 641.471385 1023.943658c-51.60138 0-93.398472-65.628416-93.398472-117.229796L548.072913 641.506393c0-51.572603 41.797092-93.403477 93.398472-93.403477l290.098547 0c51.537569 0 93.398472 41.832125 93.398472 93.403477l0 289.038793C1024.969655 982.146566 983.108752 1023.943658 931.571183 1023.943658L931.571183 1023.943658zM976.990457 644.869579c0-26.32869-21.362736-47.662649-47.662649-47.662649L643.393205 597.206931c-26.294908 0-47.662649 21.333959-47.662649 47.662649l0 285.934603c0 26.294908 21.367741 47.657644 47.662649 47.657644l285.934603 0c26.299913 0 47.662649-21.362736 47.662649-47.657644L976.990457 644.869579 976.990457 644.869579zM931.571183 475.904526 641.471385 475.904526c-51.60138 0-93.398472-65.657194-93.398472-117.258574L548.072913 93.43348c0-51.567598 41.797092-93.433505 93.398472-93.433505l290.098547 0c51.537569 0 93.398472 41.865907 93.398472 93.433505l0 289.043798C1024.969655 434.073652 983.108752 475.904526 931.571183 475.904526L931.571183 475.904526zM976.990457 96.795414c0-26.298662-21.362736-47.661398-47.662649-47.661398L643.393205 49.134018c-26.294908 0-47.662649 21.362736-47.662649 47.661398l0 285.935854c0 26.32869 21.367741 47.661398 47.662649 47.661398l285.934603 0c26.299913 0 47.662649-21.332708 47.662649-47.661398L976.990457 96.795414 976.990457 96.795414zM383.49827 1023.943658 93.433505 1023.943658C41.797092 1023.943658 0 958.315242 0 906.713862L0 641.506393c0-51.572603 41.797092-93.403477 93.433505-93.403477l290.064764 0c51.572603 0 93.433505 41.832125 93.433505 93.403477l0 289.038793C476.901746 982.146566 435.070872 1023.943658 383.49827 1023.943658L383.49827 1023.943658zM428.917544 644.869579c0-26.32869-21.328954-47.662649-47.657644-47.662649L95.325297 597.206931c-26.299913 0-47.662649 21.333959-47.662649 47.662649l0 285.934603c0 26.294908 21.362736 47.657644 47.662649 47.657644l285.934603 0c26.32869 0 47.657644-21.362736 47.657644-47.657644L428.917544 644.869579 428.917544 644.869579zM383.49827 475.904526 93.433505 475.904526C41.797092 475.904526 0 410.247332 0 358.645953L0 93.43348c0-51.567598 41.797092-93.433505 93.433505-93.433505l290.064764 0c51.572603 0 93.433505 41.832125 93.433505 93.433505l0 289.043798C476.901746 434.073652 435.070872 475.904526 383.49827 475.904526L383.49827 475.904526zM428.917544 96.795414c0-26.298662-21.328954-47.661398-47.657644-47.661398L95.325297 49.134018c-26.299913 0-47.662649 21.362736-47.662649 47.661398l0 285.935854c0 26.32869 21.362736 47.661398 47.662649 47.661398l285.934603 0c26.32869 0 47.657644-21.332708 47.657644-47.661398L428.917544 96.795414 428.917544 96.795414zM428.917544 96.795414"
            fill="currentColor" stroke-width="28"/>
    </symbol>
    <symbol id="click" viewBox="0 0 1024 1024" xmlns="http://www.w3.org/2000/svg">
        <path
            d="M836.294944 346.540597h-2.541893c-18.721387 0-34.07712 5.369288-48.860824 14.532995-12.958126-37.764092-45.890166-64.969711-88.308255-64.96971-18.721387 0-36.619012 5.369288-51.402717 14.532994-12.958126-37.765115-45.890166-64.968687-88.344071-64.968687-16.537651 0-31.930223 4.152577-45.532009 11.419074v-97.185436c0-52.941769-40.055275-95.825462-93.355201-95.825463s-96.540753 42.919509-96.540753 95.825463v372.06083l-58.597583-58.382688c-37.693484-37.44175-104.416118-32.108279-136.524397 0-32.109302 32.109302-53.156664 96.684016-7.194866 142.68163l269.613554 267.823791c5.548366 5.51255 11.669784 10.130731 18.11252 14.031575 49.14735 40.09109 105.490589 63.823608 224.582965 63.823607 272.082792 0 297.283754-146.798391 297.283753-327.852979v-191.685717c-0.037862-52.941769-39.054481-95.861278-92.390223-95.861279m41.522696 287.51118c0 153.205311-0.716314 277.417287-246.454088 277.417287-104.093776 0-166.593226-23.195282-213.950814-70.231551L162.188916 587.697029c-22.586414-22.586414-16.894785-51.438533 1.574868-69.945025 18.470677-18.470677 52.404534-19.114336 70.266344-1.39579 0 0 44.780903 44.494377 83.368756 82.867336a83728.374434 83728.374434 0 0 0 54.838979 54.516638V169.996742c0-25.056676 20.475334-45.388746 45.746903-45.388746 25.27157 0 42.525536 20.332071 42.525536 45.388746v307.699988h0.50142a25.933649 25.933649 0 0 0-0.50142 5.046946c0 13.924127 11.383258 25.235754 25.414833 25.235754 14.031575 0 25.414833-11.275811 25.414833-25.235754 0-1.718131-0.179079-3.400446-0.501421-5.046946h0.501421V351.588567c0-25.056676 18.255783-45.388746 43.527352-45.388746 0 0 44.744064-0.608867 44.744063 45.388746v166.449963h0.501421a25.933649 25.933649 0 0 0-0.501421 5.046946c0 13.925151 11.383258 25.235754 25.414833 25.235754 14.031575 0 25.414833-11.275811 25.414833-25.235754 0-1.718131-0.179079-3.400446-0.50142-5.046946h0.50142V402.02426c0-25.056676 17.969257-45.388746 43.240827-45.388747 0 0 45.675272 2.864234 45.675272 45.388747V548.32123h0.50142a25.933649 25.933649 0 0 0-0.50142 5.046946c0 13.924127 11.383258 25.235754 25.414833 25.235755 14.031575 0 24.77015-11.275811 24.770149-25.235755 0-1.718131-0.179079-3.400446-0.465604-5.046946h0.465604v-99.869568c0-25.057699 18.828834-45.388746 44.100404-45.388747 0 0 44.279483-1.789763 44.279483 45.388747v185.601138h-0.104377M283.715737 302.798351"/>
    </symbol>
    <symbol id="close" viewBox="0 0 20 20" xmlns="http://www.w3.org/2000/svg">
        <path
            d="M18.362 19.324c-0.902 0.902-2.363 0.902-3.263 0l-5.098-5.827-5.098 5.825c-0.902 0.902-2.363 0.902-3.263 0-0.902-0.902-0.902-2.363 0-3.263l5.304-6.057-5.306-6.061c-0.902-0.902-0.902-2.361 0-3.263s2.361-0.902 3.263 0l5.1 5.829 5.098-5.829c0.902-0.902 2.361-0.902 3.263 0s0.902 2.363 0 3.263l-5.304 6.061 5.304 6.057c0.902 0.902 0.902 2.363 0 3.265z"/>
    </symbol>
    <symbol id="comment" viewBox="0 0 1024 1024" xmlns="http://www.w3.org/2000/svg">
        <path
            d="M273.536 736H800a64 64 0 0 0 64-64V256a64 64 0 0 0-64-64H224a64 64 0 0 0-64 64v570.88L273.536 736zM296 800 147.968 918.4A32 32 0 0 1 96 893.44V256a128 128 0 0 1 128-128h576a128 128 0 0 1 128 128v416a128 128 0 0 1-128 128H296z"
            fill="currentColor"/>
        <path
            d="M512 499.2a51.2 51.2 0 1 1 0-102.4 51.2 51.2 0 0 1 0 102.4zm192 0a51.2 51.2 0 1 1 0-102.4 51.2 51.2 0 0 1 0 102.4zm-384 0a51.2 51.2 0 1 1 0-102.4 51.2 51.2 0 0 1 0 102.4z"
            fill="currentColor"/>
    </symbol>
    <symbol id="date" viewBox="0 0 1024 1024" xmlns="http://www.w3.org/2000/svg">
        <path
            d="M128 384v512h768V192H768v32a32 32 0 1 1-64 0v-32H320v32a32 32 0 0 1-64 0v-32H128v128h768v64H128zm192-256h384V96a32 32 0 1 1 64 0v32h160a32 32 0 0 1 32 32v768a32 32 0 0 1-32 32H96a32 32 0 0 1-32-32V160a32 32 0 0 1 32-32h160V96a32 32 0 0 1 64 0v32zm-32 384h64a32 32 0 0 1 0 64h-64a32 32 0 0 1 0-64zm0 192h64a32 32 0 1 1 0 64h-64a32 32 0 1 1 0-64zm192-192h64a32 32 0 0 1 0 64h-64a32 32 0 0 1 0-64zm0 192h64a32 32 0 1 1 0 64h-64a32 32 0 1 1 0-64zm192-192h64a32 32 0 1 1 0 64h-64a32 32 0 1 1 0-64zm0 192h64a32 32 0 1 1 0 64h-64a32 32 0 1 1 0-64z"
            fill="currentColor"/>
    </symbol>
    <symbol id="date1" viewBox="0 0 24 24" xmlns="http://www.w3.org/2000/svg" fill="none" stroke="currentColor" stroke-width="2">
        <rect height="18" rx="2" ry="2" width="18" x="3" y="4"/>
        <line x1="16" x2="16" y1="2" y2="6"/>
        <line x1="8" x2="8" y1="2" y2="6"/>
        <line x1="3" x2="21" y1="10" y2="10"/>
    </symbol>
    <symbol id="date-color" viewBox="0 0 1024 1024" xmlns="http://www.w3.org/2000/svg">
        <path
            d="M762.8 71.1c-16-11.6-38.6-8.1-50.3 7.9L504.2 365.5 295.8 79c-11.6-16-34.3-19.6-50.3-7.9-16 11.6-19.6 34.3-7.9 50.3L461 428.5c-4.2 14.2 0.6 30.1 13.2 39.3 9 6.5 19.9 8.1 30 5.6 10 2.5 21 0.9 30-5.6 12.6-9.2 17.4-25.1 13.2-39.3l223.4-307.2c11.6-16 8-38.6-8-50.2z"
            fill="#FB813A"/>
        <path
            d="M861.7 182.1H162.3c-33.8 0-61.1 27.4-61.1 61.1v655.4c0 33.8 27.4 61.1 61.1 61.1h699.5c33.8 0 61.1-27.4 61.1-61.1V243.2c0-33.8-27.4-61.1-61.2-61.1z"
            fill="#FDDE80"/>
        <path d="M781.1 863.2H242.9c-21.5 0-39-17.5-39-39v-399c0-21.5 17.5-39 39-39h538.3c21.5 0 39 17.5 39 39v398.9c0 21.6-17.5 39.1-39.1 39.1z"
              fill="#FFFFFF"/>
        <path
            d="M398.9 480.3H297c-5.2 0-9.4 4.2-9.4 9.4v101.9c0 5.2 4.2 9.4 9.4 9.4h102c5.2 0 9.4-4.2 9.4-9.4V489.7c-0.1-5.2-4.3-9.4-9.5-9.4zM563 480.3H461c-5.2 0-9.4 4.2-9.4 9.4v101.9c0 5.2 4.2 9.4 9.4 9.4h102c5.2 0 9.4-4.2 9.4-9.4V489.7c0-5.2-4.2-9.4-9.4-9.4zM727.1 480.3h-102c-5.2 0-9.3 4.2-9.3 9.3v102c0 5.2 4.2 9.4 9.4 9.4h102c5.2 0 9.3-4.2 9.3-9.3v-102c-0.1-5.2-4.3-9.4-9.4-9.4zM398.9 665.8h-102c-5.2 0-9.3 4.2-9.3 9.3v102c0 5.2 4.2 9.4 9.4 9.4h102c5.2 0 9.3-4.2 9.3-9.3v-102c0-5.2-4.2-9.4-9.4-9.4zM563 665.8H461c-5.2 0-9.4 4.2-9.4 9.4v101.9c0 5.2 4.2 9.4 9.4 9.4h102c5.2 0 9.4-4.2 9.4-9.4V675.2c0-5.2-4.2-9.4-9.4-9.4z"
            fill="#FB813A"/>
        <path d="M625.1 786.5h102c5.2 0 9.4-4.2 9.4-9.4V675.2c0-5.2-4.2-9.4-9.4-9.4h-102c-5.2 0-9.4 4.2-9.4 9.4v101.9c0 5.2 4.2 9.4 9.4 9.4z" fill="#9289F0"/>
    </symbol>
    <symbol id="fork" viewBox="0 0 1024 1024" xmlns="http://www.w3.org/2000/svg">
        <path
            d="M896.035413 128a128 128 0 1 0-164.010666 122.88V378.453333l-220.288 220.16-220.202667-220.16V251.008A128.042667 128.042667 0 0 0 256.035413 0a128 128 0 0 0-36.48 250.709333v156.885334l-0.298666 0.298666 256.768 256.810667v108.373333A128.085333 128.085333 0 0 0 512.035413 1024a128 128 0 0 0 36.010667-250.88v-108.928L804.30208 407.893333l-0.298667-0.298666V250.88A128.085333 128.085333 0 0 0 896.035413 128zM200.01408 128a56.021333 56.021333 0 1 1 112.085333 0.085333A56.021333 56.021333 0 0 1 200.01408 128z m368.042667 768a56.021333 56.021333 0 1 1-112.085334-0.085333 56.021333 56.021333 0 0 1 112.085334 0.085333zM768.035413 183.978667a56.021333 56.021333 0 1 1 0.085334-112.042667A56.021333 56.021333 0 0 1 768.035413 184.021333z"/>
    </symbol>
    <symbol id="gitee" viewBox="0 0 1024 1024" xmlns="http://www.w3.org/2000/svg">
        <path
            d="M512 0C230.4 0 0 230.4 0 512s230.4 512 512 512 512-230.4 512-512S793.6 0 512 0z m284.8 313.6c0 12.8-12.8 25.6-25.6 25.6H416c-41.6 0-76.8 35.2-76.8 76.8v243.2c0 12.8 12.8 25.6 25.6 25.6h240c41.6 0 76.8-35.2 76.8-76.8v-12.8c0-12.8-12.8-25.6-25.6-25.6H480c-12.8 0-25.6-12.8-25.6-25.6v-64c0-12.8 12.8-25.6 25.6-25.6h291.2c12.8 0 25.6 12.8 25.6 25.6v144c0 92.8-76.8 169.6-169.6 169.6H252.8c-12.8 0-25.6-12.8-25.6-25.6V412.8C227.2 310.4 310.4 224 416 224h355.2c12.8 0 25.6 12.8 25.6 25.6v64z"
            fill="#B32225"/>
    </symbol>
    <symbol id="github" viewBox="0 0 1049 1024" xmlns="http://www.w3.org/2000/svg">
        <path
            d="M524.979332 0C234.676191 0 0 234.676191 0 524.979332c0 232.068678 150.366597 428.501342 358.967656 498.035028 26.075132 5.215026 35.636014-11.299224 35.636014-25.205961 0-12.168395-0.869171-53.888607-0.869171-97.347161-146.020741 31.290159-176.441729-62.580318-176.441729-62.580318-23.467619-60.841976-58.234462-76.487055-58.234463-76.487055-47.804409-32.15933 3.476684-32.15933 3.476685-32.15933 53.019436 3.476684 80.83291 53.888607 80.83291 53.888607 46.935238 79.963739 122.553122 57.365291 152.97411 43.458554 4.345855-33.897672 18.252593-57.365291 33.028501-70.402857-116.468925-12.168395-239.022047-57.365291-239.022047-259.012982 0-57.365291 20.860106-104.300529 53.888607-140.805715-5.215026-13.037566-23.467619-66.926173 5.215027-139.067372 0 0 44.327725-13.906737 144.282399 53.888607 41.720212-11.299224 86.917108-17.383422 131.244833-17.383422s89.524621 6.084198 131.244833 17.383422C756.178839 203.386032 800.506564 217.29277 800.506564 217.29277c28.682646 72.1412 10.430053 126.029806 5.215026 139.067372 33.897672 36.505185 53.888607 83.440424 53.888607 140.805715 0 201.64769-122.553122 245.975415-239.891218 259.012982 19.121764 16.514251 35.636014 47.804409 35.636015 97.347161 0 70.402857-0.869171 126.898978-0.869172 144.282399 0 13.906737 9.560882 30.420988 35.636015 25.205961 208.601059-69.533686 358.967656-265.96635 358.967655-498.035028C1049.958663 234.676191 814.413301 0 524.979332 0z"
            fill="#191717"/>
        <path
            d="M199.040177 753.571326c-0.869171 2.607513-5.215026 3.476684-8.691711 1.738342s-6.084198-5.215026-4.345855-7.82254c0.869171-2.607513 5.215026-3.476684 8.691711-1.738342s5.215026 5.215026 4.345855 7.82254z m-6.953369-4.345856M219.900283 777.038945c-2.607513 2.607513-7.82254 0.869171-10.430053-2.607514-3.476684-3.476684-4.345855-8.691711-1.738342-11.299224 2.607513-2.607513 6.953369-0.869171 10.430053 2.607514 3.476684 4.345855 4.345855 9.560882 1.738342 11.299224z m-5.215026-5.215027M240.760389 807.459932c-3.476684 2.607513-8.691711 0-11.299224-4.345855-3.476684-4.345855-3.476684-10.430053 0-12.168395 3.476684-2.607513 8.691711 0 11.299224 4.345855 3.476684 4.345855 3.476684 9.560882 0 12.168395z m0 0M269.443034 837.011749c-2.607513 3.476684-8.691711 2.607513-13.906737-1.738342-4.345855-4.345855-6.084198-10.430053-2.607513-13.037566 2.607513-3.476684 8.691711-2.607513 13.906737 1.738342 4.345855 3.476684 5.215026 9.560882 2.607513 13.037566z m0 0M308.555733 853.526c-0.869171 4.345855-6.953369 6.084198-13.037566 4.345855-6.084198-1.738342-9.560882-6.953369-8.691711-10.430053 0.869171-4.345855 6.953369-6.084198 13.037566-4.345855 6.084198 1.738342 9.560882 6.084198 8.691711 10.430053z m0 0M351.145116 857.002684c0 4.345855-5.215026 7.82254-11.299224 7.82254-6.084198 0-11.299224-3.476684-11.299224-7.82254s5.215026-7.82254 11.299224-7.82254c6.084198 0 11.299224 3.476684 11.299224 7.82254z m0 0M391.126986 850.049315c0.869171 4.345855-3.476684 8.691711-9.560882 9.560882-6.084198 0.869171-11.299224-1.738342-12.168395-6.084197-0.869171-4.345855 3.476684-8.691711 9.560881-9.560882 6.084198-0.869171 11.299224 1.738342 12.168396 6.084197z m0 0"
            fill="#191717"/>
    </symbol>
    <symbol id="guestbook" fill="none" stroke="currentColor" stroke-linecap="round"
            stroke-linejoin="round" stroke-width="2" viewBox="0 0 24 24" xmlns="http://www.w3.org/2000/svg">
        <circle cx="12" cy="12" r="4"/>
        <path d="M16 8v5a3 3 0 0 0 6 0v-1a10 10 0 1 0-3.92 7.94"/>
    </symbol>
    <symbol id="home-page" fill="none" stroke="currentColor" stroke-linecap="round" stroke-linejoin="round"
            stroke-width="2" viewBox="0 0 24 24" xmlns="http://www.w3.org/2000/svg">
        <path d="M3 9l9-7 9 7v11a2 2 0 0 1-2 2H5a2 2 0 0 1-2-2z"/>
        <polyline points="9 22 9 12 15 12 15 22"/>
    </symbol>
    <symbol id="link" viewBox="0 0 1024 1024" xmlns="http://www.w3.org/2000/svg">
        <path
            d="M563.2 672c-6.4-6.4 0 0 0 0L448 793.6c-57.6 57.6-153.6 57.6-211.2 0-57.6-57.6-64-147.2 0-211.2l121.6-121.6-6.4-6.4-38.4-32-6.4-6.4-121.6 121.6C108.8 614.4 108.8 755.2 192 832s217.6 83.2 300.8 0l121.6-121.6-6.4-6.4-44.8-32z m38.4-294.4c6.4 0 6.4 0 0 0l38.4 38.4 6.4 6.4-230.4 230.4-38.4-51.2 224-224zM531.2 192c83.2-83.2 217.6-83.2 300.8 0 83.2 83.2 83.2 217.6 0 300.8l-121.6 121.6-44.8-44.8 128-128c44.8-44.8 51.2-147.2-6.4-204.8-57.6-57.6-160-57.6-204.8-6.4l-128 128v-6.4l-38.4-38.4-6.4-6.4L531.2 192z"
            fill="currentColor" stroke-width="28"/>
    </symbol>
    <symbol id="logo" xmlns="http://www.w3.org/2000/svg" viewBox="0 0 261.76 226.69">
        <path d="M161.096.001l-30.225 52.351L100.647.001H-.005l130.877 226.688L261.749.001z" fill="#41b883"/>
        <path d="M161.096.001l-30.225 52.351L100.647.001H52.346l78.526 136.01L209.398.001z" fill="#34495e"/>
    </symbol>
    <symbol id="logout" viewBox="0 0 1024 1024" xmlns="http://www.w3.org/2000/svg">
        <path d="M448 480A224 224 0 1 1 672 256 224 224 0 0 1 448 480z m0-384A160 160 0 1 0 608 256 160 160 0 0 0 448 96z"/>
        <path
            d="M704 960H64a32.64 32.64 0 0 1-32-30.08V896C32 631.04 218.88 416 448 416a384 384 0 0 1 289.92 135.68 32 32 0 0 1 0 44.8 32 32 0 0 1-45.44 0A320 320 0 0 0 448 480c-192 0-352 186.88-352 416H704a32 32 0 0 1 0 64zM832 928a30.08 30.08 0 0 1-22.4-9.6 30.72 30.72 0 0 1 0-44.8L914.56 768l-104.96-105.6a31.36 31.36 0 0 1 44.8-44.8l128 128a30.72 30.72 0 0 1 0 44.8l-128 128a30.08 30.08 0 0 1-22.4 9.6z"/>
        <path d="M960 800H576a32 32 0 0 1 0-64h384a32 32 0 0 1 0 64z"/>
    </symbol>
    <symbol id="mini-menu" viewBox="0 0 32 32" xmlns="http://www.w3.org/2000/svg">
        <path
            d="M30 18h-28c-1.1 0-2-0.9-2-2s0.9-2 2-2h28c1.1 0 2 0.9 2 2s-0.9 2-2 2zM30 6.25h-28c-1.1 0-2-0.9-2-2s0.9-2 2-2h28c1.1 0 2 0.9 2 2s-0.9 2-2 2zM2 25.75h28c1.1 0 2 0.9 2 2s-0.9 2-2 2h-28c-1.1 0-2-0.9-2-2s0.9-2 2-2z">
        </path>
    </symbol>
    <symbol id="music" viewBox="0 0 1024 1024" xmlns="http://www.w3.org/2000/svg">
        <path
            d="M951.195857 793.868669 951.195857 107.301841c0-23.847128-14.686491-43.225477-39.304168-43.225477L374.844224 64.076364c-24.949228 0-47.865147 19.763113-47.865147 43.225477l0 591.558987c-22.512736-28.092825-64.692395-45.542242-107.262956-45.542242-84.609003 0-152.599514 68.832691-152.599514 153.442718s69.254294 153.442718 153.863297 153.442718 152.047951-68.832691 152.047951-153.442718c0-4.351098 8.18645-8.630564-2.046612-12.891611L370.981243 272.830829l537.235754 0 0 426.028976c-22.512736-28.092825-64.866357-45.542242-107.437941-45.542242-84.609003 0-152.686495 68.832691-152.686495 153.442718s69.210291 153.442718 153.820318 153.442718 151.688771-68.832691 151.688771-153.442718C953.60165 802.409183 962.452225 798.130739 951.195857 793.868669zM221.401506 916.362514c-60.430324 0-109.60121-49.170886-109.60121-109.60121s47.485501-109.60121 107.915825-109.60121c56.459896 0 107.262956 42.929742 107.262956 97.852632l0 4.780887c0 1.623987 1.889023 3.195785 2.224668 4.718465 0.014326 0.756223 0.956791 1.489934 0.956791 2.249227C330.160535 867.191628 281.832853 916.362514 221.401506 916.362514zM370.981243 228.828662 370.981243 109.346407c10.233062-0.031722 0.511653-0.042979 0.747014-0.042979l536.488741 0.107447 0 119.41881L370.981243 228.829685zM802.290479 916.362514c-60.430324 0-109.60121-49.170886-109.60121-109.60121s47.659463-109.60121 108.09081-109.60121c56.459896 0 107.437941 42.929742 107.437941 97.852632l0 15.741519c0 1.01819 1.677199 1.991354 1.810229 2.972705C906.404722 870.909299 860.370269 916.362514 802.290479 916.362514z"
            fill="currentColor" stroke-width="28"/>
    </symbol>
    <symbol id="page1" class="icon" viewBox="0 0 1024 1024" xmlns="http://www.w3.org/2000/svg">
        <path
            d="M790.08 718.08l-138.112 119.232V718.08h138.112zM198.848 132.992h627.328v516.16H617.088a34.56 34.56 0 0 0-34.816 34.432v206.528H198.848V132.992z m662.208-68.8H164.032a34.56 34.56 0 0 0-34.816 34.432v825.92a34.56 34.56 0 0 0 34.816 34.432h453.056l278.784-240.896V98.624a34.56 34.56 0 0 0-34.816-34.432z"
            fill="currentColor" stroke-width="28"/>
    </symbol>
    <symbol id="search" viewBox="0 0 1024 1024" xmlns="http://www.w3.org/2000/svg">
        <path
            d="M417.383062 781.594111c-62.535265 0-124.161834-16.698311-179.426509-49.300846-81.562621-48.080042-139.525754-125.07053-163.182546-216.743416s-10.1952-187.094142 37.913495-268.656763c48.080042-81.533968 125.07053-139.497101 216.743416-163.153894 91.701538-23.77038 187.094142-10.223852 268.656763 37.884842S737.613434 246.722194 761.270227 338.394057l0 0c23.656793 91.672886 10.1952 187.094142-37.913495 268.629133-48.108694 81.562621-125.099183 139.525754-216.772069 163.182546C477.05 777.816065 447.11727 781.594111 417.383062 781.594111zM418.518932 130.511449c-24.848944 0-49.868781 3.152806-74.547857 9.54233-76.649727 19.766183-141.002384 68.214614-181.187619 136.4016-40.213887 68.186985-51.458999 147.932214-31.69384 224.553289 19.793812 76.649727 68.214614 141.002384 136.4016 181.187619 68.186985 40.212864 147.903561 51.402717 224.553289 31.69384 76.649727-19.793812 141.002384-68.214614 181.216271-136.4016 40.212864-68.158333 51.458999-147.932214 31.665187-224.553289l0 0c-19.766183-76.649727-68.186985-141.002384-136.372947-181.216271C522.317996 144.456043 470.801692 130.511449 418.518932 130.511449z"/>
        <path
            d="M915.563312 953.295682c-11.161201 0-22.321378-4.260024-30.841426-12.780071l-260.307607-260.421194c-17.039072-17.039072-17.039072-44.672432 0-61.682851 17.039072-17.039072 44.64378-17.039072 61.682851 0l260.307607 260.421194c17.039072 17.039072 17.039072 44.672432 0 61.682851C937.88469 949.035658 926.723489 953.295682 915.563312 953.295682z"/>
    </symbol>
    <symbol id="star" viewBox="0 0 1151 1024" xmlns="http://www.w3.org/2000/svg">
        <path
            d="M1056.069394 342.982943L763.905526 300.38821 633.321676 35.620955c-23.397106-47.194163-91.188723-47.794089-114.785804 0L387.952021 300.38821 95.788154 342.982943c-52.39352 7.59906-73.390924 72.191072-35.395623 109.186496l211.373859 205.974527-49.993817 290.964016c-8.998887 52.593496 46.394262 91.988624 92.788525 67.391666L575.928774 879.116638l261.367676 137.38301c46.394262 24.396983 101.787412-14.79817 92.788525-67.391666l-49.993818-290.964016 211.373859-205.974527c37.995301-36.995425 16.997898-101.587436-35.395622-109.186496zM777.103894 624.548121l47.394139 276.765772L575.928774 770.730042l-248.569259 130.583851 47.394139-276.765772-201.175121-195.975763 277.965624-40.395005 124.384617-251.968838 124.384617 251.968838 277.965623 40.395005-201.17512 195.975763z"/>
    </symbol>
    <symbol id="user" viewBox="0 0 1024 1024" xmlns="http://www.w3.org/2000/svg">
        <path d="M512 576A288 288 0 1 1 800 288 288 288 0 0 1 512 576z m0-64A224 224 0 1 0 288 288 224 224 0 0 0 512 512z"/>
        <path d="M50.56 992H32a480 480 0 0 1 960 0v32H64l-11.52-3.2zM512 576a416 416 0 0 0-414.72 384h832A416 416 0 0 0 512 576z"/>
    </symbol>
    <symbol id="views" viewBox="0 0 1024 1024" xmlns="http://www.w3.org/2000/svg">
        <path
            d="M512 160c320 0 512 352 512 352S832 864 512 864 0 512 0 512s192-352 512-352zm0 64c-225.28 0-384.128 208.064-436.8 288 52.608 79.872 211.456 288 436.8 288 225.28 0 384.128-208.064 436.8-288-52.608-79.872-211.456-288-436.8-288zm0 64a224 224 0 1 1 0 448 224 224 0 0 1 0-448zm0 64a160.192 160.192 0 0 0-160 160c0 88.192 71.744 160 160 160s160-71.808 160-160-71.744-160-160-160z"
            fill="currentColor"/>
    </symbol>
    <symbol id="warehouse" fill="none" stroke="currentColor" stroke-linecap="round"
            stroke-linejoin="round" stroke-width="2" viewBox="0 0 24 24" xmlns="http://www.w3.org/2000/svg">
        <path
            d="M9 19c-5 1.5-5-2.5-7-3m14 6v-3.87a3.37 3.37 0 0 0-.94-2.61c3.14-.35 6.44-1.54 6.44-7A5.44 5.44 0 0 0 20 4.77 5.07 5.07 0 0 0 19.91 1S18.73.65 16 2.48a13.38 13.38 0 0 0-7 0C6.27.65 5.09 1 5.09 1A5.07 5.07 0 0 0 5 4.77a5.44 5.44 0 0 0-1.5 3.78c0 5.42 3.3 6.61 6.44 7A3.37 3.37 0 0 0 9 18.13V22"/>
    </symbol>
    <symbol id="word-number" viewBox="0 0 1024 1024" xmlns="http://www.w3.org/2000/svg">
        <path
            d="m199.04 672.64 193.984 112 224-387.968-193.92-112-224 388.032zm-23.872 60.16 32.896 148.288 144.896-45.696L175.168 732.8zM455.04 229.248l193.92 112 56.704-98.112-193.984-112-56.64 98.112zM104.32 708.8l384-665.024 304.768 175.936L409.152 884.8h.064l-248.448 78.336L104.32 708.8zm384 254.272v-64h448v64h-448z"
            fill="currentColor"/>
    </symbol>
</svg>